<mxfile host="app.diagrams.net" agent="Mozilla/5.0 (Windows NT 10.0; Win64; x64) AppleWebKit/537.36 (KHTML, like Gecko) Chrome/131.0.0.0 Safari/537.36" version="25.0.1">
  <diagram id="7gcUSTIZ7YSJ5vT40chW" name="Page-1">
    <mxGraphModel dx="1034" dy="412" grid="1" gridSize="10" guides="1" tooltips="1" connect="1" arrows="1" fold="1" page="1" pageScale="1" pageWidth="1169" pageHeight="827" math="0" shadow="0">
      <root>
        <mxCell id="0" />
        <mxCell id="1" parent="0" />
        <mxCell id="SZY12_XKgGBlkoAp8IEY-12" style="edgeStyle=orthogonalEdgeStyle;rounded=0;orthogonalLoop=1;jettySize=auto;html=1;strokeColor=#808080;" parent="1" source="ieQxvcUEDRAMVTVQHlv8-2" edge="1">
          <mxGeometry relative="1" as="geometry">
            <mxPoint x="76.75" y="235.5" as="sourcePoint" />
            <mxPoint x="245.5" y="235.5" as="targetPoint" />
          </mxGeometry>
        </mxCell>
        <mxCell id="SZY12_XKgGBlkoAp8IEY-14" style="edgeStyle=orthogonalEdgeStyle;rounded=0;orthogonalLoop=1;jettySize=auto;html=1;exitX=1.033;exitY=0.51;exitDx=0;exitDy=0;exitPerimeter=0;entryX=0.013;entryY=0.503;entryDx=0;entryDy=0;entryPerimeter=0;strokeColor=#808080;" parent="1" source="ieQxvcUEDRAMVTVQHlv8-7" edge="1">
          <mxGeometry relative="1" as="geometry">
            <mxPoint x="608.8175000000001" y="246" as="sourcePoint" />
            <mxPoint x="740.1500000000001" y="245.64999999999998" as="targetPoint" />
          </mxGeometry>
        </mxCell>
        <mxCell id="SZY12_XKgGBlkoAp8IEY-13" style="edgeStyle=elbowEdgeStyle;rounded=0;orthogonalLoop=1;jettySize=auto;html=1;strokeColor=#808080;elbow=vertical;" parent="1" source="ieQxvcUEDRAMVTVQHlv8-5" edge="1">
          <mxGeometry relative="1" as="geometry">
            <mxPoint x="584.5" y="246" as="targetPoint" />
            <mxPoint x="443.5" y="246" as="sourcePoint" />
          </mxGeometry>
        </mxCell>
        <mxCell id="SZY12_XKgGBlkoAp8IEY-15" style="edgeStyle=orthogonalEdgeStyle;rounded=0;orthogonalLoop=1;jettySize=auto;html=1;exitX=1.033;exitY=0.503;exitDx=0;exitDy=0;exitPerimeter=0;strokeColor=#808080;" parent="1" edge="1">
          <mxGeometry relative="1" as="geometry">
            <mxPoint x="391.1500000000001" y="245.64999999999998" as="sourcePoint" />
            <mxPoint x="460" y="246" as="targetPoint" />
          </mxGeometry>
        </mxCell>
        <mxCell id="ieQxvcUEDRAMVTVQHlv8-2" value="" style="sketch=0;outlineConnect=0;fontColor=#232F3E;gradientColor=none;fillColor=#232F3D;strokeColor=none;dashed=0;verticalLabelPosition=bottom;verticalAlign=top;align=center;html=1;fontSize=12;fontStyle=0;aspect=fixed;pointerEvents=1;shape=mxgraph.aws4.git_repository;" vertex="1" parent="1">
          <mxGeometry x="140" y="206.5" width="60" height="78" as="geometry" />
        </mxCell>
        <mxCell id="ieQxvcUEDRAMVTVQHlv8-3" value="" style="shape=image;verticalLabelPosition=bottom;labelBackgroundColor=#ffffff;verticalAlign=top;aspect=fixed;imageAspect=0;image=data:image/svg+xml,PHN2ZyB4bWxuczpjYz0iaHR0cDovL2NyZWF0aXZlY29tbW9ucy5vcmcvbnMjIiB4bWxuczpkYz0iaHR0cDovL3B1cmwub3JnL2RjL2VsZW1lbnRzLzEuMS8iIHhtbG5zOmlua3NjYXBlPSJodHRwOi8vd3d3Lmlua3NjYXBlLm9yZy9uYW1lc3BhY2VzL2lua3NjYXBlIiB4bWxuczpyZGY9Imh0dHA6Ly93d3cudzMub3JnLzE5OTkvMDIvMjItcmRmLXN5bnRheC1ucyMiIHhtbG5zOnNvZGlwb2RpPSJodHRwOi8vc29kaXBvZGkuc291cmNlZm9yZ2UubmV0L0RURC9zb2RpcG9kaS0wLmR0ZCIgeG1sbnM6c3ZnPSJodHRwOi8vd3d3LnczLm9yZy8yMDAwL3N2ZyIgeG1sbnM9Imh0dHA6Ly93d3cudzMub3JnLzIwMDAvc3ZnIiB4bWxuczp4bGluaz0iaHR0cDovL3d3dy53My5vcmcvMTk5OS94bGluayIgdmVyc2lvbj0iMS4xIiBpZD0ic3ZnODA0NzkiIGlua3NjYXBlOnZlcnNpb249IjAuOTIuMyAoMjQwNTU0NiwgMjAxOC0wMy0xMSkiIHNvZGlwb2RpOmRvY25hbWU9ImdpdC5zdmciIHg9IjBweCIgeT0iMHB4IiB2aWV3Qm94PSIwIDAgMzAuMzcgMzAuMzciIHN0eWxlPSJlbmFibGUtYmFja2dyb3VuZDpuZXcgMCAwIDMwLjM3IDMwLjM3OyIgeG1sOnNwYWNlPSJwcmVzZXJ2ZSI+JiN4YTs8c29kaXBvZGk6bmFtZWR2aWV3IGJvcmRlcmNvbG9yPSIjNjY2NjY2IiBib3JkZXJvcGFjaXR5PSIxIiBmaXQtbWFyZ2luLWJvdHRvbT0iMCIgZml0LW1hcmdpbi1sZWZ0PSIwIiBmaXQtbWFyZ2luLXJpZ2h0PSIwIiBmaXQtbWFyZ2luLXRvcD0iMCIgZ3JpZHRvbGVyYW5jZT0iMTAiIGd1aWRldG9sZXJhbmNlPSIxMCIgaWQ9Im5hbWVkdmlldzgwNDgxIiBpbmtzY2FwZTpjdXJyZW50LWxheWVyPSJzdmc4MDQ3OSIgaW5rc2NhcGU6Y3g9IjI0LjU0MDUyIiBpbmtzY2FwZTpjeT0iLTcuOTc4NjcxNyIgaW5rc2NhcGU6cGFnZW9wYWNpdHk9IjAiIGlua3NjYXBlOnBhZ2VzaGFkb3c9IjIiIGlua3NjYXBlOndpbmRvdy1oZWlnaHQ9IjEwMTciIGlua3NjYXBlOndpbmRvdy1tYXhpbWl6ZWQ9IjEiIGlua3NjYXBlOndpbmRvdy13aWR0aD0iMTkyMCIgaW5rc2NhcGU6d2luZG93LXg9Ii04IiBpbmtzY2FwZTp3aW5kb3cteT0iLTgiIGlua3NjYXBlOnpvb209IjYuOTUyMzU1MSIgb2JqZWN0dG9sZXJhbmNlPSIxMCIgcGFnZWNvbG9yPSIjZmZmZmZmIiBzaG93Z3JpZD0iZmFsc2UiPiYjeGE7CTwvc29kaXBvZGk6bmFtZWR2aWV3PiYjeGE7PGcgaWQ9Imc4MDQ3NyIgdHJhbnNmb3JtPSJ0cmFuc2xhdGUoLTIwLjgxNTYsLTAuNzQyMikiPiYjeGE7CTx0aXRsZSBpZD0idGl0bGU4MDQ2NyI+UGFnZS0xPC90aXRsZT4mI3hhOwk8ZyBpZD0iZ3JvdXA0MjQ4LTEiIHRyYW5zZm9ybT0idHJhbnNsYXRlKDIwLjYzMDYsLTM0Ljg0MjgpIj4mI3hhOwkJPHRpdGxlIGlkPSJ0aXRsZTgwNDY5Ij5HaXQ8L3RpdGxlPiYjeGE7CQk8ZyBpZD0ic2hhcGU0MjQ5LTIiPiYjeGE7CQkJPHRpdGxlIGlkPSJ0aXRsZTgwNDcxIj5TaGVldC40MjQ5PC90aXRsZT4mI3hhOwkJCTxwYXRoIGlkPSJwYXRoODA0NzMiIGlua3NjYXBlOmNvbm5lY3Rvci1jdXJ2YXR1cmU9IjAiIHN0eWxlPSJmaWxsOiNGNTREMjc7IiBkPSJNMzAsNDkuNDRsLTEzLjMtMTMuMyAgICAgYy0wLjc0LTAuNzQtMS45Mi0wLjc0LTIuNjYsMGwtMi44NSwyLjg1bDMuNDMsMy40M2MwLjI2LTAuMSwwLjUzLTAuMTYsMC44NC0wLjE2YzEuMjcsMCwyLjMsMS4wMywyLjMsMi4zMiAgICAgYzAsMC4yOS0wLjA1LDAuNTgtMC4xNSwwLjg0bDMuMzYsMy4zNmMwLjI1LTAuMTEsMC41NS0wLjE3LDAuODMtMC4xN2MxLjI4LDAsMi4zMSwxLjA1LDIuMzEsMi4zMmMwLDEuMjktMS4wMywyLjMxLTIuMzEsMi4zMSAgICAgYy0xLjI3LDAtMi4zMS0xLjAyLTIuMzEtMi4zMWMwLTAuMjksMC4wNi0wLjU4LDAuMTYtMC44NGwtMy4xNy0zLjE3djguMjZjMC43NywwLjM5LDEuMjcsMS4xNywxLjI3LDIuMDYgICAgIGMwLDEuMjktMS4wMiwyLjMyLTIuMjksMi4zMmMtMS4yOSwwLTIuMzItMS4wMy0yLjMyLTIuMzJjMC0wLjk4LDAuNjEtMS44MiwxLjQ5LTIuMTV2LTguMzZjLTAuODgtMC4zMy0xLjQ5LTEuMTctMS40OS0yLjE1ICAgICBjMC0wLjMsMC4wNi0wLjU4LDAuMTYtMC44NWwtMy40My0zLjQybC05LjEzLDkuMTNDMCw1MC4xOCwwLDUxLjM2LDAuNzQsNTIuMDlsMTMuMywxMy4zMWMwLjczLDAuNzQsMS45MiwwLjc0LDIuNjYsMEwzMCw1Mi4wOSAgICAgQzMwLjc0LDUxLjM2LDMwLjc0LDUwLjE4LDMwLDQ5LjQ0eiIvPiYjeGE7CQk8L2c+JiN4YTsJPC9nPiYjeGE7PC9nPiYjeGE7PC9zdmc+;" vertex="1" parent="1">
          <mxGeometry x="250" y="224" width="50" height="50" as="geometry" />
        </mxCell>
        <mxCell id="ieQxvcUEDRAMVTVQHlv8-4" value="" style="image;sketch=0;aspect=fixed;html=1;points=[];align=center;fontSize=12;image=img/lib/mscae/Azure_Pipelines.svg;" vertex="1" parent="1">
          <mxGeometry x="350" y="206.5" width="50" height="50" as="geometry" />
        </mxCell>
        <mxCell id="ieQxvcUEDRAMVTVQHlv8-6" value="" style="image;aspect=fixed;html=1;points=[];align=center;fontSize=12;image=img/lib/azure2/containers/Container_Registries.svg;strokeColor=#1A1A1A;" vertex="1" parent="1">
          <mxGeometry x="542" y="284.5" width="61.87" height="55.5" as="geometry" />
        </mxCell>
        <mxCell id="ieQxvcUEDRAMVTVQHlv8-9" value="" style="edgeStyle=orthogonalEdgeStyle;rounded=0;orthogonalLoop=1;jettySize=auto;html=1;" edge="1" parent="1" source="ieQxvcUEDRAMVTVQHlv8-8" target="ieQxvcUEDRAMVTVQHlv8-4">
          <mxGeometry relative="1" as="geometry" />
        </mxCell>
        <mxCell id="ieQxvcUEDRAMVTVQHlv8-8" value="" style="image;sketch=0;aspect=fixed;html=1;points=[];align=center;fontSize=12;image=img/lib/mscae/Azure_Pipelines.svg;" vertex="1" parent="1">
          <mxGeometry x="343" y="398" width="64" height="64" as="geometry" />
        </mxCell>
        <mxCell id="ieQxvcUEDRAMVTVQHlv8-12" value="Azure Repos" style="text;html=1;align=center;verticalAlign=middle;resizable=0;points=[];autosize=1;strokeColor=none;fillColor=none;" vertex="1" parent="1">
          <mxGeometry x="230" y="274" width="90" height="30" as="geometry" />
        </mxCell>
        <mxCell id="ieQxvcUEDRAMVTVQHlv8-13" value="" style="edgeStyle=elbowEdgeStyle;rounded=0;orthogonalLoop=1;jettySize=auto;html=1;strokeColor=#808080;elbow=vertical;" edge="1" parent="1" source="ieQxvcUEDRAMVTVQHlv8-21" target="ieQxvcUEDRAMVTVQHlv8-5">
          <mxGeometry relative="1" as="geometry">
            <mxPoint x="584.5" y="246" as="targetPoint" />
            <mxPoint x="443.5" y="246" as="sourcePoint" />
          </mxGeometry>
        </mxCell>
        <mxCell id="ieQxvcUEDRAMVTVQHlv8-5" value="" style="image;sketch=0;aspect=fixed;html=1;points=[];align=center;fontSize=12;image=img/lib/mscae/Docker.svg;" vertex="1" parent="1">
          <mxGeometry x="560" y="220" width="50" height="41" as="geometry" />
        </mxCell>
        <mxCell id="ieQxvcUEDRAMVTVQHlv8-14" value="" style="image;aspect=fixed;html=1;points=[];align=center;fontSize=12;image=img/lib/azure2/other/AKS_Automatic.svg;" vertex="1" parent="1">
          <mxGeometry x="585" y="401" width="68" height="68" as="geometry" />
        </mxCell>
        <mxCell id="ieQxvcUEDRAMVTVQHlv8-15" value="" style="edgeStyle=orthogonalEdgeStyle;rounded=0;orthogonalLoop=1;jettySize=auto;html=1;exitX=1.033;exitY=0.51;exitDx=0;exitDy=0;exitPerimeter=0;entryX=0.013;entryY=0.503;entryDx=0;entryDy=0;entryPerimeter=0;strokeColor=#808080;" edge="1" parent="1" target="ieQxvcUEDRAMVTVQHlv8-7">
          <mxGeometry relative="1" as="geometry">
            <mxPoint x="608.8175000000001" y="246" as="sourcePoint" />
            <mxPoint x="740.1500000000001" y="245.64999999999998" as="targetPoint" />
          </mxGeometry>
        </mxCell>
        <mxCell id="ieQxvcUEDRAMVTVQHlv8-7" value="" style="image;sketch=0;aspect=fixed;html=1;points=[];align=center;fontSize=12;image=img/lib/mscae/Azure_Artifacts.svg;" vertex="1" parent="1">
          <mxGeometry x="690" y="220.5" width="50" height="50" as="geometry" />
        </mxCell>
        <mxCell id="ieQxvcUEDRAMVTVQHlv8-20" value="" style="image;sketch=0;aspect=fixed;html=1;points=[];align=center;fontSize=12;image=img/lib/mscae/Azure_Pipelines.svg;" vertex="1" parent="1">
          <mxGeometry x="330" y="658" width="70" height="70" as="geometry" />
        </mxCell>
        <mxCell id="ieQxvcUEDRAMVTVQHlv8-22" value="" style="edgeStyle=elbowEdgeStyle;rounded=0;orthogonalLoop=1;jettySize=auto;html=1;strokeColor=#808080;elbow=vertical;" edge="1" parent="1" target="ieQxvcUEDRAMVTVQHlv8-21">
          <mxGeometry relative="1" as="geometry">
            <mxPoint x="517" y="246" as="targetPoint" />
            <mxPoint x="443.5" y="246" as="sourcePoint" />
          </mxGeometry>
        </mxCell>
        <mxCell id="ieQxvcUEDRAMVTVQHlv8-21" value="" style="shape=image;verticalLabelPosition=bottom;labelBackgroundColor=default;verticalAlign=top;aspect=fixed;imageAspect=0;image=data:image/png,iVBORw0KGgoAAAANSUhEUgAAAPkAAABmCAYAAAAJfzcGAAAAAXNSR0IArs4c6QAAAARnQU1BAACxjwv8YQUAAAAJcEhZcwAAFiUAABYlAUlSJPAAACAPSURBVHhe7Z0HfE33F8CPRCRGECO0asYuNTr97dGiNTtURe1ZilKbao3am1CzKFW1qaiiZimtaqkOm9pbkAiS/z3n/n7vzjfuG5H3/L753Jxzfve+3xv3nvvb56ZJ+umPZHCJNNKGh6L0Bur89NIN+Ms5aaSEZCnBVOJ+aXNLSgrLJ1mSadBmeJa9lJ/0Zy7tv46jt42oX+kN9J/Ex/nzH5bDd3N0hxulpBiuAy7NjldJBj+co7XdO3/OpTY/eY+yn6O31aRJ2v072+fkw0kKfSm9bVdKr5cUvZQPUI7jGeptjeRobLMD9S/wBF/m93g+r36vxpYUOj2SSum686aVuJ8db1HyN9BcD/yT2GxPUOWn/YYeYpavr/L3Bkp+FkpyPb78knrpDaSLSvrDmxfPV5+75l0lha45vW2T6ovedSfgGWpsJtQ2KfyF2k8mbZ7g7fw4Zvn6Kn/30Lxa+l3pfEl/dF1obNpt+/ndkyw/jcSM6d1JqG1Cb2ugV9iRjgmi//RuaikLveS7ZVv6aZiUFbTVEpOZpP/sMJSy0En8qe1JrWa0ZbhuvuF/WSq2bMl/fC+TssJsSXLbJtmRphJfzyWl2iTPkB0u25iss20JKLltkyZpiM2WTXMp/TNIVPQSVS6ZYNJgE6rvym2bNKZopYxjKR+N/7Ua/+MpaqndEJvNPrx8pN6W/pNpT0qaUykrWiltKKVNTkaddsrSZpts+I90JjU2KUyyNJV0s03OpTfwUb78lsrz1dhM6N/WicSXYzayrdyh9fuZ6dzWSCxBeEmil8pxHL3tHOM7eoeUzNdB/nw3x9HLSUqK4xNikPxwvS2byvXg6PxZlRyen/YI11Da5Pjh8EPyF0uCvoSkUpbcdlmy/Eylcpzq7TQ2obc10CuY9Abq/PTSG6SyfKXD6DwwU21TLi6eP6uSvyF3CtpBtna/dSgHO9Ib+G++HpbkvvlQ3s3ffn4aS1LompNUSue2XekdJ+AfAIXaZilMegN1fnrpDVJ5vtLL6HdnJp4Afr74CXHn/NmXqvzw7aQN0/kHIFtWCb1thB9hJh1joU0u/bMn2YZfSkaW3Nam2pNyZcRcOt4jW7I0bvwYtTSx0CRNxvCTGKSsmEtVfqYSj5MlvaG06W1KsEmTDSGdSbJVG6KR0j+7khQHUhY2yeC7ZVTfkdukcando5Uy5lJ7NP430xDFNtnwH9dxYwko9TYeIZv2JB7nTMoKSWnj+dIBZNNOSuLJXDfd8B/pTHKbJCl2pRgntywlheWDJ45KAoZn2eMdX8rPVNp/HUdvG1G/0hvoP4mP8+c/LIfv5ugON0pJMVwHXJodr5IMfjhHa7t3/pxLbX7yHmU/R2+rEePkdvFlfo/n8+r3amxJodMjqZSuO29aifvZ8RYlfwPN9cA/ic32BFV+2m/oIWb5+ip/b6DkJ8bJcRdD866SQtec3rZJ9UXvuhPwDDU2E2qbFP5C7SeTNk/wdn4cs3x9lb97aF4t/a50vqQ/ui40Nu22/fzuSZafRmLG9O4k1DahtzXQK+xIx4hxctsf38ukrDBbkty2SXakqcTXc0mpNskzZIfLNibrbFsCSm7bpEkaYrNl01xK/wwSFb1ElUsmmDTYhOq7ctsmjSlaKeNYykfjf63G/3iKWmo3xGazDy8fqbel/2Tak5LmVMqKVkobSmmTk1GnnbK02SYb/iOdSY1NCpMsTSXFOLkFiS/HbGRbuUPr9zPTua2RWILwkkQvleM4ets5xnf0DimZr4P8+W6Oo5eTlBTHJ8Qg+eF6WzaV68HR+bMqOTw/7RGuIcbJbajz00tvkMrylQ6j88BMtU25uHj+rEr+htwpaAfZ2v3WoRzsSG/gv/mKcXJZJYWuOUmldG7bld5xAv4BUKhtlsKkN1Dnp5feIJXnK72Mfndm4gng54ufEHfOn32pyg/fTtownX8AsmWV0NtG+BFm0jFpkpOSHOctEAj8GrnjTSAQBCzCyQWCAEc4uUAQ4AgnFwgCHOHkAkGAI5xcIAhwhJMLBAGOcHKBIMARTi4QBDjCyQWCAEc4uUAQ4AgnFwgCHOHkAkGAI5xcIAhwhJMLBAGOWE+u4sTfZ+DIgaNw/K8zcPzIabhw5jJcv3ITbly9BcnSz5Q1RxaIkLbcz+SAgsXzQeES+aF42SgoUa4wy0EgSH080U5+PyERfli5E3bE7oN9Px6Ey+evsT3WCM+aCV6sWgYqvfYCvN60GmSOCGd7BILHzxPp5P8eOgkLJi6Hjd9uh/i7CSzVe1Sr9wq83bYu1GhYkaUIBI+PJ8rJf915CGKGLYI9mw+wFN9S+NkC0HlQc6j7bjWWIhCkPE+Ek1/67wqM7DkDNi3fwVJSlldqlocxi/pBjtzZWIpAkHIEvJMvnr4GRnw4lVnWKVQiH2SPjIB//jgBt2/EsVTrYDt92Oye8OqblVmKQJAyBKyTx926CwPbjIXNq3axFNfATrToro2gcp0Xodz/nmWpMtM+XQAxQxcxy5xOUvV8x4afqZfejPc+aAiDp33ILIHA9wSkk188ewXa1e5LQ2JWaNP7XejY/z1ydHt80mECLJ+zgVlGylcqBf3Gd4YmL3dhKUZwyO2L7z4X1XdBihBwk2HQsd+r2M2Sg2fIlB6mrx4KH49u79DBkazZMzPNnJN/n4VSLxaDmLXDaUzdjL9+OwZNK3wIJ/85y1IEAt8RUCU5Tl5595WucPXidZbinDwFclOpim1vV6hVMBrOn77ELCPFyxaGlQdmkn7n9j1YOX8jxN28Q3bOp7JDvqinIPH+A/j38Cm4ee023VgEAl8SME6ODtW0Qlc48ZfrJXiRUgVhwY/jnZbOnOVzYqXq+nhmmTNlxadQq3ElZgkEj5+Aqa73eOczSw6ePmMYTJOq6K46OBIzbCHTzPlwaCu7Dp544iRcHjMJbq1ez1IEgpQhIJx80ZRV8NMPvzLLNYbP+RjyFnqKWc7B6a/YoWfG0/lzUZseJ76ouf3dRqYBpI3MCVcmToVzXXvBo2tKcyL+198g+X4iswQC7+P3To4LSUb2mM4s1yj9UnHLs9DWL9nKNC0N3n8VNp9cDNUb/I+lyJyObgNnWnaEhL/+ITsoUyYIr1UDkhIS4OqMOZSGYPrR/9WAe3v3sxSBwLv4vZMPbu+4jWxGr1HWO7t+33uEaQpdP2sFoxb0ZZbCg//OQdz3W0i/vS6WJJKlcX2S12Z/CY9u3SY9tFgRCHnmGThR7224Pu8rShMIvIlfO/mKuRvh4B6j8zkCq9YvVSvDLNfRr1D7ZHp3+GCwtnrOSRMayjSAW2uUNnj4qzVIJt29C9dmzSMdyd6+Jcnz/QbDna3bSRcIvIXfOnlC/H2Y0H82s1zHnZ7vu3H3mCYzYHIXaNpZLpXNSJsju+Tp8sPh7/9zFB5elIfcgsIzQWjxoqRfn7cI5KfSS85f9zVqs0NSEpxt1wUeXb9B6QKBN/BbJ18xN5aCOVil7CslmOY6GcMzMA3gzTZ1ofmHjZklc2jf31Ap19tKaS85eHBEVlmXuLNrD9OkvF5+geTDK1fhzo7dpKcJDobwOq+S/uh2HFyNsX7zcsa9O/GwfvEWGN1rJvRpPpJmBPZ5fyRN1V2zcBOcOXaOHSkINPx2nLxmgWY0+cUqy3+ZASXLF2GW6zSv3APyFMwNoxf2YykyONGlcbmONEFmye4pULZCSUr/9/lKkHhantGWrXVzeHrsCNJvfrMC/uvSk/SIZk0gz5SxpMdt3Aynm7clPShjRij2x14IzuL68J498EaIjr1h6Y/w8MFDlmokjXRjqv1OVeg2tBUUKPoMSxUEAn5Zkm9ZvdstB0dC0qVlmjXGLx0EQ2fJzqlmYNtxthlw6gAU6nb5vf3K+vXQokqoqFtrN0Ayc7yMVf4nvSYd6dhmv7V8DemesDN2H7xevBWsXfSDQwdHkqWmw8Zl26BeydZUugsCB7908tVS9dJd7se7NyadK08OCA2TnZDz7ewNmlVuakdKE6Y4+f2jx5gGkK5gAaZJznznjq2jLShDBshY4WXSkZvLVzHNPXZ9vx+6NPoEbl23tjwWK3a40m7BpBUsReDv+J2T45puLMnd5eifp5jmGdirP6TjBGY5Bie7PDh3nvTgrFk01fD4335nGkAG1l5H7u3/1fYaqzxIfAh93x9lKL1xdl+XIS1g3JKBMGPdcBg4pathfJ8zacBcu5N/BP6F3zn53i2/Mc099m9XnMpdTh89B53qDWSWAq5m4yTf08aOSzyp3FxC8udlmuTkh/9kGkBYMbnnnXN3509Ms8aq+d8bOiUxWMXW01+Tk7/etDpUfeMVWjePM/W+/mmK5rMjGORy0VTPahOC1IHfOfn+HX8wzT1+WLkLEu7dZ5Z1cCFM+zp9TaPEhKZXqvNJ8fFMk3lwUelDCA5XSvKE3w8zTXo9G17j3HVzFtz22J+ZJhOcNpj6E8IyKE0INWVeKQkDJhnXv/+41vWbDAbJGNJxIrxRojWUDnkNSgbVog31xmU7wKieMyytLcB+hC8+X2Iaj++YVBvDkYGW1XtR/mXT14XXoppDqxq9YP74bz2qgRw9fBI+7TwJahd+3/YdKka+RZ2rGEvgF+n6w/4LNWhv/24vzBj+FfVr2OPHdXsgZthXsHXNbmoWqcHQ3xOl2lPD59rDC5nrw4FdynXhKX7Xu44/9j+/H2eWe/T4vC106Pces6zR5tU+Um3CPBDk90cXQt6op0n/K6q0bVYb8vS4kZCtVTPSsRcde9M5JY4foip88qNHcCRvMUhOfEDpoUWioMge8+m0jmhQuh05Agcn/3y51fHMQJx3gJ10agfJFpkVdl1czixz8OJEB8bhOWdgD/47Hd6AntLv7yxsdYUcjW39CY1avgafz+9DOo4SDGg9hpbr2gPfp+VHb8FHn7dzuaP10aMkcrL545YZnFhP+YqlqMmTO29OctYPGgyiaEDIU/kiYcupJaTreev5ThRLAMG4f7NjR9INGFc3juoZQ8OcnAlLB0GdJt4JAOp3JbmnDo7MlO6mZ49ba+9iyR1dqbtdB0e4g+P8dLWDI0lxih0crr3AEw7Jd20cLw8tHEU6knjiFCQ/dNwrbgauU1eT4EJnY1j6UKrOH0nabNucOTguCqpbtKVLDo6g8yz7Yj3ULdbKdJqwPVYv2ES1ClyI9HGzEQ4dHMH3+XLCcmhepQc8eviIpdoHzy3OG5g39hunDo4c2H1YKnHbwb5tv8PSGetsDu4MvPlw8DpaErMWZo9eSsuX1Q6OqI/1FL9ycm9N2MBSq12dftS2dgUM5fxm+U7w209K+1kP9r5zEk+eZppC0j3lJKZJr23/PryiTJkNzq6EhMKSPfHYCWa5TuYIbXQbvDFeu+TdWXTb1u+Fjm8MoFh6VsH+gta1epOz2EPva2N6f2F5IRJOUpo6xPFwIDbdmkk375+3Wuvrwe+NzbaFk90fhcDY/9jB6Wv8yslddUpXwJK8brGWMF+649vj+uWbMKzrVHi/6kcOo8Eg+QrnYZrU/j7zH9MUgjIqs+aS72v7BB5dv8k0yckzayfAJJrk5YznXirONBnsROvdfKShtHAXDK31UZOhhlISo+v0HNUevtk7DX6NWw/bz30D8zePhda93jGEwkLn6iTdJOy1n/UFmfrcYyfisp+nKzWOS8uhbZ93DUOcyKyRSxxeN8O6TjHtK6hc9yUYMa83rDs8Fw7Gx8L3xxbBmEX9odhzhdgR8iiGJwUPXlPqmgP+fvgkHtwiciozJj3Fr5zcF087GfvxTHgle2Po0nAwzJPaYzi+jG2kEd2m0ay6r2Ncm5SCy1c5CX8aq6LBWZSLPFmqzqt5eFMpZYMza6vySXHWw0A3aF6LaQpYPXy1UHPq+HF2w3LGoLbj6MahpmnnBrD64CxoJzkb/hYYlAPDXb1coxz0HtsR1h6aAy9UeY4dLYOdmEM6TWSWFrNaM44A4E1j8vIhFEePk01yCFxZiI5oNpsRQ3CZgXMcVn35PbNksNky/utBFBKscavaEFUyP6QLDaHYA/Wia8Iq6Tv2HteJ2tJWsdcUKFYmCtb8MRvW/zmPIhXh5s4iKnv4lZM/dKF95Q7YJsOez3F9ZkGHuv2pjbR42mrDheyI51QX3b0DxmG64KxKCa2uuiOPbigleZDeye9qF8e4AnbqmMV3x2rytCFfUpy6+qXa0nRXvKk5mw2nBqvp+pV/+H6fTO8GaUPsd3JlzxVBw3XqZg2Cs/LMqu1mTdIhMd3ppmGPyKezG6YdI999bd55OWmQshKQ88GQFk5jDbTu+TYMm92LWa5j1s7GfpwFW8dRKDJf4VdO7s3OCG9TrqISox0nsuhRL1h5wFalcZLi5ECPiL5TLumedSdHsHe2YYvXmGUEg21gmxBvai9FNITe0Z/Dro37DUM7esxmG342swfTHIORcPtP+oBZCmsXKSMNHH2hh6W4K4E+sOStVOdFZslgzUXftPj74DFDNf2ZgrnJgV0Be/zxmXd6HHXcme3rP/EDpyMNnuJXTh6mGodOTWAcdayaIvePHdeEd+KkzaGUYA/OX2CaDJ+zjiTp2utpQtz7zlidHPllHwosiRevI7B9jKVdh9f705i2o57v3d//wjQZLFn5qIIr1GxYkYbm1OzZbLwp6u/n+KALRzUFNfpmAXJV1/H48zZjbatZ18aWquEtPzLeEKwURPh9qryuTGX2FX7l5M5iovuKbsNaw4E738HOC99SCGc9NVRTQ+Nif2CaQhrpZPKFKVgy628COG+doy+5gzJ79p1x/Ty2VbEt26RDPaeBK3EyCA4VYvNFz9kTFwxr65+vVIpproFOhOPMajBffaegvtCz8iCK3LomAaIfXfj3D+OoRe23rD3C6uXqZSE8S0ZmWadgsbwQFOT72qlwcidUqv0idBoYTbPFsF357AvaWWlIrUbKI4pvxxqrs2ElS0i/tPxTJ/z5F0k16p53fRtc3WHnLli6YIn7qVSt3n15BU1jxRsXlnhmJQ9W2Xu+OwwO75fj03HMhuHc6QXG31GPPm/9x7KyetDM8ZIeJTFN5oouNj/+Dji5xSq580YyTcZRc0f/W1uJFOwJfuXkZqWor8lfRBkaw464X7Zrp9UWLV2QekcRjACjXlbKCXtOKbkSDv/NNIW0kbmYJuVxWTuklDa39iLyFLzQcBor3rgWbptAw1wYSlrvGPhd9fHzzDois7hx4zW7uPUlud5ZnPUVOEPfHtY7Pbb5zW54zsiWU3sTdlQy6z9DSpTiiF85eabMGWxt35Ri3eItNBaKPcotqvWkaZxqMFIM58ayVcZ6pkT60oqTxx8wTrpIl081xv6fatxVKv3DSmjHvL0NVoMxlPSyfTE0FKUGn+SKVWlOepO573fjrI+937hijOgTliGMaVrqZbwJMyNPQ5M9SyB+2TKW6jmZMmtvatgMcWeI9rrJd0lt+JWTI64+zshb4PBanaItoVnFbjSDSk+9ZnJwRuTm0m+ZpiX988qY5909ximQIfmUSCzqiTShUQWpPZ8SYI2ls0lgymNSG52TLdJYzb58QRvg0hUunNUG/MASFIe/9ESHX4OPsl6CIiEJkPP2ZbjZqxfcneudGWI4x1zP6aPWJh5hyXzhjGdzDlICv3Nyqx09vgSfgspLv3v7foX7/yrBITjpJAdOX6Y06Q8uXITEU9phG4wgExolz6LCqjrOe+eoq/lWwKEhnFeNm5U5+qVVY/2cG1eVefB5CuSiySJqDu6xP9XXDAyXpZ//jx1QOHlGT7X0xolACbFKiGtPiCqRn2kKa0yG8hyBy55xQo8aR0Nojwu/c/IKNcsz7fGCTQds13IuDh3JNC081jpye4N2dhWSobxSysfrJtGEV6/CNGu0rNGLll3iRlN3x5vXMPSYVb3VnVFY4laopf398UK3MoNu0dTVNB1UTZ0mVZmmJQhMHMaNBTtm1GhYAYKDtZf/irkb4NJ/ri9TXTh5JdMUglgHa2rC/0ryyqXJwR433Ue0tX0ODO5g7wkoWRopTn5r1TqmKaR/QXGa+INKpx6uSMtcrw6zrFGouNKkwQ6rsb2/oIkuzthsEnGnSCklXBVSP7om02Sw5BrUbrxLHWPYWz9jqPZ5cnjjeKf9G8zSsiPeOEkkrK7SB+IJWAOr0VAZFUGwVO5jElHHjJXzNtIacj2iJPcSNRs93qeGPvt8UWj2QQPZwHbZwM9kXQfGcwsrLc+EwwkwZjeCTFWUC+3er0qnXEYpHR+h5A4VaythpDiDO0xwuFBj04odhnn6GD1G39GJa5xx8o8arH7jUk19p6QanCfeVjoG122reeO9GoaprpwFcTkg5lYknH8YArfSZ4EsI0ZAxo4d2V7P6Two2lCaY+SgzvUH2Q0sgk6My0NdDf2VGkjVTn7u1EWKOKLnjabVmfZ4GDqrp2245dq8hZBwxNghh2Tv1IZpADeXmVTtwsIgY8UKpGNb/O5uZQJKRFPXpleaEd2loWGqJFZDMWjB8A+nUmQSDMiAgSW+mbkeujYeAj3eGcqOVGjftynTtAyVvr/eOdDRG5RqR4t8MKoJ9lTjCjOMx4cRXLq99antOe0cHErrO74Ts8xZcScC3r9UCL6q0hoytGjBUr0DPkseV83p2b3pF6hdpAUFs8Tpv7h+Hfs2cN18ozIdYGL/OYabVWomVUeGwV5tHL7CZYqFn1WqjbikEBdWPA5wTJk/vfTh1Wtw9KWq9EAEPWlzRULxP5XPqI7Dzslc/3XIN38G6bfXboAzbTqTnjZnDih26GdIk9b9nnVcH925gf0SyRndh7eBjgPkSDZm4DRYnO/uLngTwnF6nGdgxsvZGmluCjhUOXyOa4tCMMAERqpVg8tf1SsFOVgy403OSqgrTpZs4VQL+feQMgLhamQYBGfMzd8yjlm+I1WX5LwnHVdPYTWKb4/LwXEZY8cBSmfbfx0+NHVwJGc32WGRuE1bDQ6OZGlUj2namXLZO7T2yMERnOE2Z+NoS9NBOe2kEtyRgyNYzcYQSO7EscdJTTjrzp6DpyRYI5uyfIjlUEtYC5m7aYzk1MpEptRKqnZy7L12Z92uL8BFHhjGmM9Sujp9lu0xR3owuktES8VJLg0fzTQFjOmW+fXapOONAh+0gODTU7K1Mn+QolXKSzfJDX9/Cc2k6rvZEJUeLJVwrXbPke1YimMw6uv6I/NptZsrzo7te3wS7Poj82jYLLWA1xjesN7v/iZLsQ/OjGv9cRPYdPwrt57E8zhI9YEcMTKLq4EbfAWWhvgIJL6aCzvQ8FHD9sgzYRREtJADRd5auRbOSiW+nmxtW8LTo+V28PX5i+F87wGkPzXyM8jevhXp3gSHrXC114Hdf8Ll81fh6sUbEBIaAjlyRVAVs0LNcjTd1V1wxtj6xVvh4N4jNEGEdzJjBNuipQtBlbovwYtVzefKm4HRWtWz7XBZJ3Z4ugJOYPpq2hqQrm2y00nNuxaSA5tFjtGDbfBdUpscQ2adO3WJbuq4ag7nqJerUJJWjWEQCQ7ORVCH+Y4qkc9urQAX/aj7mHChjn5I0hekeifHDpxGZTtYDrzoLbB0W7h9IkUGQTB++vFXG8Cjm+bTGbEjreCapaRjjDZss+ur6jg8VmT/DpoogxyrVhcSDh+hlWqFd26i/QKBt0jV1XUEq5ljFhmjfaQE+Czzxbsm2xwcF6CceivaroPjkFfeLyYzC+DGgq9N2+IRraJtDn5310/k4OjYeSaPEQ4u8Dqp3skRrEZO/Gawy1U9b4BBCpbtm06OjqCzHq/T2GFgxTwTRkLa3Oz4Eyfh4ifDSFeDa8cje3VjFsCVSTEkIwf2gQwvPk+6QOBN/MLJEXys7sApxratL2jR4y0qwfm8dBwHP1G7oXaFmI5sbVtAljfZBBmJ0y06aOahc3IN7gtpI+WpovgctDvbdkJ4reqQs5vj8WKBwF387gkqP/94kAIa6J/15Q1wJdaoBX01HVB3d++F09Ft6Qmk9shUrTIUWLZQumXK98wL/T+Fa7Pnk64mrEQxiNoWa6uSY9s+OTERCm1YQb3qAoEv8JuSnIMTCDC8rzdjY+GYJ4YNjv1ngcbBsdf7ZMN3HTp4WKmSkG/hLJuD47CamYPjuPczMyfbHPzGkm/pKSsFVy8VDi7wKX5XkqvBKZkxwxbBFTfWNCNYcjfpWB/e61Rf8zBAXA56rnsfzTRTM9IVyAcF130LIU/JQ2tY/T75ZjNN9FVOZL+eEPlxd9IfXrkKZ1p3gnzzZtiq7gKBr/BrJ+fgXOnNq3fBphU7HS57xBhxxctEQakXikL1+hUMUT0fXroMl8dPgRtfLbU9dNAemWpUhXxzYyAoXF5Ecu+XA3DqzWjTEMrpy5WBqB/WMgvg8thJkL1jW8ODFAQCXxAQTq4GQxad+ucsXL5wnSZFhKQLgSLP5qc4bLynXA8594SpcH2udhmkPXL26AK5BslP2URwGOx009amHW0hefNA4c3rbc84w8AQwRERKRbxRSAIOCe3wp0t2+DWulgquV0BF53kmTgawl9TQj7hGvGz7bsyS0vIM3mg4KoltORUIHhcPFFOjg8+uLN1B8Rt/pF6zfUPHnREjm6dIbJ3dwhSPZH06tSZcPEz84gwGPIp/zcLIG2OlA08KRDo8bvedU/AdjZGX7mzdbvLDo6ldpHdmyH3J/1sDo5LTHE+uj0Hj+zdA6K2rBcOLkgVPJHVdXyCyY1lK+lBBw/OnKXedP7oIpyaGlayGGSsXBGyNq4PocW1iyKw9L48ZhIkxRvjoWV9uxFE9v1IVM89pHIV92LbPWns3LGDaY55otvkVri9PhYufjLcdForOndOqSrPo64KPAOdfOfOncwS2MXFeHLCyQWpDuHkLuKikz9RbXKB4ElEOLlAEOAIJxcIAhzh5AJBgCOcXCAIcISTCwQBjnBygSDAEU4uEAQ4wskFggBHOLlAENAA/B9I9PU6NSIFgAAAAABJRU5ErkJggg==;" vertex="1" parent="1">
          <mxGeometry x="420.35" y="224" width="97.65" height="40" as="geometry" />
        </mxCell>
        <mxCell id="ieQxvcUEDRAMVTVQHlv8-23" value="" style="shape=image;verticalLabelPosition=bottom;labelBackgroundColor=default;verticalAlign=top;aspect=fixed;imageAspect=0;image=data:image/png,iVBORw0KGgoAAAANSUhEUgAAAWwAAAEhCAYAAABbWZoLAAAAAXNSR0IArs4c6QAAAARnQU1BAACxjwv8YQUAAAAJcEhZcwAAFiUAABYlAUlSJPAAAP+lSURBVHhe7P13ex1ZluaHLsIDBGhA771Lps+stOWrWjPd0lxd3Zke6Rnd5xndzzH6Q59J3a0eU93V06ZMem8qPZnJpCdhDzzv+q2I93BzM44DQCZJ4D1YiIht13ZvrNixI2LD1PTMLVvHOtaxjnU88Ogqt+tYxzrWsY4HHOuEvY51rGMdDwnWCXsd61jHOh4SrBP2OtaxjnU8JFi/6biOdTxiuHWr8yG9YcOGcq85lHaz8O2ESUH4dsOudaxb2OtYxyOE5ZA1aCdeGob9PE7ulvtXoZ0w67iNdcJexzoeEeTkh9VaZbnKPZdmUNppWLZyZyu/NEwjQsY9jbOO9rA+JbKOdTwCyIkxJ8HUvxFBNiJXUBWnKnyzfKvQKHwjHdc61i3sdazjIUdOilVkh5ukGdJw7YbVfitUpdmK0IV2wz3qWCfsdazjIUY7ZJ1DcdimUoV2iTjdpmjHrZUOcm8WZq1gnbDXsY6HFFXk1Y4bhFnlVkWuQO7LJcuqtNvJS5JjuXo8Clifw17HOh5CiLTaJdNGBPkgYaVE/DCUcaVYt7DXsY6HDI+qhQnhtiLdRv5rgazBOmGvYx0PASBpSSOI8FJ5lJCW51EuZzOsT4ncI1QNrHvdsR5Ey2stDaZ7hUbtqrrFn/18K+THDwvScj8K5VkNrBP2PUDa0dpBJ52v07Sr0G4aD8KgWKsDU8jbKq+PnLwU/lGpt6ryNOq/CtOqzh5mrBP2ClHVeegguD+IHeV+6tUor6o6e9SwGnWc11Oepuo3rec0zmro8CCiqv+kZW1Vbw8z1gl7mcg7RTpoHtWBcj9QNRgfVTTrJ+2QUn4M1kLfa9RHmtWP0Mj9YcE6YXeIqs6SdwDCLC0t2eLiYikLLsUx7vjLj+N2QB49PT3W1dVVz0+dLxVw97FFPMF9Cr8kDEj3BaWDVJVdwL+7u7vtsKuBZnkI9yKvdtJsR7dmyOPneTar49Uq88MK1UteD5224YOIdcLuAFUDpKpTzM/Pu8xZrTbjUnOZtunpms3M1Eq/eZtxv2l3X1hYaNl5SBMy3Di00QYGByI8bgj7EDmidLq7uq2nt7dO0sTt7S3IHhAOt64NTv7ulrqDlNwJF2Hdrar8Av4D/f3W29cXx1VhpbfSW6toVo9Co/pbDpYb72FEs3rL/R7Gelkn7A5Bo4t4IFvId2Fh3ubmkDkn5qkg59r0tE35fs332U5NTlptZqYI7wJZT091SNjDTtj9A3eRZxC2E7TSIWxfRtjdJakLstaDtMt4bMMtSb+7x8nfw5KGyp1CcQjT19fv0udupWcGouKn8L09vaG39JIe5KH9HPIjDXQCjcLiXuXX1XXbPbahl2+TsHf4J1uB/HMQBvc8LKhyW8e9Qd5/0uOq/vswYZ2wG6BVw+I/NTVp165es2vXXK5fs+vXr8f+Dd9OTEwEUc87iRdW9UKQc0yVLC3a0uJiuLc7JSKSg3jRJdUPv5x4RbBCcVzsp+EkKe7wL4mxp7sg7ZSo0CH8nHSx4AkjwsrrL4XyHB4ZsdHRURscHGwaPgdxseYHh4Yi/6q4UV+lzgLhiHvnSaI4efW6m+DaFemy7wGifkuR7sThOAXupFOctO6s01SPddxbqJ1TpG55f8nDPshYJ+wKpA2qxtSc9OzsjM3MzIbFfM2J+fsLF+zSpYt2+fJlu3r1ql25csVu3Lhuk5NTERZSbtZZVgv3qtORLmQTBOgWcZ4P1urAwEAQWCsdbvkPMlR9DA+P2I4dO2zjxo2Ffxt1Qxh0GRwajCmirgaEjc6Qp0hVeaIhhBqEzbGLCJuTHhAxKy5XGaoDuROHqSeBsnHc73UxMNBfjytw3J2cQEinCipLEb64uiFss7ohLJKmWS+vO4XO5fQX+6Sr8jxMoEyzs7MxtYjuXNFFO3hZ0rI3QrM6bCf+g4B1wk6gTq5tCtxu3Lhh3377rV347tvYXrx4MUh6bGzMat6JpqeK6ZC5udnoWOlNRiEoI+8b4dS6wzTrcFVQXooX5SrdKvUooTrIkZOCANlBBoEsXmV9lru9PX025MTL1EiVLlV5Ka2w6ssTSFU4UKUvx5xkRJykF4O+JEYQWy+GjglLGdkq/yA737KvuiL44MBgXDFwIHdA+IjjULqNQDzy27x5s20a2VTPtxF6/OqGkyZxUpCP7mcMDnIiIUyf9fvVyfDwcBy3g9C2ucqdwYvSuDSNwXj67rvv7Juvv442O3DwoG3zK7Q+L4/aswpqs2ZoJ8yDgHXCzqCGY0sHYV4aGR8ftwsXvrMvPv/cvvjyi+g0ly5diqkP/POpDaUjd/Y1aGU1FR4+mMvpjA3MrSYjI8i+7Nq4k2ZVPoj2hXz/rhMH+UmHEqm/0I7bXek0GpF3BqsjLXO7yPNsF2k8lUPtgl9VeSEDri4g+kYgHmlAhhAk+8sFbdXv1uO27dtsdHSb5919V7sDVKU45MnVhghb5eAkSl/r9yuKIb+K4UqGMENDQ7Z161bbtGmz9fYVVxayVMlrgx/Hvkv0yWXWdVM06CI5KIeubK9fv2EfffShvfvuu1GmJ5580o4ePWY7d+6MMq0Eavd7UtZVxDphO9JBmjYYljMkfe6bb+zLr76Ks/vVK5djKmTs5s1YAYIlrU7FFmGw0uFllcWg8UGFRcOWS/K4zHbrR5fb7Is0AOks3VoqiHapSJd9EW96XBcPT9i7tmUc5s45DqiYfqi00i0S3sl+GiaF/IWIw6/UO0f44Z55KSxb5dVqAHUywAibh+e4Ssc8XNo2IOIlBeCkg1u0pUuOPL1mQB+meobcUoeImsVFL8LGDVzvZyB0K+sOf0iY1TvRH7G4PRxTSkODQ3E1wL0ACJwTxJYtW92y32TDG0eC4OmvntgdTXVbHXburrsVw5NUqoyryclJ+8rH33vvvWtvv/WWffLJxzH19MTjT9hzzz9vL730su3evbuM0R7yvpX2gU7a6n5jnbAdNJYajC1kARmfO3fOPv74I/vgg/f9zP5RzE+zwkPkrIZVHA0QCFkELWHgDW30AeKXzPhh2XBTjMEj6wZJ0yQf0pWIcOtEzNpudyNc3MhU2NJd+2ylY6Th+0jkUxJ6KgqrcJI8DAJ0LIR+hC/zFhQnDZ/GS/3zNIUqN9DIHeR+OlZ7CWm4fNDekYZ74X9H+CCvaqRp5emCXD+gcFXhBfxSSd1ypG5YzVjVGAtDgxuDoHfu2mX79u4L4tuxY6dtHd0aJM7USX//QPTXbk4OidyJxnreibvLmqOojw1x5To1NRVG0+uvv27/+N//u73rpI3hxCqoEydO2M9+/gv7t//u39rZxx6vx60qfxXSsHkbtJvG/caaJmw1khoH4mNZHvPS58+ft08//dQ+dqI+f/5c3FSExOmXQShORkAEHYTsQgeXjIwUVgruWDL9A07UbglBzPWO3+0Dx60edJCgVyoirxB+vqXfy72+LYkypLRu7wrj29gv00nD1f0q4knScPLTCawexvUI/4Swq+IiHqOuQ4jv62RDuoD0KG89ffcDflSPU4+fiv+8RmM/8irdFV/ATdtUhNydX/FXblM336+KAxqRQO6u44bh6YT8ub8k3JN9kPrfIeU0BwJxY0DQXzdv3mKbNo34/ohvN8UcOqQtAsdtZGSTbfJ+zZx/kUf8j/32UdTHnSAN6qo4wjC64VexX375pb3/3nv22muv2ZtvvmHffns+LG7Gzvbt252wf27/8T/+H/biiy+6YTRYP5FQ55SvCqlfvp+iUfwfEmvewlYjcTZnPvry5Uv25RdfxmXXp59+4h3mq1i+BzQoRSAia4iZzrNtG3OOo8XNoujcIyGQNeEg50gi6xg58E/DtBO+CnJnmxJWlaT+QMcit9SffUl6FVDlLze5K3w9Xknu+QkG/7gacPf6iYh94pRh4pe4pX6xTfyV5h3+yTYV3OQO7vArdQn/Uue6H27+A+yzG1sH/lWQO+TAvkhCxNMKEZ4onkxOMDpmm6YLYQuaigNsZUBgVW/0K8LtO7bb3n37bM/uPbZz566YL961e1dMnfS51e2Uf1e+raG6ULzbdUN1zLhhxLQjU5FvvfVmkPXHn35s5789Z5Maix6we0O3vfTCS/Yf/4//n/34xz+JFUdxw7dDpPWet1PnZbu3WJOEnQ4SBhSEzHTH559/bp999pmdP3fOvv/++1iux8oQwmvgEQfyxXKWBQJRQ9iQNZYKFjXTIIRDmDvUoCAtSQodN/JvhTR82skapZuGT/0auefHkiCp5BhUuWk/9UuJWG51vyyN1L3ux6+MK/c0nvZTv9Q/DZe6p/vSve7Gj21yIrgjHCdz9vGnfL6N4ySMthHe0xDkB+QvEbQf7v7TfrGT+buQPhInQJd62AT1/uKbmCopp+bot/TzrVtHbdMWN0A2jtjo9lHbe3Cv7Tu03w7uPWg7t+4q+zbproDcSr2mpqd97F2wt958y157/Y/26cefxhXu9ZnrNtNbs64hz6vbLfDxBZu9NGenD5+xf/eXf2k/+9nP7OSpUzEelwPqRfWQ11E6nn5orDnCThuDhmAp3rfffWt/+vRP9vobr9mHH35oN67fiKcX9WALcdSgdOItW7bEXB+yd+/eOLND3nTusKS9AyuO8kv3m6EqXo7cLQ2fI3VPw+WdsCqNTo+FRu6gyg83SRVS/1Sa+YksY79sQ20VT1uRGiK3fCsRUrfluKc6yV9u9TBMKemkxo9tWSZ+aXj4UvsS/OnDWunEvh7eijhJviGeF/1CVrfuq4Tl7eJ2ug1tGrKdB3fZkZNH7Zkzz9ipw6fDSMEy14NTy8OtWBL7nY/FDz/40P6fv/0b+4d/+K1duXzFNvRusP59fTZ0bNB6tvWa+d/0uZpNvDNhezfutZ/89KdO2D+3l15+2Y4cOVKm1zmoC40L1Y+Qj5cfCmuKsNMGwdrgHR8XLlyw9957L4QpkAvffRedG9CJAZ2WeT6IGnLmshDBquaMzrQHFjU3D9VhNSjyrQRIl6rOoDAp5NZqC9hv5p7mWRVWW1DllsdfCariN3KTe+6f+gEdp+7pvsBx2jZyU/ny8Ck6CZ+GzaWRe11g4wiUhOOXhMn949C39PPbr1AonraNqSE/GSwsLkRfLx5GmYmtCF11AkTYWN9YtxtHh23Hrh12ZN8RO+BW9pZtW2zL9i22d9c+271td30MpHpQP2mfSYH/zZs37RumQN5+015/7XV7/Y+v2Z8++9Ss/5b17+q3jWdGbPjxEevZ7mzt4Sc/nLSbf3/DhiaH7MjRI/bSKy/Zv/k3/y975tln7pjLBso/R+qufbY5Gun9Q2DNzmHzpOIFv/T6+KOP7fe//10sGWIZX3rZSKelsVgCxbTHwYMH7fix42FZM0fNfFnVdAfIGxn3dBAAwiDEr+oU8geKl+ahNHPIPY+THmub77dyy1Hldy/CVoVrFDdFHqZROo3SUv2n27xNgNyEPF6KRnnlULg0T1AZX97uleZNWAl9AhGJQ9DcSOcmHvdvEC1VlRA2yFrCHHe5FDUefNo4aFt3j9qBYwfsmceftadOPWUjw5vuyBc06uOAccfzDcxX/93f/529/vprcZW71L1kfbt7bePJjTb0xIj1nxm27i09dmt2yabfmrCxv71us1/MxLr3Z555xv7Df/jf7ac//VkYUhhQjfLLIR0VXseg3TTuF9YEYdMAqng6oCzr999/P4j6ow8/jCV8wLtYvdPH3fOR4bCm9+3bZwcOHLD9+/aHVc3UB5024pQdUySZNrhAeqncdblZuleFRdI8hJSUgfYVVlLlJmnmJ8nzAam/jrVN3UEjv3Qf5O65X+4GUreqrfZBup8ijydQ79pW7YNW+6kb4Jh82DYKA1K/+HFcBsvDR5jETfu5u5CT9szsTLykbHp6OggbYR8ix/LWdIqMGSxtLQ281eUW8HC/7dy3y86ePWtPnn3KDu07bNu2bLO+3r476jbXh7yZr+a+EVe477z1tr3zztt27rtz1jViNrR/0AaObrRBJ+y+Q4PWs7vfujZ22635Wzbz0ZRN/sMNm3h/zGqXZ+zE4ZP27/7dX9ovf/WrWO7H/SSg/KvqAUivdL9VnB8Sjzxhpw0CUsv6X/7ln+3DDz+IM3zMVzOHV44KLGes6n3799nhw4ft8CHvhH7MDUU9oFAF8pPomPy13lprrkkfqSJtSepGOilxKg+JkPrnW0Rp5O6N3AiPCLkf29w9l1b+zURxpUfqpq3883CpgDR+Drk38lc7CNrP3auQ+1fFTcPkbgqXHwu5v5C7V4UBqiMIGXKGsFn/zNO9jA2EfdwYJxA1lnakRXIuA34VunP/Tjty4oidPf24nT32eJC2wlH3QH0aYDT97nf/EvL2m2/bl199EScKG3SyPtFnG88OWd+xjdazb8g2OFHHcsTeIu78BT/RfOhXBe+O2cQHk7ZrYJf9/Be/sJ///Bf2wosvxlx2VVnbAXWx3Lj3Go80YWvwqcPQGXlZE4vvOZOzvpN3ggB1Wi73eMxXZH3o0KGwrnft3BVkrYZsNviBSBiBpEXQIm3tp6TcSID0S/PUfpVbijRcld6pv7bpvgYbkF+7ojjaNhLplUpVHOmS+yt+vm0kgvar/NP9tB20lZsgPyE/7gR52s2O2ZcI2k/d1dfSPqc+qjCQNqSM9avpEgibOWa2HOOnuW6vIfMUPCMn7S2DNrpr1I4dPGanjp62A3sPxAM5I8PDsW5bV6QYTbzW4QM3lrix+PofX7cvvvjCJmsT1rejz4aPbLShM25dnxywnj2DtmFTryvvRsu8G1RsXZYm5m3hu1mbet9PKr8fs/6bA3bi6Al78aUX7S/+4n+0Z599Np7gVLk6QVXbPih4ZAk7HSxUPpd2vP6UJxf//u/+LqZC6IR0vjQsc19MfRw7dswOHXay3rsvbipCsHTsRkjTIBxTJkypIFreJ+tagl6I4uadRMf4I7l/FVI9qtDMP00/D5ces69jbVOCBNoKuXseVvF1nPsLVe5yqzqukqowjQged4UHCpe7K7yQpgdy/9w9lbzdtZ9uG/WVRsAfETlrKxHSfQAxi7hZ4qpXCGNxM5UCwWtVSVePGyd9vLtkwLZtHbWTJ07Zk0895ePpYKyiYgyQ3tdffxX3jX7/+9/bW2+9FTcbZ2sz1rO524afHraNTw1b76EB697WZxsGCj2j2Pxzsg6rftHbYHzeZj6ZtvH/PlbMZS/1unX/mP2H//3/a7/85a9iLpvx12zcViFtgwcNjzxhq+JZZ83DMG+//bb97l/+xb766stwB9HpnECxoGnk48eP28mTJ2PJHitDIGvCAKULio5UNG50WBfSITzEn67FFknnA4X4aZpVyPO8F5A+rSBdVO70WFKF3D0/FsEJy0mrmbskPU730/zl1kjysEAEDtKwaTjtg9Q/lRSpW74FVX7piULHqVuOtD8CturHCNBcN1MiWNnxzncnb/Z55/vCfGFtBzwZ4pEO93vOPv64nTp12q9UD3u6G+L5Bq5s//t//+/21jtv2fkL52x6Ydr6t/bbxkMbbePTG63/zJB1j/barX5Px5O8teBpo7q6Z+iL+y2b+6pmU79zPT6ctKnvpmzP1r32P//P/2/7s3/1P9hjj52NBQIqWyuofgjPfrvx7iceScJOOyaVTof7/PPP7De/+Y29/dabcYMRC0GAjDkTY1kfPXo0CJsVIbG+tOzQIG3ENA86KCRNGvEIemlZyypP06hCmtbDipWWoSp+6lZV762Qh22WR7OweZgqvxzLCZMeNyuvwiIiY7b0Ywl9Pt3Xsj65KR75iGCVZ7pV31UepMPVKuPn0uVLsU6aK1XmnvGPtLCCHXwdiZt/Z848FpY2n8V77fXX7M033rAP3n/fvr/yvc33zlnvnj7beGqjDZ3caL373CJ2y9p6XB9Po6L08behu7CaFy4xlz1pk++N2fgHEzY4t9GefvIpe/WnP7F/9a/+daweoQztQnWS7z8oeGQJWxXNvDWd691337H/52/+JrZc4s0vzEfDi2xZ+YFVferUKdu/f390NKYw6OQp0gakIyi+LGo9hq7pjxToJfmhcS91SOu/E6xkcNyPOlUeuZ4r0TtFo/QF3BWGrQSizAk7FRE2ohUfuOV9W2kL5IfQj2V4AMIxhrC0uXLlPTtY3BA5rxMIQnXSDn2XbtmuXbvsiBtC42PjQdif+pXuxSuXbK5vzoaODNnQCSfr00PWf3DANgy7Zd3rJwlP41b5vp6YBhFQ0fOHsG+5OksTXo5v3cp2sh77w5jdunDLdm7bYc88+5z95b//9/bLX/4y3o2Czo3qNUdaD+3GuV945AmbjvTVl1/Gi2O4DPvii8+jE+NP58IKYNkeFjVkzd1l1lhDwoRhIAD21ZDs03khZghaQpywMNxfkiPtDKuBVKdmqMo3jbMaeikNtq30WW2Qp2S1oDI0ShP/VFYDnaYj3VIdVQ9yE5mLsJneQFLy1pY49O28bLmQJnGYJuFlafriEsYRfqRBnljeM3OzHnbObt64ad9/d9EmauO22L9g/YcGbPj5TU7Ww9Yz6uNt0MdOt5ff/0JzFSmvEtwJ5kTOtMjS9ILNfDpl47+9abOf1KxrvstOnjht/+v/9r/Zn//rP7c9e/bE62V1wmkX1AVlFfLjHwLd/+k//Z//V7n/SIGKpcOwzpM1njxyfu7cN3HzBNB4LDka2TQSZM1NRrbMYUPEdDp1eKCOSjysZ01/MG3CI+lY1yL5+4Vcvx8S0iXVqR0QvkqaocofN7XZ/RShyq9dUfzlQP1SfRODgf4poU/qPkou+MnIIG6aVirKR2CfOIwB3achLxEiZYH8GWs3x27G08OfffGZnf/uvE3NT9qGTRts4NBgEDUPxLDGusvJuozswo7nR5ZV3Vpubktt6PGxzFy3G/aLV/2kc3PeZiZmbMPSBtu5faeNbt9mG32MMk7TMjRD2haKI7d207hXeKQIm0pVhTJ4eakTL3TiJiOrQ5hrg8QROhhEi3V98sRJO3rsqI1uHY3ORxpVDSSyFlEjIuq0s6YN/qDiXujYaZqqq1yEqsGRhsv907j3E6lOnYpAWarK2whp2Kp6SNNP99WH6eciXJGu+jFhU4MFN/Jgq32gLfEYEzJcsNyxti9eumgXL1+0q1eu2uSYG0r9t2xo/4BtdKIefmaTDZ4dsZ6dPt76SsuX/EhS5bmzWHcC1Tw8X8fhcflbc67vtF9JTPtVxNicLU4txbtNeI83Rhg3H9G9HeTlox7Y1/EPifZK8BBAnQtQsbMzMzG/xnut+VoFd6fpSN51w59Oy7w1K0H27N1jO7bffjUjnTUF4WlsdUxWk9A52W/UyR9kSEe27Qjlakeq4jaTTnRIw6Z5pe4/BJT3akhen5I8nPIVUr88rgwUpUNfpe+nV4hMAbIaCmH5HW7q2/kUHyKQJoCklQbjAneW/2maZGp2yrqGu6x/z4ANnXSyfmKTDTlZ9x0asK4hZ1uSWfTyRJE8fbJolxupB/9j+V/PHr+aONhvPVt7bX5xLpYPFs9anI/59SL47XprBpWz3fD3C48MYaegknn5OdY1y/cmJsajAbxL1zsdnYyHYVgZsm10W1gYdE4hbbCUrFmTTYcmvM7Y97pRST+XRqgKm4vCtQPFEQGsppAu9Uw9qr5BmmeeN8dC7p76PSyQ3mlZUqkql47ll0orKJzSBtQ//Zl+jRHDC86wSiFhxkk6LlIQDz8RO/PVfJiaddXI5YuXbW5m3nqGu23ouI+dZzfZRpf+kxvjnSCxmgQVpDd94HY3aA7CefiI6f+6+n2M7um3/iNu5e8ctA39G+za9avxAQRel3zNTxxz2TMXjaAwaVj2U/mh8MgS9tjYTT/Dfh0WNmfXqOilgiD6+vuiM3KZxIvZIWE6X94QhEWwSOi4WNYI+7gB4qSd/14h9C8lRereibSLqrirKarjHPJX3ebklfvL/WGE9K+SRuVLw+TSDPiTZioAwsXqxkLGyk6tbfq7riQF2kwnWsYXK0Ygab7S9MUXX8aSv+m5aesa2WCDB92Sf9wNHV7gdMLJelcxDcINQyvfF+4JFSTcCcrw8c7xng3W7ZZ1324nbbfke7Z028zSjOtx0b7+6mv7yq3t6zdu1MvbDJSpVT3+UHgkCDuvXG54TE1OxQcIuDTjbjZhuDSkYzJXzZ1jlhthUdBRQZoO+zScLh81BcJxowbF7V5JDtw04HTJq606ZRpmudIo/9XCvU4frEY9LFealU1lb1V+halKvwrtpgvoyyk4Fnlj1DA+EIhbfR+iZh+rnDy+u/CdvfX2W/aHP/whHkw7/805W5hbcEu3zzY+7mT93IgNnvX4BwbjAwSxuiMyiwxLwWH5QK8NPZ72ULf17emz3n1+ghnusqmp6Xi51FtvvhmvoWhUZznyenlQ8NATtjqlKpgG4YzP3elrV6/F1821XAnhm4q8JwTCZq01FjMdVP5C2nEhaoQOCsgjD6/jeyE55K5Bi6RkncbLw3UqSudeINXtXuVDug+C5Gjml4MwaZukdZbHl1sqjZCSEuHSdCFkxgZXnxA3W46xtPEDrMXmPtGnn3xqb7zxhr39ztv2+Zef21htzHpHe234uFvVTw3b4OMe79BgWMDG+ul5J826ZV3KKuCWJ8vUSM/uXus/VMxlLyzN2zd+pc2J5Bu3tDWX/bDikbOweXXqlSuX7dLFi3GZxjpRCJtOgWUAAWuejk6ozqeOClKyppPqBgzu6tgrRTpAliukkZY9hdJv5N8ulEeedyNR+Cp0mtZqSDN97heqyi23VJYD4qXppukLjdJWvo38AeNA89sYOHpjJeu4uUfE+0Be++Nr8fbLK5cv22LXog0c7LfhF4Zt+EebrO+YG0Q7+m2DE2lxfrg3bRFFcGGqhdew9h0esoFdA0HgV69dsc8+/8y+Ofe13UiuuFuB8a6TWnpy+yHxSM1h0wiTk1OxIoSbH9xspHF4QAayhnSZ2qDjQdrMzaUNoUakkxJW89YQt+bv1MHbafBmUBpVg61daaSD0l2pjoJ0bUfItxmq4txr+SEhHdQeqQhVbu2A8OoLqSwn7dyfY6WFUcNYwNJmPGAAMb7eeecd+5d/+Zd4++X3l7+3ua45G9o7ZJuf3GwjL26ygcc3WvfuAbN+1t35X1jWZQarDcrIk5GeVcxl7x2w/t2D1rOlx2qLM/GWTu5pnTt/Lh6mCyOuA7Sqv/uFh5qwVYkp6fKNRi7TaBS9iY/PIUG4QxuHbMvWLUHWdD5IGRAmPZPijlWtm4u4EUYCIt1soHQiaVqriVSvZukr/3alE1TFT+WHRpVO90OaoSp8Ku2CvpqOhxSt0kn92acPkRYWNkYL4IVPH330UVjW77z1jn315Vd2c/KmLQ0tWv+xAdv4/IgNPjlifcxXb/HxxTtBeEydyPyrVm11UOrf5VZ294iT9h63tPf2+n6XTfuV95dffGnvvP12kDZTiO2iUX3+EHj0LGwn7Hi3wc0b3igFadHxeAUkJI11vXnL5rAUNHcNaBRIHaGD4s+WY6WBgPR4uaJ8VxOkWSVVwL1Kr1waxW+GRmkvJ617BXS5n9IOCFdVb+0i7cM5ybSrS6NwGD8YQtzA4+YilvWnn30a89UbRjbYxsPDNvLMZtv4gpP1iSGzkZ5i8sPVx/L1FO8xWd+WW6zp7vG/XT3Wf7jfekZ7bGnDUizve/PNN+2rz7+0mZlaRGsHrersfuKhJey0EtU5mf5gGoTVIXwTbnGxuNkIIOeR4RHbsnlLzMdpmgN/BgVbjrGuIWq2xAFpXuynx+1C8dqJ2ypcmlaVCFV+kpVgOWm1G6dZuFbuOdLwuTRDK/8U7YZtlm8zPyD/VBoBPxF9o7Byr/IT6PuMEcYWVjXz1f/8L/9sf/d3f2dvvfFWWKlTt6asZ0+3bTzrZP3clnjUvJfPeA37uMGq1kmDfO61kUr69fx8t7crnqLsO8pLpQate0u3XZu8FnPZX3z1RZx8OAl1ckJ8EPDQW9h0CnU8XjDDh0RjdcjYzSBwAQKGqLGyBwduL89TxwZ00pSslbb8tZ+6dYJ24qXpNwurQZlKVXjc2g3bCVL9WqWlsGmcZqgKn7vl7o2Qhm8VFsg/j9NIFDZF6peikbvQyA/3dtouD4fkIEwuVZClzkoQnhR+7bXX7D//5/9s/+03/y0s69pizQb29tnmxzfblhdHbeT5LXGjb8OAX7WyAsQltrAnD8jcD4ivsbA33Crmsg8M2sD+Qevb1mu1hWm78P13sWqE5zN4VUWnc9lwQs4L9xOP3JQIL1OfnSveRMY3GgEdDyKGsLnpyD6VLhCPY4gaq0JkLj9tV0NWK61OUZXGSkTQfu6fSo6qMKnkqHIDqXsaP5VO0Gn4FIrbKg3pVSXybwdpnEZQmEZh0z4uf/o+Y0A3Ft97/z37x3/8x5D333vfLl69aIubFmzjyUHb/MQWJ+ytNnR42Hq29RUvcEoZhfF3F1e3V75loUyaYvH6Veayu3o3+PnClVpw42yBB+rG4luS3IBkNVmnhJ2jql7vJR4pwgZ0Qkkc+9ldnVDrqSHw1FLhGItahM1+2onZpuGB3NqVPK1G0k4eaZhOQLzVkBxVYXLJURUGydHIr8o9dUvdq5CHbRW+HeRp5OlL1IYSQfupWxXwb7cfqM/k0PgASgc3xgJbrE/ecvkPv/2HsKz/+Z//Oe4N9W3qtdHHt9jOH++w7S/stE0nR61/64An4n/zrhNWdaTn0tCyLvJbVUSWRbq3KJvv35pesKXrbrhdW7DFG4u2VCs+sj09Xd7nKqdNHyY8tISddjjAXd95t67n5uds0c+aCwvFgyQAwmbFBxZ2erNR/nRSyBrLm7AcdzIo7gfQY6WyjgLt1EVed41kuWgUX27tpt0onRStwjCWGBMIzy0wBcK3Fv/pn/4pbjB+/tnnNj49bj07emzL6c225exWGzmx2Qb3+9Xqln7r6i+eZfBMCgGNuPpewfPDqg5amF90gp632c9rNv3BlE19PWXzk/M2PDgcH9U+fORo8fm/rVtiMUIrUD/iG9WjjnMeutd4JCxsKpFLG+bbeAFNrTYT89mLTtpcDomw9Xi5LOyU0FOyphHUySU/JHJdliNCI/cUeZhchCq/KklR5Y/cS3Sal8Lk8XJRmJUgTw+0mzb+yzUqiKN49HfImrR4hoEVIFjVf//3f28ffvChzc/N27Z922zvc7tt18u7bNOprda3Y2MQdaSjpxZ/SDBmnc3Q5dbYvC18M21Tr43b+D+P29TnU2ZuSO87sN9eeOEl+/nPf26vvvJqfAqw33mhXTQi7fuJR2ZKBKt6jrnr2dn4mjM3HHNC1tpqETZgH//8RmMOuUUHLaVdpHE6EcW9l8jzvBf5Kc17kXYVOimHwip8vm2GqjitpF0obLtxmqVPn07JBuGYvq+rTd6586c//clef/31mP5484037fy58za7NGsjB0ds5+M7bNvpbbbp4GYb2OZXqYO9DJ5I0xMotmHmIuXhvQLZpVl2e/n8+NaUX2Vf9PH/2bRNvjduEx+O2+z5WRtYGrAD+w/YM08/Y6+88oo9/fTTduDgQeeD4mr7YcJDS9h55+QGI1b27NxckDZTJAgdk0aBsCFr3XAUYeMHWcu6VoeWgFbHKXK/dNuJ5HFyVLmBNE6VCFV+ueThhPxYqAorVLmlSOOutjSC/BRO1mqzODnSNHIorVzahcK2ipOm3U5YyskYoM+z5f0aLNv7b//tv9nf/u3f2h//+Ef77tvv4vN5e4/vtX0v77OdL7llvX9zWKRdXZB8pBZp1gF5Mm8NabcEcZvrWomI5v9CyvxcluYWbQGy/mgyvu049vqETX9bizF98Mghe/HFl+xnv3DL+tVX7ciRozHmH0Y81BZ23jlF0hA3HRGIsEXKsigUV/4I+806fBoPNDqWW77tBGk6OdJ0c2kHCpfHTUX+2qbuVcjj/BCg/VJphtXUlzQkrUi/mV8VFLZVnGb++KGXiJq+DliHfOnSpXhyEZJmnTUrQVgW2zXQZaPHt9mup3bb6NltNnJ4kw1sHvS4TvJhQnt+d2WJpYtvO4S9DKT50b5MgczdssXr8zZ3bsamP56wyffdsvbtwsVF2zwwaidPnLIXXnjBXv3xj92yfsYOHz4c97Fa9Y8U1J/kh8YjMyUCqhpBHZQzLft55eOmS0PFTxsmDZ9Llb+Q+udIwy9HhCq/dkRxm6EqnOJXify1bVdWG7SlTs4gzSfPV9vlIE2rkTRCI/80buqv/dStU4iwqReuMtnn5Wg8+fd//9//d8xZv//++zYxNmHbR7fb4SeO2N6f7rdtL+2wwX0brZsbi1r10UANpiX4liLSGoRpJ1wJ8qT8iI/TDX7OYbguji/YzMdTNvlHt6pdJtzCnrs+F1cCTz31hP35X/y5/fmf/3lMhXDDMa4qPKkY6iuozx8KjwRhV3VyQYSdErIgspbk/q2QDqSqvNt1WwmUd6fSDqrC5emkkqLKv5EsF4pLu7EfU2Lcw/BL/PgcnLupTZVXKstBVTqpKEy6rUIavh20k2YzqH9D1KwE4d3QrLFmFcjvfvc7++STT6w2VbOhLUO28+RO2/3UHresR23o8EbrHWEaUVRB/nfqQLrd7t91y/OArMO7s7HUFMqOtizbc2lmyRauztvsl9M2/eGEy6QtnV+0gZlB2zW6yx5//HF72Un61Vd/bM89+3x8ZJtFB4EyjZhOaQOd8sK9xCNlYeegoumoVYSd+qVkrYHUSHJUhWkm7aAqXiNpF1VxOxWhyg8RqvwkVagKl0oVUj/aDyLiK93cPLty+UqsI5ZFSduy3ygtQWk2EqXBthUIp60kRyP3RlDYTuNQfu7fIKyk4qERVoL89V/9dSzd4+Ziz4YeO3jwoB155mhhVZ8dsu7NWq5XbHLgzPRHj5u7vRt6nbR9jBVebYDYbZQjglEG33Jz0YWnKBcuz9n02+M28dpNm3DCXri0YJsHN9tjpx+z//Ev/if7y7/8S/vFL39pZ86csdFt2zw+YzxSdLSRbwVS/kjRSXusFGuCsGPuuufOOWr2IWv8CAPwayYKcy+Q59WOtIuquM0EQpJU+beSRnnKPUUeJpdGkD/tiLCcE6sRS/G9D96LlxTpK/mAMKBZmkDpNpK0TlohjafjHKl/O+gkLKBvI9TD+Ph4fOPwzbfeDMJ+7fXX7JsL35gN3bIdh7fb4ccP276n9tvwmU3Ws7fXrM/zW2itn+cQpO2mjx9Rz53p2BIxbn3ruixNLTo5z9nsFzWbes8t648mbRGy7ttsJ4+ftJdffdl+/T/8mf3yl79yK/sJ27Vrd0wBFUC3atJtBfWfRui0XZaLR5qwQRB2b0/d0gKq3NTyxq2ZgHS7WpIT43JJcrVE+UuvXLf0OBf5VYVRvaXbdpCmkQqg3Wg/wNe5edjjN7/5jf31//PX9g//+A/2xRdfhNUNdGJO4+cgvVRAnqeQuudSBblX+TeL1w7QlbKxJR3VP24sZaWOqB/mqFkJ8ld/9Vf2xmtvxAlt875Ndvxnx+zYnx21HS/ttI3HN1rPCBPEZeKghWpeW/G7I85KQZ5uSce0BZY1a70n5m3hy5pNvzZhk6+P2/TnU7Z4c8m2bNxiZ06fsV/96s/sX//rP4+bi3v37YsH5dSO9worabfl4JEnbD2a3tN9+yYUUCdvh7BBul1tERFWEd0PISvRoypuikbuzZDGkdB2CPPWEA+X+bxQ/3e//12sI/7DH/9gH3z4gZ07d65O2kDxG4G+kApI802Rulf555B/Vbh24ncC9Wnm9Lm5+PHHH8c7rGON9Ztv2uXrl21wdND2PbbXjr581Pa9uN9GTo9Y7063Rp0g4wVKUqcF57nm8auHXzW4HhD1/JItjrESpGY1t6in3hq32T/VrGui23Zu2Rlk/fyPfmSvvPqKPfvcs7Z///5YCUL/uNdQH7lfePQt7A1Oyl3FPDVIBwZuqvBmJCU/tsuRPL37ISvRIUWVfzuSosofaaZXI8gvTsIuvPf8w48+tHfffTce/Pj2/Ld24+oN+/bct/UbakyVQFy0t660lHeOVIcq/1ZoFVfuVf7N4jUDcVQeysgqGearmQbhRAZR/9f/+l/jycUvP/8ywuw5uduO/+SYHXzukG3dN2oDm4ase8CNmnL1xcrReTlSbOhxJfj4Ae/Svj5nc3+atkm3rMfeGrOp81PWt9hvJ4+fsp/+5Gf2F3/xP9nPf/4LO3z4SP1hmPtNpPcLjzxhx5WaN54aUANCbogGSjMCwW85UpXWvRbluxwdqlAVrplUIQ/Tjl5VSNuMlSA84PHWm28Vn6m6+H28qZEBO1ObsY8+/ChIm3XGvHmO1SPEhbCq8pBbLp2iVZxm/svJM42juqGsrLHmqoM37TFn/fHHH9ncwpztObzHjv/omFvWR2zXqV3WP+zWKOvkuJfKo92dFzkDY22FhOk63JpdsoVrczb79VSsApl8d8r356x7vsf279tvL77wgv3q17+yX/7ql/bMs8/YttFRt8iLD1Ij9LFHDY80Ycfg5ufbKoR/6adO30iWi6q0UukEVfGrRGHbQR63HWkH7cRpx1/QyQcLGQsSQvruu++CjLnE/9Pnf7Lp+WnbuHlj8WKfzVttYnwirG5ImxtsvCeDNCF0SFvpNsr/XqKq3OqPjforqOqzHFMn3FyjfngnPPPV//AP/xBW9Ruvv2HXLl+LOd0Dj+23468csz2P77XhXSPWu7Hfunu9LlbIr3fA02r7iUeqQOL/wrL2uNxcnD9fs6l3x+3m72/azfdv2tTFSRsZ3GRPP/GM/eSnP7Of/uznTtTP2oEDB2zTSPHJP9VPWk+PEh59C9uhgaEOrmOgRk39clkpqtJMpRNUxa+STlAVv5EofDNUxWkE+efh0vipH+3FMfOysSLk3fdifpY52d7Nvbb3mFuPZ4/b4WOHbOPwxpjffvudt2NqhJUjvA+ZeW8IW2ml6d8vNCKUKjehURzKgmBVQtbffPNNTIPwdRg+PHD+2/PWP9RvR88ctdMvnbZjLx6xbUe2W3d/b8GV8S+SWiW4jugZpF06VUGZSzh0o/hWzcn6+xmb+XTSxt8at/G3J232W962N2InT5+0n/3iZ/brP/u1/ej5H9nRo0eL9dXkQ5ZlXTSqq4cdjzxhazBqYDYanKn/Dy2yJnOpCrtS6RSKk6fTSIRG7kDHuTtQ2RmEWMbsszyNd19ARtxYvDF2w/o39dnex3aF9Xjy1ZN2+oXTdvLsSduxfYeN3Sg+HPv6G6/H1AkrJkhPFhlQ3ulA176OO4XKmgpoNz2FT6F0VCeUAauaY97x/MYbb4RVzc3FTz7+xOZm5mzHrh125MkjTtRuWZ/abcPbRqxvsC9eR9qUUJcL0nRpmrSKRjgndj7pxY1O3gdS+2jKJt4cc6Ies+mvpm1hfMEO7j1ov/7Vr+0v/uIv7Mc//kmsr96xc4f19vRGPeRYbps96FgbFjY/Onq9l9wJDYIHSURUuVSFXal0iqo0qkRo5J5C7rm/4jAoEZ7S4/NOXPK/8eYbYU329vXa7iO77djzx5ywj9uRFw7b8ReO25MvPBkW2cDggF2+dDmW/WFpsxaZKRVAmgzuRnqtJllLwHJIuyoN9OfNlLri+Lu//7v4jBf1Mz4xHqT22NOP2ZlXztjB5w/apr2bw/JdWiznd6uLvXJ4ug2TxkPChvI4Wd+aWLLZz6dt6o2xYtneJzVbvL5oo9tG7fmXnrf/5d/+W/uf/s2/saeeetp279odJyqPdUcdPepYE4QNaNj4yxq3ncYmzP2W1UZVHs0kRTO/VqiKm7ul7tpKREoiJpbpMWfNzTSe0GPZFzegeGiCF/vs3L3TNm7ZaMM7h93i3mtHnjpiB48djA8wX7542d59590g7o8/+dhu3LgRVjtWap7vvQBlWe4JAEg36kJXB9NT0/UnF7GsX/vDa3bu63NheR44dMCOPX3MDj/j9XJ0hw1t5ZuLXbbYvWSLGyDs1Smnlyp+dVB/dSndhPI4PjaA+MmDm4uz5/jYwGS8vGnq00mbuzhnG2ob7MiBI/bzn/3cfvrTn9uTTzxpBw8estHRrdbX2xf1sNawpkrs3b3cK9DJAE3D3mu5V6jKq5kojrbabxeKUxW3XXeRNfPOECxTG8WKh4/jMett27bFOtzTJ07bnm37bGPvsC0tOBn13rJNhzbZ/qf222PPPWZHjx+NNOODsq+/Fjcisc6r5rOV92oiJep2SZtwCpvqxEkmVsJw4/XCd3EC+tv//LdhXX/51ZcwqB07fsyefelZO/2y18uTu2PNNVb13OK8zW2Yt4UNi6tE165b+auDXdZPIyk4dIHc5XNr/pYtXpu3GaZB/nDDpj6YsNkLs9a10BVXBy+/8rL9f/6Xf2c//clPy6cWe4s24ncP2ulBx9o6RXn7akCqsdPjXH4oVOmyGtIKjeKk22bSCo3CVaWhfS57wZUrV4qbjO+9Fys/pianYn760IlDtufMHhs9tM0GNg54hy6W7NGze4d6bfOezXbg7AE7+tRR233QL6O7e8Iy5wX9rN2GtHmwJre0U4g42yXaHIrXLI0qP+mR1gUrQbi5qCmQf/znf7R/+ud/sg8//NDGJsZsdN+onXj2hJ18/qQdevKQbTs0agNbBmxD3wZb8t/ircWwrr22I82VQNqS7gLp+m8p0s7SZ7c8xKpmd4OfVJdu+Mnji5rV3p+ySSfqma9q7nbLhv2ke+r4qXgXyE9/+jN78skn7cCBgzY8vHEVrOqVl/uHxNqysL3jp4NRx83kh0KVLiuRVqiKI5G/tlUiv1ZIw6fI0xB5MUB56IV5Z97Z/OGHHwRZjYyM2Kkzp+zYU8dsy8nN1rOz2xa6F2x+Yb5Iw/+wKHv6e2z78e12+PnDdua5M3bw8EGbnZmtvwOa6RWWB4L0JmSORu6toHjN4uPXyD+tDwibEws3XTlp8f5qPjjw+z/8PlbDbN+z3Z776bP2yv/4kh1/9bhtPb7Vuod7bGGRb5wuBFl77ZdEu7zy5CA9yHru1ry53e6E7XnwntUc7kQZbpGtW95LYx7+GyfrNyZs4vdjVvvTtC3cWLSBngHbu2+v/fRnP7V//+//1yBsLOv+/uLDIytDhV4PGdYGYXs70fH5pQi3B0SEquMUVccrkTSNdD930xZZ7s1PoZU7gJgYoCxT40nFDz74ICziK5evxmPHWMt7z+y1bcdGrW9bnxkf7nai4MtDEixRenj/SL9t3b/VDj1xKOZ0R3ePxkM3X3z+hb32x9fiBp0erKmytEUUbFPJkfsrTH7cDtK80QeyZgooXovqVxncPOVzXrwvZWZuxnbs32HHHj8aJ7D9p/bbpj2brHtTt1fkrfpDJLfr2nUp94RbfnLjqy1L86yru90mKQoeJmYRW5Z1WNe3yhMCcfPoHjwsa6ZIpj3cRZbsTdvU+07WH47bjBN313SXjQyO2K6du2Jd9fHjJ+zE8eO2e89ub+/BeGIZ3C7D3Wjmd7dSDyfWBGE7DWgnGlUSTskxkpORVmdIcBPScCuVRum3u03jN5N2w6WiPBDFzdNo5J6L0MpdpMnDLhDq22+/HUv58Dty7IgddvLdcmqT9e3qtVslKSkdT6EgkiW3+RZd5hest7/Xdp/cbSdePmGnnjlle/buCauUZXDMZ3NCYFkcBKnPyIGcZDlORcjdm0kOlVlI97nCkOXPk4tcEfzm734TL3HiSU5eaXro2CF7+sdP2uOvPG67Du2y3o19triBz+XNxBWH2qQSpTpLC066tTlbnPUrlJh7rtCz3ALV8bxb1tSz9yoUj0B35cV6bJhmzk+iF2s2++lk8YHc1yds6pspW5pdsk3DI7Zv375YVx0PwmzaFHpzZdBQ9wSEQe/FZmV9BLA2LOwGiEZuIXQaSe6WhnuQpKpsuZv0b1WOvKx5Os3cq1DlnsbRDUBWhPBu608+/aRYEXL+Wx+Mi7Z552bbfWqXjR7bav3b3bIe5ArbyQYrUpa1h1sKKfYXFxeipw9uHbTth7bHfDaW6MjoSLyLRNMjbLmxCUmgQzpfKrLNRfoiVWjml0N1oHQ1f8+JhSkhLUtkpcuFCxfcat1g+47t8xPQSTv6xDHbc2yPDW4ZindwxFw1ZXchzTvY9g4UunnN2RyTGm4puxZ30LWXIK5eWF0y370QNyxJn7DzS0yDJO3tm3p5WV8NWfuFzuLEgs1dmLHpT1gJMmHTn0/b4uVFvzAatK2bR23v3n22/8B+27lrp23evDlOmqSpvtcKkWeb9VxH62QfOKxJwqYDNJJW/iKw+yF5vs2OhfxYSMNKGuVV5Y/kIIy2Eh2nWyEPl4L0GXSyJiHOL778It7d/Pa7b9tMrWb79u+zfWf32qYzI9a32y3rLifkOb/EZn7WCVsEVdfXsyGvBXdLLe19j+2zsz87GzfnRreP2sULF+N9G5AhUwwQpHSRbgC3KkmJfTkgDaB6EVmTPycudOIx8//yX/5LrJC58N0F27plq515+ow9/6vn7LFXHrMdh3dan1vWtza4Veplret8B/XeDU03LzgZz/Y5qfbeOQcd8f0QUp7pmbfpnlmb6ZqNOesgd24y+kmyCkHW3V22VPP6/3bGpt4ft5t/HLPxDyZt9sa89Q/2x5XO8RPHY1ULb9nj8XnvIdGO7SLqz3XsqC08/O1SPjxYM4QdRMGvJAxJM+T+edwHRXJUhZG04w+q/JAcuV/VcRVS9zwMc7Wst+aS/8svvrRrN65Z70iP7TqxM+asB3b3W9dGVhv4SQXLmje6OUFFvvz80ri+z6+cz4bcwci2EdtzwoniyeN25PQR6xvqi+VxfIAWK5apF1aOkEYzEsAvleVA8diSjwSiZoqGm4vMVXMy0RXA0KYhO/zYYTv13Ck78sQR23Vklw1uHoz3cMRVRpysquu9EZa6/MTG+myXuDFYwlOzeSfmmVuzVvPftMvsotviftVCXtF2ZAVnsyVuebw07UR9Zc5mv6rZ1Ed8bGDKal/NWtd4j23fvN0OHT5kx04csyOHvQw7d8VaeU5U6F9My7SHtP+01RYevP3UHyw88oRdDNjbUoXUv125l6jKbzVEaS8XeXoS+THQYrBV+KVI3QnPAONmn4gqXrbv5Mm89Y3rN23T5k227fiobT47YgN7nax5QVA9zWRwarfcQjb8XBMP78fzfjQDcS9ab1+PHThxwJ585Uk78cQJG9k0EtMM//hP/xjv0mblCDch0UlWf1qmHCKKKmkE+SlN8tH8OStBKP/f/M3fxHw1NxpnpmdifveJF5+wJ3/5pB1+9rANbdsYr0RdXFqIK4koK8jzbaRGA3fXPH5MfUwvTdvEwoRNzU3ZzOyMzc/NeV26dQ2pkh1PKXrdxjHpwSoLbiVfmrPae5M28YebblnfsMnPpmzD3AbbvmO7PfXkU/byiy/b2TNnbc+ePdbf3x9tz1VQ1LPK0QLRh7hh6ttmdf2oYG1Y2LQ9fYvGTQglvJJtp3IvUJXPaspKUZVmu5IidWOgYVkxYLmxhoX70ccfxUMuWMU8HMMqj8G9A9bDygdnhSUnCQYp1rP/L9JL2lbz2WEFlj/aPixtJwUIbcuuLXbo7CE78eQJO3j0oN1yK5MXRDFnzrpmHoGHtNEP4mbbjBTkn0ojyI+trGr05uqCEwfWNDdDeYkT9cGqltFdo6ErlvXBxw/a6P5R6x3sdb4s5upj3j6tDyTZrwIkG1co9Q8WFHpxomPKY2Zp1qYWpmxy3sl6fsYWuInJjUCPA1F7wvW043EYPik2uWjzvBOEx8zfG493gyx+u2hDc0O2b9c+O/3YaXv66aft8bOPx41GfRmGG6QsQayfCNqA6rFZGVcDjdK/l3lWYe1MifDzjqCKTxtguZWep7UaslJUpblcWS6q0qqyvhEAWWFh854QiIopAMga8hoa3Gg7tu2Iy+Wu8qELOKUglPnipldMizgRs9KhXG8MccWNSCeWIDMe6uByv8fz9V4fRNnXFQ+VHDzllvYLT9rBYweCpCBI5rR5LSkP7JAO+nFSSYlWkqKRO8j9KD/7WJdY15Ay89PMU//1XxcfyOWx84G+ATvz2Bl7+pWn7dSrp2K1C9M4grLykkWaOjHFNspekDioa8WOOy3Ne53V3GKe9ZMY+oRXYVlPJZb1rJP17XllD+Vxby14uvO+w83FPsrlXn4FM39+xqbfmbCJt27axCfjtnB1wYb7h+3I0SP20ksv2Y9//GM7e/as7d5dfG8xJeroF+WvHagPaXsvUdWm9xtrgrCj8fkrO3N0ikSWgzyN1ZTloiqt5YrSWy7y9KoEQNa0CXPGWJYs4eONehcvXwzy7Nvca4PbB6x3qMfjeLpc/kJEsUrByaYk54K0y5uPbMPiLAkL8iZMl4uTtp7G85C2oX+Dje7bZseeOGpHTx+NN9vVZmrxFkBueDKHzFwyZCpLuNXArfKXG1uJ0kJn1pszb//e++/FZ840LcNJYv/h/fbYs4/ZyedO2p7Te+I9KdzQ4wRFGeNKo/z5UUHQ7lb4lcKP1Rz+81oMXdhCukt+FcOyvojjbizVqy3N2KRb1lN1y7qYqghkxeMQC31xfMHmzs1Y7ZPJWGM9+8WMdY112dbBrXbs6DF7+pmn7Uc/+lG8EwTLmvX0YH7OCdvTR8+w+F3vuoqtUIajLquRlnf5UPvlaOR+r/DoE3bZXkVHLaCOxzaV6OCl5H4Pg3SCqvi5gE7qJEfup32lR2eHkPjiOcTIGuMP3v/Avv7maxubvGnz/XM2u82ttV1TNj8y76PD4zphY5FBckoXRLpY05C1LG2RdWltirhivtfDzS/OOWUvWPfGLhvZO2JHzhyxZ556xvbt2WfTtWn76JOPwsplrTY3+yAFzbWnoBypNHIDqgPS4QO5pEXaPGbOy5t4Jwjv7+a93dyI40sqT7z0hB14+oBtObAlpkDidaSeZpTNyxJlLk9cd8CrhwUfnmMsxSveIQIlZ7jlJw+nXR5Ombs1ZzcWx+z63A2bnJtwsp6NeiSNOtj1IvFK1LCsKdOYk/WnTvK/m7Cx18Zs8stJ66p12a7tu+LR8l/96lf2k5/8xI4fPx7L9tAfklY7Rvt5G+lEq7KkdZci4pQWuQeKcI3C3oU2g7WLjvJeIdaEhR2g49K4JdRJJHSSdPuwSieoil8lMYBKqfJPJUfupnCkRSeHsJj64J0en376qX1z7hu7dv2azSw4UfQtWm1kysaHb9p037QtlESLYFELkab/gpCxwCEw9w8ySy1ttqVVHmlBGFipbnn3DPfYrkO77cxTZ+zE6eIm5PUb1+2tt9+KKRrWQadrtNMBquPUDTRyF+GTFmkyb04evBOEV8ayKmbT6CY7+dhJe+bFZ+z4M8dt9Oio9W0ppkF4uVW0RxA2VxqldVr+ij//cYIrBcJe6PKyOmEXKHQiHFcaXK3M+QlserFmY/PjNj4/YbW5Ys6a+vVSRPgAuy7RjnzG6/q8zbtlPf3BlE2+PWlzX81b72yf7dq2O6Y+XnjpBXv55ZftiSeesO3bt8fJirLzygG2UZZUog2LffKo55kh/BrUcVPc2SXbRl2XHxBrgrCp6GaijqFtJ3IvUJVPu1Lv9KVUhVmJNEuzkzyLghYbBi2kzRx2rTZji/NYXZ6OE82sX5pPLDiBzI7ZxJyTwcIcFVQfoJ5jLDuLNcEk6H63Le1SnJxFbuHnW0iby/gNCxvs1pzHXLhlfZv6bOuxrXbo8UN25uwZ2zG6I96jzU1I5pV5NB7Ll/lmrRxJiULHqeQgHpY19cRj5iwj/M1vfmN//9u/tz99+qe48cr7Tp556Wk79eIp23Fmh23cvdF6BnrqRF+UBaKruMrwdNOT0/wGv5Jwy7r+widUcr2wqDe4Re0hrbY06yQ9ZldnrtnN2o141J16I5+74PE39Hnsni67FZ/xmilWgvxxwm5+4CfWq9M21DdkJ46eiFUgfHTgpRdfiikQPgyMjiJp6Rvi7RIWczklQj3MOKGzTcsouPZ+pVFMKXUEuki5u1wozyq97jUeecKmUiX5cSrqQMuR1URV+u1KvfOXIrc83HKlnbTSvBuJEMTjljCX+INDg2HV8ka2vv4+vzzvDuKemfDL7BsTNj4+ZmPTYzY9V1jaxQoRz8/TgKyDgHHzH26y0gpLuxD0ii3+kBF8xL02J+w4SfQuWe/OXtt1clc8lHL46GHr6e2JG4FYwPG5rfPn4+RCXliKrQhD/pCtCJf5cObFma9nfTUvcWLOvDZbs117d9nZZ8/GDcYDTxywof1DxZpzygqpUT4vB0v4KAvHQoQp6z/K7L95L+B8aln7Jj5Ui0W9xFx1zSYWJ+z63E27Vrtm4zPjtuD6eQCLKFXd291YY82Ti7WPJ8OqnnpvyhavLMYN0oNHDtqzzz9rr/7kVXvllVfs1KlT8RkviJqyQ8LqI6Grt5H0lpvCcgWkPAXCCNRvdRsQJlPeDzOXtqE8c7JOdbkf6P5P/+n//L/K/YcSVCCVRidg7Sp31T/j9ZturQHuwPNmt61bt9ro6Gh0HOIwePBjDnWlIP/VEqW3HKTx006stFPJkbrlnXK5SHUQUjftQ55qB26+0XbciIo373UvFdZct+vS4/vdhWWIdJfbSCb+edlitwjTFdvCvfDgL/4VW+AblvNhusQHYF0NSLp/oD9Sm5+et9nabDzCzlw77gP9A9GPtBwNwomkIq/boP5w0woThPJ9/sXnMV//z//0z2G9Y8X3DfTZsTPH7MyPztixJ4/a9kM7bGBLv3X1l1akqxgnmuSEg378CvfbRB3EV/4WeRoU5vUkmM/2yxFb8rqdWqzZjaUxuz5zw8bcqp70q5fZxZm4YvEMi7As23OLN6qKeXPqx09wi7wW1S3ryQ+9rZywp7+ZNvPhtn3L9vh01wsvvhCrQR4785jt3LkzrioYn0yBsEwSMgbs81Qp4xZyluVNffGGPtZnb960OSzzLncD6r+oR73kdX6vUZXf/dRhzRE2d6aJA2GzpEiXtstFvQOtoqwEiq8yNUqvlX+KldRPGpf9PC0GKF8P4VFrPuWF9QoxTo675TYxZUsLTnq3PE6v6zng9ePEiuFH+/HiI26UQc5BvOXPXcI93vDm+UW9khlZowPpAffmRBAnASekWD3iBMVyv97h4iGWfv8tzi7G+nDIBVJheeG20W22ZcuWKA9lqKoj3NBTfhAU/ZP11b/7l9/FKhTS5WPBR04dsWd+/EwQ9uiBbdYz7AQVDwh5RBdKQD5Y1hA0CLeSrEXUcRw15PXkrAtZR7k8qQg3y1SDk/XCTbuyeM1uOGFPzkzY3MJs1BO6xiPl5MuHIOgfXBlQBj+MlSDf1Kz2kVvVH07azNcztmF2g20d3Rrz1S+/9HKQNfPVkDVpQsap6ARHfTCHz0kMMtf0B4TNkj+mUTZv3uL9org565pFmUM39CzlTuC5ukjHyN35VbvdKzyyhM2gx12EzeCqImysHlV4q4apQhpntbDcDtCp/lXlTiF/tnmYPH35N3JPkYbBn7agnepTDB5lYnzCxsfc8pqZi5tsWL4QKa8LDYvYgxG2sKRFzkna4ccQLyH3ckCHj8LjFRt2fOsE3uVWfbf3jZh39d/U+JTVJmtBLhANFjaCf1iAXgYIUeWlLBLceHqTr+TwtRsehmG+enJi0jaPbo53mvDR4IOPHbTRvaPx4QXIWvrULehbBVmjD7+UrO+yrJ2kFze4m9cVrgv+w4IeZ/rDyfrG/E2bmB0P8i5uLPpJp8zPgxfCIUTpBM5nvBauuJXsBD358YRNfzZlc5fmrX9pwA4dOBRL9l544QV77tnn7MiRI7bFiZayoxMnOUiaLcTMPnWSWtjs682CxNu9e09J2KWF7XowlRMo2xK3tuHlKVpmeVC/qvevBFVu9wprxsKGsLGyueFDnEaErQG3VtCozNRJ2hHTMKl7FdqpzzwNwtEmtBVz2LTlzbGbMYc9Oz1HBOvqdfLjwRdeUORERMpMe2BpMz0i0saHH5Y0P02NFPoU+blj3dImDH/FxsOVN766+rrjHR09fT3WNd9lc67HpYuFpY2u9C36FaTCcRCmZ0BekA5ukBM3KvmGJA/jQNZ8zZxvMfKI9sknT9pTv3jKjj531Ia3DceJqShZAfaZBinm7QvCCjeRtacf+0hiWc93FXPX0DXz1TXIemHSrixdD8t6cnbC5mszdos5Ys+u3h5kTSVx7Cet2M57GtecrD/3q5+Pp23KyXrh0oINdA3Gy5ue/9Hzxie8nn/2eTt27FhMFUG+jEnVCXpynBM2FjZtHStG5osydnelhO0WdnJCRB905bhteHFu12j7QMcceb8FVW73Co80YeNOY+eETWMzoFLCVuOk21yWg04ac7l55Mj1luSQW5UfyN0bpdOoExO2k/LTJrQPbYI1xuUzFi2WNlb2hltu7TGV2e+D1i1tiAmS7YJ8M0u7IN9yW+pQ6C8rrfjHr/jzf55chCl/vLMEskavng09sapk/MaYTWJtT9dsbn4urGy9DhS9mWKjf5EnhMRNSlaXMA3y+huv27fnvg3i2bFnh5145oSdeO6E7Tu9zzbt2BSWfaz+wCZ2PZElP3lAuHFTtfzVyRrLWlZ3qXdhWbswd+0/dJyambKbMzdi+mNsdsym56fjxiLv//CIVFBUSYDpkG6vQ9fFk7OlCSfa88Vj5pOfTtnMuZrZTbPN/X5lcOJEkPULP/qRPf7Y40He9YdhfDyqr7BNCZu2xe0uwnZ3ykI97t271/bt338HYSu9+0HWzZD26U7692pgzRA2gwrC1pRIStiCOoS2QiP3dtFJoy43D4H4VWnkbjpulF+VP/sSQWVrVsZW5U/TpD0Q2o32wcq+ev2qzU7O+mV5Md/cPcD8rsdj9YMTE4g2TSxtjiEwfiUt36V7OHq4lKyD/DgoVeadJcxZDw0PxQujFmeWbGZyJixtPlWmKziImy3HpAMZ1T848JvfxAoTnmREr0OHDtnpZ0/bmR+fsX1n99ngyGDEiUe0S0u6EPRJSLn8ybLOyVqW9YILSyJJb6o2aTenrtvVqat2o3bdZmdqTtRuVbMKhKrI2way7nWhPqadZL+bten33Kr+YMqmzxU3Fzdv3ByW9Ks/fjUs6zNnHourBdqNk6wIWWA/J2zKIMIeGx8r3BeLeN093bZ3z9543WpO2OpL1X3qdp4BylDurjbIv1qHe4s1QdhcomFhI80I+4cEuqbb5aLd+Hm4qnjthGmGtENXde7cjWNd/dBOWKtTtan44O7M1IzVJmphcfb4gO7iCbsh18e5G0sTzWRh1y3tEvVcSvUhqmLXffyPchVPzUGKtyF35nB7B3qDSNzWjjXbN68Xc69xee8/+hgrGiD/8YnxeBcKa6yxrFkJwhz24MCg7Tu0z04+c9IOP3nYdh7baRtH3SJ1HUjnrnXV2Np18i4Ef8gudQPky3w1ljXr0udmZm1qetJuTBeW9cTcuM0sUH+LxXK9HFjWMQXi+255x8Mw37hl/em0TXwyafOX5q1vsdd2je6yxx57zJ5//nl77rnn7OTJk3FviLZCt5Ssac+ow1JnyDy1sHkFQG5h486YxMLev/+Aj9mtdcIWqi3stOUK3O2yeqjqz/cDa4awsbDpWOkcNp2sGWGnjUJay20k4rYShVsplEYnulbp0GibI/WXpEj1qNJJbmwRBjagnWKgYi37j2kRLNr52rx1LzpxDnZZz6gP3B4nCeY+Pd4tpkZcsLLD0vY2Jk3XKn7MZYvI0TNydnVjXTLxOcDbPchT5XFajJUW3b3dYUUPOPEynz09OW1Xr1216zevh4W9aWRTkBKfNcOi5lNevBaVL+fgd+r0KTv93Gk79sIx2350W5ShWE+NVV3MJadAH/IOS5o12NLHSVrWdYr4KozryYuaJsfG7Mb4Nbs2e83GF8fjkXMQ9X13MxRkjfAK2uuzNvfVjE297Zb1J9NWu1yzvg19tset3rOPn7Wf/exnsb768OHDUW4A2XLSySGdcwsbt5naTDxNWifs8pWtBWHvi1fJYmSlhK1+cifuqrjcZcXI871bh/uDNWVhN7rpuFpYSSOi6/1CnpeOO9EhLSvxJK1QVUe4yZ002FfbsMXinpzyS/uxmzYX3x10onKi7h5089r/+OqJsRqi1EEWdncQtg/0Mst6zokKqFzo7XGzcLhDiu4TP6ZGWGLGOm0e6GCteFiIfjJBR4gIsv7s88/ikXbe6c1LrTAWDh8/bCefPmkHzx60rYe3xkutIF2eyFQekSe/Mt+6cELxsLjLD5InStSbu3GVAVFPzU7Z+NRNuz5+3W66dT25OGWzG2YjXU5CdwGnIol4zHyRlSBO1tNuWU/+acqWbtyKj+MeOHjAnnrqqbCseTUqK0Ega/KHjONKg0QySGfqJrewmRLhZMa45T3bcu/t6bV9+/bHJ8PSKZG0n9zG3XneC+T53q3H/cGasrBzwma+EVJQGs3Qyn81GrBVHu1gOeVYTr5VcarqoJNwiCypsJj9mKkRhMHMYGe5Jkv+5mfnrWvBidmtwp4Rb8M+t/K8D8S0giePpc3TkrfXansbuwXKD5s9LG1XDe3wk051fTl0wcIVaRI/+N9PEv2DfX4y6Y357Kmb00Ha3GDkPd4ff/qxffX1V0HWO7bviFej8uHfg08ftJEDIx7Z+ytWNbpW/IIA8YtpGj8urWl+HMerZF3QnnIQlqckx6fH7OrNq3ZlnPlqJ+ulqZjT9kBelLvrPFBUd/l1mHmbYSXIB25Zf1mz2vUZGx4ajmkP3rLHy5ueeeYZ27VrV1ydogPtoqsioV6HjtDX/Ql315RIrWY3rt85JQJIm8/BHYgpkTst7Dtxd9+6V8j7bFUfvh+oqoVHFnQSiY7TbY6q8M1kJahKbznSKi2hyq1TpGmkaWmfgSpJw1Qd524iAixsprJOnDwRFh5f1ebd2FbbYDMXnWC+n7eFcScE3sPshF2bq9lEbcJuTt50ueH74zY3P1tPP6zTcpohXs/qxAnhhT96BBkWZBpbPw43jl2YWrg14FbnnmHbdXx3fLGct+pxeR8fXvjwo/gG4+T8pI0eGbVDTx6Mj/6yEmRk77B1D7slzuPi88UDJEHEiSgfhBuQbOv+6MexdHXhc118XODazDW7PHXFrk5eKSzrBbesba5YSQPgVJ5cVHMz8p1zbs14XV/zk+E5P/F8OmWTn05a7dysdU11265tu4xpHFaCQNjMXXMjkBModRn6o0vZZkD7SOqXi/zYSlJ39BQpFlspLuTHt9HYp3P8UMTcCGuSsKsgv05FqPLrVFYDVemuRFI08wO5fy7pwKw6zt3YYpUBbkLFV0oef7z4WOvAsC1Mztv05ZrNXHLSvumMxJ+T8HRtMuZvL924aFfGLtukHxcrEDxd/0HW3Jjjvc/xMdnS2pXlWn89K8L8+KIn7MVFp3hbIOH7bsVX2A8dP2ynT58OSxprl+WHPLm599Qee+zXp+3kr0/Yzqd2WP/uPpvbMFc8qFKmGcSsPCE/dwt3TiQufhQ/dAYx1+666QES9ODjAldmrtr5me/su9kLdn3xpnmN2FLvUvGSpnJ5HjdK+dhAfFnGoacZF24uWM2t6ol3Jm3szTGb+MzranrBtu/cHkTNa1F/+tOfxpOLXKXKUpaVnEJtqLarkjQMksaTv7YAvtR+S3iwdoO2g/SEIR3Z/yFJfM0Qtip8JdIKVXHakaqOXCX3ClV5VUmORm5VkpaR/XbLjNVMWG7aHTxwMMiRR6Ah8N6uPpsfW7CZ72Zt1kl7ccrTnudNb3NWm522ienxsLTHpm7a5PSEzbo7aWFVz/MVdSzYkhy1H6ROmCBtEWlBkkGmTlTxBXYn/K7BLtu6b4vtO7nP9h7aa7v37rbdB11O7LYDZw/YkaeOxIukBnYP2K2hWza3NGezc8X7pW9bzLdFlvVtInedwtovdIoHetyd5Xoz87V4UdPV6at2xYUXN92cH4uXOS1scDJ1Tgla4Vzj8bxgLjSQ/zlpL/KmPaZAvqnZ9GfTNv3FtC18v2CDi4O2b/e+qOMXX3wx5qyZEtmxY0dMVdAeuvqhfQBblSFtuyppFO8OScIXYVE6ojRFG0GWjQfF0n7k57CZp447+Js21efDiJPfdCw6Rmvci4ZTx2wl9wKt0k79VXYGFW7LrYuqeLg1S492QmhP7kMw53nl6pV4ZByLEH26B3usm5cl8Vg3NyNLUuQL35BgT5en0d0bbqwKgdFibtS3XsrIp66HH6rsqp3YhzQhFerAf6wJ70Gs10YGh237sW1hUe89uSes1L6+/rCSRcTEafaLaZHkJCGiLoR8F2Pa52btZpD15anLdn36erwSNb6z6MrGfDVKY4hjUbPF0nbB4ubthHPf+0mNG4ufTtnU11O2eHPRBnsH7ejho/E+EN5fzZdhuJphzAD0og5S1Osocc+Po7450fgYpd2UDnPYrPwZuzkWNyBltfcwh713nx08eNA2+5iN+07eTg37h2d1p1b3Bs365/3CmrewY+BVuDeT1QTpdarDaqEq7XYkjdsO0nCK16kwyBkwWHq8Ee6xs4/FfPboptF4mGPm0qzNXZyz+etOdk5IkZcLlvRkbcJuTF4vLG3f55NX8bUZJz/qHut6fgmLu7R8XZjfxj0sb8Tzr0+TYGVjaRKnb966RjfY1kNb7eBjh+zIM4ftwJMHbHTfqPX19sdUBF8Z54lDkXZTSfKJDxVg1TMN41b17PxsrAIZm74Rc9VXJi7btalr7jbpYVlf7YSMaU3BnahjGiSdt/Z6XMKy5mvmblEzZz37zYxtGN9gW4a2RH0+/ezT8fKmZ55+Jh7wwdABuimY9lX2JXJrR/I0KHeaTuz7NpZacnVQB/uS27jzaPWALg8a1twctrYSHbcDxVHnWg1pN29hNfPvJG+VXSK3qnQlCgfSuPLL3RBB7gJkgYXG8jlW+5w6eSou2U+fOW1DG4dsYWLBZs7P2ex3TqKTkFwZ0YczhMvc8bWJa3Z5/LKNzU/YLE8EcvNvwUl+bt4JdT5IXHPbEPjt/YK0pePt+W7mc2fjIwu2Zcn69vfY4PZBG3SLtMdNfEiW6RnmrJkLbykiak876qikIuphdmHWxmpjdmn8kn0/ftGuOGHHu6tdz0rGws25Oz7j1ctVg9exkzUvb5p+d8omP5y06fPTcfN266atdvaxs/GxgZ///OdxQuTLMFx9MF8ti1jtpK1EfsuWigLUr3SQqvIBd/foqwZ00Vb7DxrWBGGnla/GSKUTVMVfqbSLqrirIe0iD5+m0UyEKr9ccgIQIA1ZeLHsa98+e/qpp+NmGEvANvZvtMUbi1b7bsZmLzvxjXs6C8V4B1jazGlfn7hu40580wvTNrPgYZ1QIe0gVydgws25BGFjQZdz3IUF7OmGFG7cgMR6Jv5i/7zdctLeMOiD6lZXzKUvRLpzTsCQcBviVnJB1i4xnUMe86Hr2Ny4Xa35CceJ+qpb1eO8aW/x9itR7wIjmxuLzmqhy00/uVyYLearP63Z/IUF65vvtx1bd8YHBrjBqGkQlu0xXZhPYahtOiVpwkvucvNyxnSPuwH56xjc3rsTjdyXiwdhyqMVHnnCjsbnl3SEB11aoSps6rYcSQdVI6mKl0oVcE/jC2m8XNK8FFeAtCEQ7kvwJBwvyX/qyafs0P5D1n2r26YvTVvts5rNfT3vFqXH8x7O2mnPMSziWdYrT4zZzZvXbWLKLW0nbcgXQJCQL9MXiN5twQ/iFonzpRYkLG93VxjX1vchoEIWYzoDS1z7raQga0+ICoqbi5OzU3Z55oqdn/nWLtYu2s3Zm07UNVvkFbPMS+ccQ1zKHCtE/EQ3s2Tzl+et9nEtnlzkMfPpy9PW39VvB/YdsB89/7z9+te/jmkQ5oypV+obsla9qy2qJPVXW+WicKDKvzg53SlpnLvgXs28O0FVPilxq2wPCh55wgaqdH46TjvGgyitoDB5vJVIOmByqQpfJSmq/BFBx3n6ed7yZyBBapAJl+vMr/J4NF86Z/XI5i2b42X6c9/N2cw3MzZ/3Ql1ljTLQeh/kPD01JSN37xpE5PFJ8f4+CzESz6cELC2kYJAnUgh8pKgmSZhhYg+S+aaxY/51ojr6d8x9+1xb1vm7UhhzWPpM199Y/p63Fi8NH3Jrs9eD2ubD+pyY5UnL71gZW2WYETj5mWOD+Rec7L+2skawnZZuLJog91DcYXy+BOP24svvRiWNVY2j91Tz0yDIJRdwF1biY61RdReqcgvlbpfeUOV/eLkVtQ5YRqhsU/noF80y+tBw5ogbODd4s6OknWcVOT3Q0qVXqkoTB5vJdIIVWEluQ6pjqmfkIZr5Jfup5KmCzkCHqphzvXJJ5+M132yHpoP605fq1ntwozNXVqwpRlPE26L3i5LeyaW+o1NjdnkzGTMEYe1nNBB5MP0CNMlbnlDoliDAmGJU5C4h/FtkHoIBN+OFOF1AsBtat6JunbDLk5etAtjF+zG+HWbmXKrmjXYbjUXlnVxAkrBCpAN8Ukxt6zHFmzu/JzVPqnZtMvE1+M2OzZro5tH4wGYV195Nd4JwpTStm3bYgpE9ar6BlX7ErWFSFai8CCPk0JuMS2ShJHcayiPVqSdWtw/NNYMYQPNlbUSdbofStLOXyVVYVO3lUoKHedhkEa65DoJaTjtN5I0fJVALFiBLDnDWsTChnyOHjsar0JdrC3azPduabu1vTDuRMeshw+8YvAVD8BMzziROWHzNOT03FSQ9h2E7PsLTpLcOMSqh+hjuqMkdcKKZIspEhcexAlZbEvipqYL8XlqcXq+ZjdnxuJ1qJcmL9mVqStxYjG3lruWiuWoLHELFW5XbSAO/d9ibclmL8xa7bNpq/2pZnPn5symN4QFfez4sfjm4iuvvhJrrJkGYbmkrGqdCEVikrzN1MZVZJ0KUPgqP5E125S4gbb3CikRNyLlB4mswdqxsMuOUNVxqkTh1BFXU9J8cqR+jSQPV5VHu6L4aXrNREjdquJXhUkl9ZN/s2OJkKbDTUhulPHoOpY2H28d6B60hRuLNv3dTDzCPu/7Szw0yfhzgYwX3WLmpUMTU7dvRsrSBk7v/j/NE6J3omVFCXPcWN7lfDcSNx+XsNKJ1fonC5lysGSPVR8s02PJHoQ9OTsZ0zURNm4gOonGcj0vN7LoJxcy410h5fpqXoNa+6Jmkx9P2sSfJm3q++l458rB/QeDoH/84x/Hp7yOHS2+DMOqG+ownYpI65l9uavOU1F47ef+VXJHnHI6JHVHqhDO1V6rikb5PwhYUxa2zuA50o6SSt6JVkuUblXe7SCNu1Idq+LjJpGb0OhYYQXty68qTUnuXxWmSgiH5YtlCPmw1A8r+/jx47Zj2w7rmeux2ctuafIkpJP24qSTqROEQBpYzdO1KbvphM06bdY0B2kH8WY/7z9YoMUUyW2JOW/Xo3jk3ON5uu0gLHQPz7tOpmdch8kbdnXiqhP2tSBvPoyLhdfV0x1fjo8TjZM0HyCAsP3MQiFIKNZcL/DU51fMVU/Z1J+mbdavMPi02bbt2+yJp56IJXu8FpUlfKPbRiNvPbBCXQqq27QddJyKytkoTOqm/XQb+14H6TG/ZmivZpcPdHiQsSYIOzoCA5U/dYxEfghU6dGp3E/keWuQ5agK00jwbxUmlzwOpAPhMFXAJT+X+LxR7vGzj8eX2Hm50cz3MzZ9rmazV4rH180N6HiXBgRIGk7OWMh8neWGk+bNqRs2MTsRn9KCvLFyJbyrRHnfIfx8i27ooxuXYYUnUrhB+jymPhNfLL8+ed2ujl11K/9aTNHMzE2X8+V0WK9UDGnIGaEfO4nHO0IQD8Cb9mb5Mszn02FVT389bYtjizbSv8lOHT9lL77wor304ktx9cH0EU8O8t4T6cs2bzuJ6jut89w/PU7TSf0apsPJxqXux3H5o33u55QE+qR40KZDwCNP2PVOUXaQulsLuR+oyrdTWSmq0mwkjQadkLpJ8jh5OPkJqV8eRmloC9gXaePGTUimRp57/jk7ePigbRzYGI9dT3/LTcjZeBJykZuQjiBttsHcFtMjNyduBHHenL7pVi6kXYv12khB2Ld1zeHaxuqQdGlgTJUkwgM6WNS8DnXC07/hJwdeUHVl7FJY2FjalAeyEGHEvLmmQBwFWXehtS3N+VXG1bkgayzrmlvYSzeX4h3Whw8fihUgv/zFL+3554r5ah7t55FwLGvqTlBdq35TSf3SsHmY3C8NI/eGItLWVTDJsSn97zXyPB5EsgZrbg477QDptspvtWQ5qErnXsi9zitF6paGaSZVg13xUz/2IToIaffu3fE6Vqzs48eOF2/2G1+w2e9nbfaCW7hjTgzFvbViYDI2PVni8+Ti9Ezx4iisX16yxIM0sdyOm4TcYEws7rvk1rzNbihkzmWBl7miM3++jQdh3IJmyuM6n++avu7EPW41z4e0PZd47/YdgFdJg7lqpkYYtazbZiXIOci6ZlNfTNnsxdmYBtq5dWd8FPell1+yZ5991k6dOBWP9LMSJJKDGCvqFZFflcg/jyNJ/YC2QO6ppIhj/kriZqqK9mD/fuNBJWuwZggb0CkadSq5IYRZDUnT7FSkU1W6qy153p1Ku2nmZWrkJpFbKrm/9hnczGezz8oRPuIKWfHdwT379sSLn+av8N5nJ+0rTqQ1jx8rR24PUFnapMMrWpkiqc3NxFSGLD9IWRZ3KrUFt1oXZ2z2lpN2l5N1t5M2j79vKObCBaY6uJnItxavT7klX97odG2KlzPxAdzS8q+jPIwrAtZee9ClSc+DJxc/roXwxsLu2e6Yu+eDCT/7+c9izpolfMxXAyxr5vsF1V2zOpZ/Vbhc8ni5pHmmboLcirciFu1JustFVR6gyo0+IHmQsWYIW40nyTvYvUCafqdSNQg6RRo3l3uNqjwbicKrzFVlz0X+aTj2IW72uQnJZ6x4fzYPhezdvdf6/DdzbdZm3NKeZ332ZEkG2ShgCgKSZq329PRkTFPMLcxZfH+RG4VuaecSNxDZZ001c9hhIfqW49Iqr/EJr7kpG6+NuwU/YTW35OfLVSm30AGpIAyIGsv6lvvxMMz81QWrfTVrU59N2+RXU7ZwfdGGe4bt4N6D8bg+y/a4+cpDRbyhkpUgqpu8XjlOpcotlTQuArTfKEw7IqRuSq9TpOmlULoPOik3w5ohbJB2BO0/LJLqn0uK3J1tOpCENNy9kjwf6VC11b5EbkLuXhWWfUiJ918AXmB07Nix+PAB73dmfnthtpwa+WY2iI7VFYkBfBueNe8JmXJinZxycp1lauTOp//uAknxhrw5T3fWZc7J2q1ELPDJuUkbmxmzsembsYxwZmYqXvgUb9jDao6pjgoiwamcs+YDBPHBAT6Q+76n+WnNZv0E1N/TH/PTzz7/rP3yl7+0H7/643jTHtNDnDy0EgSk9ZXWW16XuXuVKD2knfDt5AXqVzy+XS65kpbiK12w3PQeFKwJwvauUPzKTtGpRBoN3NtBVVykUYcFrHpAsI4QHasTppKCY4VN41elAVJ9VlOUdo7UL5Uqt1zyuqoS/CEntjwQAknzAn4sTkhs8/Bm21CzmO/F0p67zpOQBQnrJqRAGlyW8/4Rlv5NldY2756OFR9hPRfWdCHlnCs3uRc8rhM2bwnkizfj0+M2zkM6fEhhrlYQKDcRPSxE78oX2xSlOrcIOrkY7wSZ+XrGash3M7Zhqsu2jWy340ePx/QPNxZ5gIiPO+QfyE3rjX1Jfpy6p9LKX5KHS8NGWZKw6XEeTsiPm6FRWOoBP/X5hxlrg7DLjtBM8k6WdiCkUTrLheLmadGpRKx6ab/IFr9cAHGlL8Cd8MQjPg+WSNK0gOLmZZZfegzYT8M3i9NKQKP42m+UVyNRGFmWlJWXREHYvEMbS3Swb8hmx9x6/q5mM+fm4qEar00nbM80GdOqY8gYsh6fuBmrSMYmx2xqdjre9IfMzDv5u6Trt5k6YR31lBP9GN+X5MEcj880CO8difpHKCprqsPSL8pdB7q41+JE8aa9mc+cqD+uWe2cE35twbaObrWzj5+1V1991X7+s5/HckZOUJSfuep0Dlh1k9eh3HL3VAT20/BpHPlrm6cn9/xY29Q9hfopqPIX0rTUbil03CyNhwGP/BdnICnWnQ5vHI6XBemLMxAXl4wQmtLIITe2yGo1utIB7ItAlQ8WEYRTWHc+UJ14EC3HYivhmC+JIxwTXqLHjUkHIU1ZXMpLOkhy5GVN46VI41b5rwTKM023Kr+8DJAGdctHY1khQbl59/XkxGR8eX3BLWDnVevq85PbUHexXI74t5OoI+qNOexyC8g19OIX+hUkRRiW7mGJM5VSm/F28X3WYPM2vlAx0TMSAlj4Ib7vbjy5uDjhxH9xLj6MO3N+xhYvL1n/rf6Y7jl56qQ99+xzsYyR96hA1pQ/b2dQ6Hf3vohVyMMJ7OckLBGq3ADH6IJe9EfpRd/lizP6ajru6E9bHfSrIe5BUCauFhiv+BEvbeMqNPKXXq3iP8h4pAkbQNgDgwNxE6oZYTeCGrkR8O9EBPKETFKypsPSoSHfyclJGxvjNaA3o1Nfv3495MaNG3UJtxvX7dp19/ctYRHiIdQHMjExEemJ0Bk45Kd6oA6kR1oXuc4gP24FpZFKilb5NYPqLY2TlkHuqmfaHpmcmox6qk1iqc4HX3b3eR30en30e/wej5+pITWVn36k291Vkon/WHfNtMn07JTNuBXOMsEganTxNOIGohJLgVPMVbs/2wX/u7lks9/5lcCX0zb11bTNX5u3vq4+279vf3wRhgdisKrjqsGNEvSibXPLF9T1buAuaF/uVdLIX+7pFrCPXozRlLDpj/Rh+iru6A36+/rt8JHDdvToMdu2bXuUjX4qVNZfgip/6dMq7oOONUHYgwNuYSeEHYOsJGz8GzUi6aqhVwPKhzTpnHRiCBRLA0JFfzovZAyhiJRFxBCvhPD1fbcYQ9yNcrOt+08WIj9Z5rkVji4MpNziAqpjkPott/N3UqeEbRa+Sp98C9jHUsN6o9xRF1M1m56Y9nK7JY4F50TdPejkDmEGuxZxC9w+qOvkf3Gic2GfOWzmu5n24GO78Rky6tQtb1RBh1SnOrCoS+v6lhvvSzXvGzcWbObCnFvV3j++nbFbN27ZSP+I7T+wP9aXs1yRG6mQNX2bfBgDIkOQbluJwgmN/NPjFI3cAX1K+uWELQtb7oDvYLLChRvGWNhcIVHPKfJ6TOs295NelXX/kGFtEDZTIhlhY1WKsBsh7YAraWzikmcM7lJfSANCpcN+//33IRe+v2AXL120q1euhjuETZkgWzo3xM7TeHOzcxGfMksgXJEvZDE7M2vTNbfMvB6mJqciL50QdDJAlA/hiMvgSvWVzgC9U+kUVXHkpm1az+3mQbg0Xg6dhGjzuvT2RJlvXL9hc7U5uzXraThRdw94mfsK0g5LtwFQjSkQACHHl9R5khGi9vYIkobFPYnQTdscEDUrRCIvr1cn67lv5632uZ9U3KrmsXqWH24a2mSnT52Oz6LxFCdLFXkYhrJAdDlRN9tPj/Nt7l/llm6F/DhFFWEDETZ9kv5MOPobhM10yJEjR23r1tHiUXp3T1FVl+gg91yfZv3jYcKaIeyNwxtt08jdUyKysJt1uJVAHYXOiI6QbhDFzRt29epVu3LlSmwhTeZVmQ5RpyauTizoTTmGBoeK8ri1iOXBiQhhH8FvoH/A+vr7omzED9KFPryMsuoRTb0wRTBTmwmi55KeMM0s7pVCdSI0Sz/1y+O1gtqVMgDaHFEd0Q43x4qpkflaMW3R1dddTI1gaTM1AirVK4nMf/Epr7LOuEFZfDUG8iinmfg10h0dw7L2dKad+K84WX/pVvVXTvxX561nrjs+NHzk6JFYCfKjH/2oeO93+eSiTtaqp9CpgeT+KdTOuX/VcYpG7ilIuxVhy1gAlAsLm48CNyJskNYp+es416Vh3T+E2DA1Xb5Y4SEDjYLQkHSA6ekp+/bbb+23v/2t/c1f/5Vdvnw5/AeHBuOjrbx+k0/n60ECCHDz5s1BcqvRoGlnkV7qZAwoOidTE5xUJFi+dGJA2N6+3uiszOGJlEXMmm/nKyORtpOBCEh50+HrxOESS8/mC8sbguZkUZsub4KVFroIWoMFkqduNg5ttOERvyrxkxxXJughHVRGDXKQ12GrOq0KL7d0W+WmLfWgMHKXW9SRi4AbdYUbW+r/vffes9ffeN3efefdONHPd8/bxj1e58f85Hiiz3o2840tb9PyXTRVxF3kp3yoE8IWdRk6FWrFVjrW4YckubS0wRanvO0uzcdLnKa+mbb5GwvW19VvO7fz5OJZe/rpp8KqZsULL7kiX7W32gCkbcJWIqRuuXsaV6gKK6Ru2q8KJz1jDPiVHv0RMN332WefxbjFcNBYGB4esZ//4uf2q1/92o4fPxHjl34HSF/1qP3cLcVddf6Q49EnbCc+Gnznrp13EDbkA2FDRKvRqHmHUUdSR2UagpuDmovGokVv9GAASmQtawpHbpAonVYELeLRMUJ65IfQ+RH2RdZ1i9qF/ZBy2gTrnq0GDcSNHuhA/VFvI5tG4n6A8lRZc0ifTpDH0XHuDnK/XAoSvb1VHIAbdUldMQ318ccf2x/+8Icg7hs3blp3f5cNHu234ScGrW9HT3ED0v8g7SrCbheRf9xwLB0c8PrSnPcRpkGuLsZ7QeZ4CnNs3no39NnuXbvt+Inj9sKPXoibixgd9BfqnXaCCFPgjpvc1T5pO7GfipDGE6rCpcjdG4UlXY0D+h6ETTiuKlPCxp162rhx2H7xy1+0JGyQHud5p+EeFawNC3tLQdg8ULBl892ETRpq+LzR24E6BluldQdR+2Uf1gRWHVYv+UMaWK8QIUu0+ExTkKITNLohWNsSOizp50J+yluDLpeUyBkUsrhjAE0VNztvOlkxgMLyd+KGzJki8VxCF04aDBy+m7h5U3FlAqmrvOQjPTqBwqs8KeSWuqduucgfnbSVmwQ39AaQHv3kzTfftN///vf2+Wef27Ub18w237JNx4dt8IC3wS6/qhmkbr1f3MlnHYP8ucHISpHi5qIT741Fm704ZzMs3bs4bVbbYJs2brL9e/fHY/VPPPlEfGwgPsrgfUZ1TZuyVX9lm4rctM33UzfQzD3dCo2OU3fKyzF6ajzQt6oIW5Y3cbCwqwibOEoz3YJ0/1HGoz+H3XN7Wd+IdwTIhzgibQbvajc0nRPCg6QvXrwYwj4kydwpBM17ibmxwp1w5urY50k83Hfu3Bl3xyHvdDoEnSUQj4hJ+rPFDX/KFdMrHjemOPzERHqky8kBHeJEMbrNRreOxqBANP1BGszHcpNzeqqwxrHSmUKJweE/6cHxvUCaLvuRb9JWrfJN/dM6EtlRL9QvoKyUkRPs7LQTx1xJ8MNez/2r1z+ot3gYZtr77HW/+rngJ89vsKzn7Za7DQ8N2+FDh4Oo+TIMa6zpD9Q1OsuyVn3kAtJ9kPo3kjxciqrj1C33z4E/dY7ukDL6A/oT40I3HQkD6LOMB8bFqPfPVnPYyj/tG48q1sY6bAirnJOFMInDAGhE2KSXSjPInw5FR6QTMugh6QsXLsQNRYiATsclLR2RucgTbjkcOuwEvXdf3EDC2idMOu2R6pXr2AwKqzQk6JgKeVF+8oXM0YGrkdSS5mRHXAYT5M0ceFjfM7NRdqzFnu5i5QVQfbSqN9IU0n1Bbo38SF95KEyeZx43Dce+TjisGOHkBpnQdjPTMzY/ww3ExZgSYbVIV7/XWa/vRwqdI9Zfezo8Zr7AwzCX3eI851c55/2EeLlm3Yvdtnvn7ugbrAJhCgTLmrZAz+Va1ID9KpKXX6Pj1F1odNwsHPvojyGjEw7A4ubqkzoXkdMu7RB23uZ5Wz+qWBOETQfAaoSw2dcNO4icgao0QNrR2kHaYTTgucxmid7Va1fDjQ6H5cxg5AvfbLGmsZyYBsHKg/DosJq6QDRIJeTViaRxEQ2aNG0GQkramzYX0zRhebs1zpWJTmpY13FZO1ms5y7WFxcrWTohbOIgOfI4VWEElbFZGFDlLzfVC/2AclIvmt+njCyftFtO1t1O6sNO7gPlwxuddZFAUD2W9eRSfK6s9u2czThhL7iV3bXUFVc7vAoVsubpRd5/wtUO+qnNVF6VHT+2QFsg/1zy8NoX5Nauu5D7VR03ImwMmuUStvKoauNHFWvGwoYUGZRB2KV1yb7ISI3frBPITWEAT7lBXFjWLNXDqsa6ZuBzUmAgyqpmEO7fvz+mJDiBkLesadJUR07Tr9JjJcjTRqiPVKgbTmQMFE2lUHcsKcSPuuYSFisbERFQFhF3FdKypHqkaOTeDMutI/JCaAf1A8oPUTO/ylTQrXlvE0++Z8SvfJywNzhn5y+JqoQHCasa8f3FWe+j1/wqhXdYn5uJl0/xUYXh/mE7fPCwPf5E8TAM7zvhXgv1DSA6RLqCdB9UHatNqkRh8uMqpOHaFcUT2BdhQ8zsAxE241ZETv1rHXarKRFhue3/MGLtTIlgYZeELWJhn60aXB2O42adQJ1R4eiEDPBLly8FYbO2l6V5TIGwZhbLSWSN9YpOpEEH1YAUWQOl20yH5SJPO9cDwa0YOH1Rb5rfRnfqkndpQNhYobq7TxpMLeiEqLTTusoh/1RSNHKvQqO6qopblS7x0T0s7cWFaM+piSmbnXKC8fJ2Dzlhs0a7r8s29Hp4GLmJWgVRl3W8YPFpshpfh3GyhrRvTd6yoYGheHKRr5kj3GTkSox6lzWa9o0qvVO3VIhT5S6wn6aboioc204kBcekQXnoK5QNaEokJWxAO6wTdjUeecIWMbeysEHe0ZpB+dIBuWnCFMjlS5dj1QVkzXpZXs5z8sTJeAgASxvy42QBiCsRfsiOl+tBHenERh1RVwwc5rQhFOatZTFB3mwhsIjX0x03e1VHy0Eeb7npgFZ1jD+ikzv7QS5uabPckaunDXxhwKN2b2RqxEk7Dt0hTw4nyLp8SnJpipc3LVjt/KzVvp2xuSvzZjMWD8NwEuemIsLNZ668qFvyp25FlIL2020zIX5KtikaHafbqv0qNPJTXeOfEraImXrNCZs4Imw+77Z1tPGDM6CqPR9lND5tPUJQh1HHY7/ZcepW5Q7oQAwqOhtz1t9f+D6ssr7evrCS+EzTU08+FYMSS5tOh7VEx0ytJjqc5IdErgf6oSdlRCBvbkoePHDQnnziybgpxnw8y83w46T1/cXi8frxsfGIC9J6S+uxSgQdV9W9JHVP/chX0ixc6kdYEQaEyZREfPTgibO2fdd267nVEw+01L6ZtdmrC7bohHtryesJ0s7aLY4R8ppzsr7iZP35nNW+8LiX5qxrrsu2bt5qx04ci28u8mpU3mHNjWfiYnVyAsx1rzpuJc3CpWnl0klYpBHSMEpHkHsjpH0xhdwb+T/qWBOELeQdUZ2olaTh6CRssRSYDrh85XI8Xs6NKiw0COz48eNxhx/iZhoBElA8yWogTS+V1UKaHvpjbXOVALlw1XD6zOmYm6fM/QP9UQecvBBOXlhQAumk9VgF+bUjVW2Xu3Es4m5HCEs8rsTiCslPtlwh7d6x23oWe2zmyozVmH/+1q3E6cIaDEtbc9Uu7mhLC26hX1+yma/nbPrLmfhi+8LYog12Ddq+3fviRM4UiF7exImQkx55p/qm5Uj3G0mVv+IJaTpV4SUKJ0njLkcaocqvWbxmaa0FrBnCVgeIDnnrtsg9lapOyzFgkDKoICfWkF66eClebco0AA/n8LVu5qyZr+ZmHeGx3rBSVxPo1AjN/JYLyi8rlBMTK0ggsyeffDJIm4/eMk2Cda2151x9UFcgrUfttyOEl6THVX6pyJ38JQqX+skN0EZYt7QZJ1pW8jxx9gk7dfKUDW8atoUp9//aLWW3llndwfs/IOiCuG+T9cLULZs5P29THzhZf+4Ef3PO+rr7bNfuXXFz8ac/+6m9/PLLkT5TdeTLyS3vI9I11TkX/CT5MaJ0UlE4paF6kOThU+R+7cpy4DHLvXUIa2ZKRNs7OhF/mVtVh03dAcTFFEAs+h8fC3fmH5l3w7KGrGU1gTTuShHk4ELaEixfidyYskEIu1pQXZAm84zciOQqgisKRG+PiysPt7KZn+TElhIR8RsRQypVqAonqUovd6vKV24IxIWu7FN3rEmnXJyQok03bjabNpu5NOvCl2o87Jzr6lXs5/54H8j81cX4is3U1zWbvjBjt6bMtgxvsSOHj8QHcp9+5umw3LkqYZoM5CeUXK92RfGUBtB+LmmcVJrFQVLk7ulxKz2Eqv4ptzTcOgo88oStRm/W+OpEeQfWcerOwNLdbSxryJtLaMj6zOkzcSkdK0F6eusDkQ64EuJU3qQBkYiQU7LG6tU+gl+ap9JYCUhPdaByqexcVYi0CcPJTGtsNTWi+Ah1ShqN6ryRALZp2+T7Oq6S3I9jlUd+tCk6U6fMZ0OwTP8cOHggprdYOQIZz3w7b4sTi/XHzOeuLcSb9mqf1KzGNMjMQrx/hRuKrK/+yU9+EqTN1QlgWo18yDvVJxfpluuJ6Fgi91zSMHm4FDpO/RtJitQ9TV9+eZ7yS1Hlto47sWYs7LSTpMep5MCNjgYgGwYHA2x8Yry+TpcVIawA4WYcZM1gZFBjdamTLhfkCTGLhDkmTaxASEUrNNAJS5YTCfu4afoiT4N93FYC0lXZND2CBcoyLOa2ubqgrrgK4eEh3hORW9mppOlVHTeSdsJUidJvlA+6S1+mLLhpzLQIxL19x3bzmowpEVZ98JGBuYvzNvu9t8d3PBDj9e8WeN9Sn+3cUUyRPfnUk/bE40/EiY2+Qp2RL3kgKek20i93k8gvD5O6S1L/3E8C0uOq8HmYXHI08s+PU9BHkUb+axVrZg4b0PjR8XgFZvnKTHUI7VcJoPMwuCAfyJr5WdJiWoBPNjE1wLQIg1EDUJ1uOSCeiFbWM7pAxkw5QIbogaWvG31I/d3avBGwtN7SdGSdL1cvoLikjU6kzVUFhKTpA4iO/KUPL5LSoAf5FrAvISzpSxRX2zRcnq7c8+N0H0nTrRLam5MiUxdcPbBOmnnnLSNbzKY3xJfLpz5z+chPmB/PWI357SszMbfNlQbz+y+99FK8EwQrmyWDnEglVTpJr3bLjOTlRJRGVRnT8I2kKoyQu0tyvxypW1UY9Su5++hZUT99FLGm1mEj7IvAeK8I76Bu1ilIm/AgpkKuX6uvHeVVo1iUDGa2WJqEZYCsBCoTgw2CJl/yg/xYkSLhWKJjvUwHwobYsbyR1OpWHirXcgcFOiodTgQ6IZAf+bOFtKlrnpJsdLIgnVyaoSpMmmbuV3UsN8VjKzf5I9QXetN30J3yIHxaDFmacYLkwwNji7ahtsEGewdtx/YdsVQPy5qvxBzYfyBW15AeJwHSFIlW5ZceI2mYdL+VX+4uVLnLTccg3QeNwlSFS9uDMtGX0ysKQD3SX+nb6pvE6/dxyQcb+KbjqBtBnOjUV0Ga9lrDmiFsrCQGDdMVNH4QtncESKZRB1BHVB6kf+nSpSDEpcWluDxm7lZfACE9kHfgTkBeCB0bwoWIef3kl19+aV988UUIZfzmm2/s3Llzdv78+UK+PW/ffvetXfjuQrznmU+NsVKDfXSGzEkP3Si7pIpA20Uaj3RF2JqbJT8+2sBAxD3aYqDferp66it0WqGVbql/ro+Q55MeE4djueXxEMKgP0JfYktfGLs5ZnMzc7Y451ca87fipMSb9rCsWcfN1QZTIJRbpJXmlUN+8m92LMkJPg2XIj1u5S+0ClMVpwoqO5IaDTlh409dU8d1wnYjaJ2wb2NNETZWkggadzpCzDe3AToTN9BYxsdL/0mPS38Im7W0eooRXdrtyDnQi3ywhsnru+++C2L+6quvQiBmCFgrMJhqIFzI2M0gEE4m2teNv7hB6vsQKGRKHgwaDRzylSwHSkeEzTEnHKxsdKNt5M9bE6n7duoo1Yf9Tus2D9sortybhSd/SIM+RBnjCmZq0uZn523DrQ3xZkP6Aw9M8WDR0WNHYw6b/iXLknohzUaiNtExSP1buSOpX9V+1Rak+1XAPw/TKg5QPPWJZoQt9zss7HXCvgNrgrAZNDQ6g4194qSErTSqkKYPQWKtMv/NjShNh2g5G2iUTiuQD50SsoaQIeiPPvrIPvnkkyiTLHumR9Clno/3XeJJgEifEwukIuLUnLcGCWGIQx2gP/sqL8J+uyCswkNopBX53ihWifCpMgibVSU6aYK8vhrlmYbL46RI/VKd8vK0Sk9ubBGRiU5KuLH2WuXihitWNS9vOnjoYLxpj/yIh1TlAfJ80nCpm9yr9nUM8v08TO6foupYIuRh2gFx6JNIeuISYdNPRNjU2TphN8YjS9jMn+LO4BJhYxWzT+PnhJ1CnRJ3hI4GUcpiZYCyIoSbbFrGRzgN6k6gPFQGCJXpjz999qc7vsaBHwShsnDyoTzMo/NVHS7HcedqgrJRbqVbJ3CvE+oI4ueExoAhDOERykXdEAf3dpGHJR3SU37kxT46aVpKpE5eeX6d5C2QhpDvp8cpWrmnW7Ut5Yr+wzu0e4urM8rEnDU3JWO99ubNEUZXM8RvVwTtp9uqMKl/DvlX+eXIw7UTp12QFvWXXmkAxpRukK8TdntYO4Q96CTnpBaE3V28AzolbMJKBHUSyI60IWzIjgGKdc2KAR6A4IlG4qnDtQvixOB3EmBwM1+NZf3hRx/GXDXkzZvj+OI7K1C4mYU1z7wox1u2bgly4HJc339kG26JYNVSVupCb9pjkFAmBg2DiHqgXNTLcgcE5SEuaVEmyIp2YSqGgYk/JxnyIAz6pPW9nHyJn6ZRdZxuhUbHVe6SFJSPEyX1Sx/Q+82pZyBiEjml6VQJ4dJjxcm3qQjpce6f7oPUP5fUP99vBYVNRWCf8qUWNsBgWCfsznC7Fh5R1BvX+493o6Ij8Zd0rHywSATIFNKB3Og4kI4IEosWN+WTxmsGhSMuAoky7fHV11/ZV19+FXPVdGLIFiJg2SCv4mTLwxy7d++2XTt33UHgbDlmuoZwWP8SjonD58D6+vvihEYeWPF8iJYTBVcPuGvgNAP+khSqO8qE7ugEqUHO1CODE4ubgZvXleLmUoWqcKlQhlRytzx87p8LYCtiod23b9seN5x5Jwj1C7HgR1sqXKt0EYisyr1Kt9Qtl+XESSUN22i/Shr5p+7rWB088oSdIjpRi/eHSHATwkrkBpNvGaiQNdMgEBKWltLoBDnRYW1gYXNTM1ahuA58pBfy5eYV6731AQHipnlqPxUAaWLNcoJBX4gfsue9H1tHt4Yfj9ZzVfLRxx/FnPl3F76LT4EpjTxN8oZ8UyEdRLpBWJzgIGZImnl2ThIQE3PplI8waV0j6X4qqXuKNEyVVKXNFkGXVNKwuSgvQWEpK+XWSVvpKo80jVTk326YNGzulueX+lWlJbdWYdNwqXuV5GElQNt1rA4eecJOO44kOloD4pakHRGijqmDxYWworCsEYiQQauwnULEi7WJZcvlIYQGyTE/CqlC1pAtc9WQI3mhD2EkHEtyd8JDJujNiQYLfPee3bZn955I323kyJd5c6ZiIG8IlbjoRlz0RFLgR9oQBnlRPxA0+nOloCWH3EDFD929NqOcInJZ2UpL+41E+bbrjpBunnajvOSuOKnk7uhOHbFNRWEb6ZSmIakKk7tVuadpSFL/ZpKH7TR+u5LXwzpWhjVhYUdnzAk6edKxkagTBxHOFi9e50GbuMk3VDyEI8IGVcTWCISDDMkH6xoSw4rHugWaU0ZkxZNPqh8CtJ/7c5wKgDghf+YGmVLBcid95rPPnztvX3/1dazl5piwED2ieWmVF8JFZ+b1WX74+eef27vvvmuvvfaa/e53v7Pf/+H39vbbb9unn34aBE4ZieeaxVZkF26uK0h1zvd13Go/F6WbHqvuKR+ikxIgDOnJ8kZyUpZVKxA/F5Cno3jKQ/vpce6fxkkldavyl3sucs/DsN8OFC+XRsj9WoVfR3OsCQs7OmRC0JB3KwsbIR4DFHIJi9PTgLQgaoTLYQa6wncCkQZ5MD2AFcr3EclPq0GUB2nnBJfnV3WMEJ5BHyed0qolb64QNOeNBU/ZuMnJAzhYx3HD08Om5EMaWMhY0Uzf8Dk0LHJI+b333rM33njD/vCHP4S8+eabYbGTFkv7FhcWo0w60QH0kt7SN9U73ddxo/0qqUq3StL64cSC0B6UVcLJSfvRVt5mmqtO2yYVka3202PlnR5rv+o4d8v3c2nHPQ/TCs3CVKUht0ayjs6xJlaJaJ4RyxjSgIQgXixNjmVdVYFBxhQBliTp8VVxVgXwRBvWKWktp/MRDyF9CAACPHf+XORDWZjz5aYWxEr6hKuC8m6lQ+qvkwWisougcKOuIFbm6BnU3Chk2gQduVEJCVPPrGRhKoV9lh/yZCX6a8oDUPekRb3xulKmYbZsLr4UrxMeWE4dpmgUX+WUAOpS5EyZY8XMxHjI5ETxdCYS++4X/t63cKNsU9OFBIFPlSQ+U5A467LVVuSnuk7L2UiE3C0/FqrcBLnnW6FRvEboNHwK4tKPEJ3YAPW/vkqkM6wZwqbRIWj2uzaUhD3YmrDpYBA2HYtwkI2WcWn99XI6szognZSBjkXLo+UQHmSCnpwQmBIh/SrCxl3SKRSPfKgjWZW4oRv1gh8ExZQG1jREzWoSpj8QyPqbc9+EP1Y3aXiqEQ9C5mRDHVEOBt7oNhffjgyPxNQS+SxX/xRV8dWmadtSh/QTyhmPzTtR0LbojrBfJ233q5O37wdRT7qwdSF+XaYmg7hnasWbEslH5CMBKms7QnztN4rbyB0R0n2Q+6eQX5UI6X4V8jgqO+WhXhhP8lsn7M5xuxYecdQ7kl/603E0qNR5QD1M6YY/HYywuNFRIDfIXrJcKB/ShBw1/UHHZPoA0uYNd3RkwqUEn+vdKYhLGkAnLqxptqzT5qTBI/Es93vnnXfsrbfeCmGOmpUkLD2EpDlBYlFSJ8TFimaAsV6cFSkI0y4QNuTNKhdeR0uenDQ7heqskQjUqQY19QepckLkm5NcCTDtw7y7HvOnvHwph3Cylqn/+YXbJCLhmDTDOneSFunzbnSWRVIvrLQhfeXBlQlhROYg1RHd1a6StFz5cereyK+ZdIKquK3SSMMhqY4pVP51tI81NSXCmVokK5LBXWSYdyo6Guky2BDCQT579hYWNqsuCE+4Tjuf8iFNJCxZPjd2rXhUlzSxrtERXVVO3FMst9OrrCo75ZQEGXn9UWZNgUA+kBt1TBh0Gto4FBb0ttFiDThbCJs6Yu019YOlrWko0GjwrgaoCwnpoyfWNNYzhM33NyFVjiFnyskJGUQ/6emN1Tm8xZG+opu+nMw44bAfJ1YP193lbdJ1Oy9eBqb8SJs2DMvcrXLclA/1IB1BxE3qpEqqIPc8bC5VkLt0EDoN3wp5GWUoKb11C7tzrAnChqRF2JA364KDsAcKwlYaEo4ROpDSDcLu7oqnC5kS4YMFKyFsgY6ILnTesPQ8LySmRfqcGHqKlQw60Ui35eYnpOUElIEbsViBnDxYrcLKGN5HEuuyyxuu1OHwyHCxFn3zlrCq2WeaA3LGnzqFpMOSTgYaeabb5SAtd1oGCcRIXUKaImrVKzd1KSN1ypOvkDAPEnElwENFsUbdhfZFcIsHlHbtCkkfUgrxExQnJ05apMXJlf6FHujG1Qf9hzqVcJxOCwgcS9qBwlWls1zkcSlHjiq3ViDdlLDZB9THOmF3hg1T0zPLb+EfEHQChIakE0xPT8Xl7m9/+1v7m7/+q7gMpQOIZCAVGh9SAbhxjLsGmaDOUaQ7HdYlaUOgvD+El/y88vIrMbgZfLKeOoEGB/pByOjLFMQHH3wQAtFAAJwgIApu2EGChAUaBEqnEVp1bspKGlz+Yw0yV83NQwYQNz7JE4sTXRCIjmkN6oKP7oqUEeVVpZPcVjrYiI+k6SlN6gNrFgLQVRHtR/tQbzziD7GGxewnGD26D+GyxZ1+QZmA0k7zIF/yIU3qKKaunHhkWUNACHlzHCc/P4HQl6gj6pA+R34iefIjfaUNlF8VmtUvqPJvB8RT3LTMKwVpUn6dvNgHnFC5D0Kfo57wJ89NmzbbL3/1S/v1r/7Mjh0/Hu1DHaW6rVWsGQs7iCcZjLjLEhThAHUKtgidCwIgbS6DsSqxtnjJDwOuHdKsgjodW0QDlXKQH/ozh42Vy7wyl9zoovwQxU0FtKsP4RWWOWWOlQd1o6kAEZtITZa0TiCI6g9Iv1SA9FstKD30hQioN+aSOdnxelnmogFTGVjGfBno0MFDIbwSlzaURa35dk7ilDOuGkpyRzQ9Uif8ZKuw+RZ/CDmu6hxB8PO3H2yC9KnvtH5Uprz+UqlC6q79RvXdThqrgTR/0qadVF5k3cLuHI8uYfulfLx6tLsrLEHIBRKSNQPJpKSjTkCnAeq8HGtOkk7DYGRw79u7LwalOt9ykOZJ2uqYWGtYZZA2lkdtuhZusk6kI2FFmMvpxFV6Uz+QjFZ26HJfc9HKq15u/sp99Kq73yMobXSg/ORJvWDR8tGGK5evhOVGf+BqgKsTXtTFOz/4oADfZeRzXRA27Ug5IVadzDupR/JPjQHSIT2In3yZNtFVHP6kDUnTrrGyxLdMNzFNw3w4c+MyKNTGVVD9g7y+q+o+LVMaL0V63EkdtIJ0pTz0XRE27utz2J3jkbawAVYxJBM3Hgf6Y/4y3N2NgSYSQkgn7bh0Eo4hbNImLwYlj4tjmUFkq9V5pI9ICDBvzD6DXCtGEKxuWWpMZeAW1ppb4hAokF5sq0RQmRHc0YMTG6SNsE/doZfipXGqJE0/B/45moWvgsIz+GlnCJp5agTyZsoG4uRlWUePHA2C1qtwuTpKSZQ6hyRTQsjLUyUAPYhHnaXEzckNkVUuS1t9zVOIdk0tbY65ysGfdNM6UX6CjnN3kLo18m/k3mk7AKWXp5mWAT/KlxI2WCfszvHIEjZWKQMjBpSTtggbaxtSIx5uCIONgQLUmfBXx9ANLPwYfFhQvJ2NQZ8S2WqA9BjspM1gp7MCEbWsMzo55WWLW1jfC3deXku3KhEInwpIwzCIEPy0bSQrQapTFZQ+ZUIgOa4+IOl4YOfGdZufm4+5aVbwYE3zFj22evUpJ1hIE4hA0vJ1Wo40Tl5HgD5F+9GOtGdMtWzeZMMbi484UIa4kpoqnp4kLqA/4k+dKP0UyqcKVWFzWU0oPbVfVTsSRmSd1s86YXeOR3sOuyTseP91X7G0jxfP484lqG6aibSBOhNbdZKUsLGU6ESsHmAQEo9wirdSMMhloSHkh87oKn3o2HR+WddhaTtZxZx3abWFm/shsr6x2NFTg72RzqpTDa5cmmElg6kqblV+ImsGO/PVtDsnYQgRK5qPCTD1gVXN/DTTOlGPZRur/vLyLRdpGgjpUhbaizwhHCS1uumLTNlxbwLiQqKdXC/iyYBIofTzfdVb6vZDQHrk7YhO1IlEOq4TdudYE4RN59flKgPI7ceIB2mHH6shyq+HqEMhxCUc5ECnYjARH2Lg0pqt5sXVKVfamYivgQ7JcFJghQgdl/wY7Ax8rhYoE+EZ6MzZT4wXnwJDZH3HHPhMLQhdhKCBA1Q/bFVelR8BKy3TSiAdpBsnIk6gekiFffyYM4akHzvzmJ06far+5RfVkdpH5cLtfpRL+SHoSX/hKk03JTmmTbhC4qqQR971wA6GBv2SeGk6iHRPyyC/Ksg99Ve9dIo8jRRVdUp41b22YJ2wO8fasLBdsKJF2IA4xGW6hEGDv9wFdRIuVyE+8sA/5rH9EluWG6SAOx0OrKRDETf0chKVVcbghnzYQuCx9nnEL61dj3hHtlvgnITIn8EPMSOQGze1IAOmU2KbWOA5gasMaR2spCydgnxzEdAD3SBozVcz0Gk32oJvKp45c8aOnzge9xeoL7Wp6gWkaTaD2kFCX0iP8zBVUBnIHxBOJ2JdQWmKBv04sUJi3J+gbeibhE/zID3t5/kqv3aQp7kcpGk0g/RS31J+64TdOR55wsafmzkM3rCGu2+v53Tv6AgMGqZM9OSaOoQ6iYgvbvb5Ph1IKwwgUNKls6UDc7VAWrpCgKDJk7x37d4Vr0fVgxx0bPy0qgOdiIu+OuEwMCA89tnGvlt0WoECSVA35CdJB0q93lYBqiOlyTYXIKKkbhngTIGwZp32pYyQM1+uh6y5uUjd0D7EydNSnq1AOPJF0rqAPNN6SeumXUgHtrQpZUBftoA24GoJa5tpLMKRL2HZb1aW5ZT1XgM9aLvUMBDWCbtzPPoWdrm+mE7PAyAMNogaEI+OIMKOgZi944IwDCKeWqODQXCE5xKczgRB0qHSzrgaHUqDD5H+miIhT6ZJ2GJJQtTooifwcNPlNvHU2UkLHakriByS5kQUVl1mcaf5S1YLaf20ShfdCYOOLN1jKoQt5WJaiuV6fPxWZE0dgbQMoFWb4J/rRRrUB0KdIdEXknrqFEpXbUpfwtIWKZGupkbIh/As95O/ygPSfcBx6taqzCmI10n4dqA6JW3VY4p1wu4ca4Kwaey6hV1OHwB1EMiauUIGUBC6I+34WDp0NtLEKiWt1KqFJEhL6a02lGaaNvvoSpmY164ibghMj1ezj1/d+varCb0Ii7qLk5Fb3rK+KausbpWLekTYR9I6aoVUd5AfNwP6MS+vlyiRL2TNChBuMELWlJf2w68TvQBlktWMXpSXslMH1Ad5QizpVAz1JQJS3LR+gPRoVlb86E8QN8TElvLyGD15oAd9GHfpKR2VflWZG+WpsLmkfo3QrBxVUHh0pa7YIgJloz4ZtyJsykj/XCfsaqwZwoaoubnIoFYcHliAu3Fj0LBFQN6JEaYOGKwMGs0ni7DvdScKfcuOr85PnuhLh8ZKw6pGRN5Ml0BsImxZ3xB8vAvc64NyUx7S11WEBKubeiW/tB6QToCey6kf8iFv2vLK1SsxuDmm3iFpWdaUkUGuuukU6g+UlTaGoJl6wZpHeOkVL8Fi+SAnDfTgpJbXkdokLWuzcou8qH9Z2ioH6eoEim7Rh8t+SprEVVtIhGZ55nFyaYVmaTeC+q10BqRD/YmwU8NgnbAbY23cdHTSjjexOUExOMLA9n6TDhiEwYCAtPOSB4JFwAAiHunSkXjHM2t/GUy4SZ97gVwnbbUP0EFloeNDAhC0iJxplJTI2ULkI5tG6h90IA3KKCtT890x1z1XPG1J3are0vxXA6QnHVhzLusWq5MysK5aS/eYmqKcgPDUUbv6kAdCHMoKGdN/eNc3X9GJ931/8018WIJ3yeg9KxA4YXmyUq9oheQhWdJDn077A2GJo/okDn0NAwHd6N+Eoc8RBlSVs1XZ29GlGYjfTHLgRn8RIXOMjogsbMq4TtjtYc0QNoMBMlJnx0+dzLtPhMMfoks7B1AHIw+sArYIVrumGehUxAekeS8gPRCBvOjoDApZMYAwlFVWGfpB3hAeBH2H5b19W7wjhXJA7CIF0oOEKDNkHWWfc2uSJyod1FNKHqleKwVtxvI2BvS169eCvJi2YrkeZM3cNfuUSeUHneoAUdBXsKT5OMMnn3wSZM3XdHitbDzujlV97Xp9ySSCTkHapdVN34OAqA/qT4Sd96UU0lVtRlyE9mJLnWt6CiG8Tgb4k/a96mtV0HhpJFVI+6bCqK/QnzSHvU7Y7WFN3XQMwu65bRHiH1s6nP+C3NwSp3PUw7gf872kQ6cTWdPZCMNTa1iwkJ2mRjQA7xfSwUL+jUSEIBJnYDAYKANEzuCQaLWJCJzwlIslZ5Sdr6tAqNSJ0hZBRX2WIhCmCnlYheOkQBsyFYL1SvpcGTBvzaoQvXyLsnRa36QFOBlBvhCziBrSZn03JIJ/vOeDE3p3cXIiP3RE35hCmi3e+QKx8rZD4mh1B3VGePWntD6qoLIrnvpbpO9XGvFqWHQo343Dflp3KeTeyF953UuQL20jkR7KmxPcOmF3hkeesPFH0k4O0k7M02Yca0CyjXDeLzRgIW34nWPy4i4+8UR8EB7kJn3uJ1RGREAHRAOFwZ8OHOlIeRkQzAszOLC+U2EunLLpZMTj7+nLqBhoDCbqKyUm8gHKJ9VNkB4KA0T4pM1Avnb1WuTFFQAvcYKsIW30Utg0fiugB/HQD7JmqoOv6Lz//vvRd5i7hnRpV8q8cej2+0AQ9ln7nvYl6jamL8YnYkkeunOCJz7hSIuwjfRU3cg/J3r6mqZc6HNc2aEXYRqVX+7yqwpT1SarCeWvfico3+Va2KCZ7irrvS7fD4G1Qdj+o3OngywFqyUg57DGnZgJy6Ahrm5MplhYLC6jsbBkYXJpzgCls5GP9HqQO0/UjQt1gogo0J/yQFCQtQRST68iIBDmleNBD6+L+qBUXZZlblT2tH6AdKFOsVghKdoU97379sY0CDcZWXvNICa/NH4riAAB7SfL+k/eX86fPx+kS/kpN+8hT6eJeJc2dQJZUwfkL+GqDF3i9QBeH5xgOOZqjv5AfOq2Xj8NoLKgJ4IubLGuqQsIjrrGXYQt5HWZ10tVGyhOu9IKeR7EocwSjgmjcCsh7OWiqh4eJqwNwk5IuD5o6X8SwfeJQ1iRbjgnHRZCoWNBVghTA3Q2xZEVRlzCCUrrQYPKBklq0FBHlEVTPZA1A4cpCfZVNzxIFHPbXgcMPuJTfynZCMonlRykSRzakrlrLGAICrLkScbTp07HS7fQgbCRn6fTTt0qbaD0Iev3P3g/yJoTBOXiqoJyIpoW0smYdfyQCQQS5O1CHeGnB7LodxAQeZAnYag74lWVOYXKofpBH/psvHbA0+SjwJxUOBmSLn70R8olQmwXyqNdaRdpW6CTruyUBv4K0ylhd6JHFVLdWqGTsPcTa2ZKRBYk2yqQRnQst7YJE4TTXZC78gDqOBHeL08hLIg7/L2NNajJq1l+DxpUJqD6og60pUwiKSRIqiRl5mypf+oBKxNAYMSN8nu9xJWKg7RTkKfqGDDAqVMIFRIlPiR66uSpmAqBSKlXQHuBPM0qEAZdIQZOBJA0hM3NRQiDsnAi0EmJ8pEPcaRfLvjp9b0Ix9QB+lMOys3JRqRTr482Qf7kg9VOfx4bH4sPM1BnYdmXfYx8U1JsBtK7l0h1QCcJUFsLnRJ2O2VsVT75K51G4Vul80NhTc1h07k1YIiTS1gDzFlzkzG9yeS/mDYB3o50HrnT6ZizZMtgxY98GPAQG8ekDbR9EDuD6gmk9YGwH3XoZWbwQGgI1ifH+FH/WH8xt+8DK96Q2FMuk/Rk4z4B7cEvyQdwrHrS3DUDmfrkigWrmhc6YWVj0Uo/xW0HhEMgUz75xtI9yJobjLQ3c+KcGPjGI4QBVP5mIj2Iw7JR3LgZCwGxzxQKdcUUhqxixWumO36qE6V580bx8BB1TToI+dJPpUc7aLfOOoV0YCuiVlkRtYHCMGY4ebZD2LgrLcVPBbQqV+pPnKrwnaQhtJv/amBNEnZasWnDsa/KJ24Qs8djQPPjT+HD3bfxFOTCYnQ+VgxwDLnjR16kgWgfd+XxIEN1IV3RG/1FEgwinZTiPSzuHycupoiY2/d6ILzeNoc/kkM3dQnDoNWUAnO25M3SQ4j6+LHjsc80AQO3EyhfCIG0WV/NvDU3HLHiKQdkHXP0A4NhNaMX4dN6qBJA+pzMiIdulCNO5G4ZUzeky4mHExz1p3Sr6kPI64t0b9y8EcsPqWfSoE/FlU5vDx02kOqUQ36rjTwv1Q06q6wgLZOHiDqiTEz1pIRNG3OD+Yi3OydSWdgpYVehVflS/zxsVX2BKvfULU2nURqriTVN2HllS+g4kLDiESeWA/ovLG3/owNhRYal7eHofFhv5IuliXVIByMuBJfmnXeWBxGqCyQFdYNQfs1xIxCdiIo6QKinKLfXHcTNiS8dwED71C3xIVBIlTpk4OotfCzjg/jIlzTahcpAPqSvuWsIm33cefshlhxlcDXCTdIJUr3oCzGl4yQOqVJHzInTF9oBOlNWoDLTv/lQgz54gPvQxsJqr2qr9DgvU3qcui8XeV70/TphJ+NQ4XCjr2Bhp4QNqCMejjp8+IgTdvHhbMYO6TWC9E/Lk4v8tdV+I6RlEqrcUrTyXylW59brQwY1VtpoaePRMSBcBgaDjmVsdKg0DhYYA0aDcXikWAkA0fBEHITAUjGWjKVrezmxAOJK0o4MUl0eJKTlR18GFpf7rNqAWPXRAKwiwOoGCIblbtRnDMiyaFGHDOYkzSD88nWwAMsKIuVpRk4O1BXhOoXqlnRpT0gCC578OClo5YcsVenVLghLn2FLH2D6Q5fxnLhYKsjJgX2RTtreVSAtERhpYqHzgBMPPLFPOpA2Vjx9KtU3173qeCVSBbmzRW/0Y4x4jHDvFEonT1fCcS6pfy7yT7f5fiNJUeWWopnfamDNEbYqNK3Y3I3BxD4WAAMbomVgaLABLHDmZcOCGvJL6tFi3TIDn3hcbn/wwQf2xhtvhEDczJ2SFp1EN6tS0gZV+j2IQD9dRUDc3Kw7fvx4fJYL0saapI54QhDCipMVNyS9mKrftIwMbpZLioC4spEFD0G1a5lWgfqlziE4rFROquSBO+2FcAVAm+R6tQvFo02ZBoGw0Zl8yZN+RP7pCbsVaRMXkZ70sT2798SSQ+JS//Q1VusQLoX0SaUVquLkonAp5Cd9QyBrd3NTJFa1rBSkSV9b9JNsbDkhpPlViPQCqY6pO5B7q7it3ITcT7IaWFOErUqrqrzcjy0WGIOMAR6Wtu/TUfCTAMgFUoGkuGxnsDIwISqmaCBryJvtZ599FisUeIKPNOuWp4OByYCXMChbDeofCpRdAwe9uWzVfDNrpfkqOWRLHULWEBb1CIkrPj8h0nM/rGDqjht41CVpUJ/Uh8J1grQOaT90wdIlD9LMXwiWShWUXiMhTSxidIZkgfqP5p4J1w5hSw/CcSVAXWAUbN5ULK3ET1ck6kNA8VLyWS00Skv5RZ/gPg7hyqCuTfHrQI+0blSORT+hk/YSAmHnUoZLRXq1647g146kqHK7F1hzhN2sUuWfhqEBGegQDpYSgwN/BhzCnDbHDFRIiwGlV5kyaCEHCJr1vn987Y/2u9/9zl577bUgb6ZOSBcriXyCQHwgYpmxFZGAXK8HAdJN00VYxJA2D7gw78z3FXGDHFn1QVnDKvcBB9KyUX7SoX4Z9JAdliTxIUDqWmHbhcKK7GlH2lAnXqx9rGqglR0atHHTMRGv/QgHnJqLreuPXqQv4Zh2ow0pA2HID1E9Cey3Ux7lw5JR3bxk7pp7AtQX/SfK41CaVbJaqEobod7Qg224lSRdl/K4XVBuwpMmdVdsCyOBPsQVmUREfou8E2lE5KlIP0HHSLOwabhGbnJfLaydddg+MNOBj1u7IH06DCA+cbUlD7kzYMkDYR9/kRADFisLC29isniEWZ/tQlhZQcejU9Ah08ZWfsvR/X5AeqrsKj/kjHVJ2SEV9IbIILS0PMTHuiYsVyUMPk56WOmHDh6KOWxOYArbCcgDfcifKSnevsd0FfPY6IOFzZY6R1/agod1mL7hGGE/xPtYKuGXuZEOW5E0ghsncm6kMb9PHVA/auNm7YlfvS95H+EzYnrxFGljMDD3zhsjqSORSiOQTid12Ew3gTGAHrRbnIxJvkE0PQFLHNqEdeWMCZ0s8aNNDhw4GCd87pEMDPDQUfHuF8IAjlV/hYRzgLTjV/qFQrGJSGUYduVfoOq4GRrVTe6u40bhO8GafHAmJQo1SrPKpJOISNWxSENpIaSjziSSYAAh7JM+cRlw3ITD4tT7lmV9QujoTUemPAByUzqkq/JK7wcBed1JX+oLAoSIaRvqB3emkCAZlUdkSfkhUgY1a6+PHD4Sg5b5ceqBcJ2CPGgndOBRdPoHr0SlvjlBQjTMm+PPiRQdWLVQP7m6hNvUnW4R1sPVj8twrENny0MuuEGqlJsrLla6aJkaOrVqQ9Wr+hf6Uk/cwOSVrvGyKT+5sN6d6SPqtlHfUFrL6TdpXMVP25zycT+HbZW/gJuuTgD9PF+HrbHD5+9279rthL3Jr1w3emjW6KeEfaf1W+gmHTVmEzd+4ecOqICahWeRXhyW/gl0XFWeHGmYPHyUvY00WmFtELb/UsIW8gZqVqGEoxOklgBCelyaxnK/EriLaMlT+ZIGliQdNd4P4YN6fKz4ujm6QyIIxwx8LHDyg6h0smBLOtJVeuTyQ0B1qXJzDMFQHk5KtBH1EMv8IG6vI0C5ok5KQuQGINY1Ny8hbu4NMJAJB9otX1ofpM3U1LffuXV942acSDgxkK5OGKlVrSufVPQ5NQSST4/1AV3CsQ9R6wYqeUDYe/bsKR6iKad5qB/VWTOgv8KiK3UJYdN3yJN61L2TdtJbLqQD+gR8Q7+HrLGsI2//C/+KJqq7l37onhM2YaibnU7YO3ftihMc9QWoW8IA6ZKK3Akjt9vhb8cplOR/8SsCIF622K+73oV62TPgnvtVhW0Uv12sCcIGEAUdOydsoDBq0FyA8kHoBCJP+Uly4Cbyjrlpv9yjQzKISYcPAmApyeK+fKV4Of7VK1fj0hdrShY4JEC+xCVNnQg4luR6SH+hSsfVBOlLD9UXujPVwQClzpieYikdqykAZWIJJVYuYbgXwPQBwtQI87ZAg6+dMkgPQJ6QApY1etBXqD/mmBHqkWMkrUftKx2g+vSSxRZEn2CuG+LyvCQR1lXFAoao44ahbyFX+oLqpx0QTn2X+uQ93Zx4qDPclaagdNupq3aR6xpk7W1SzB872fIjvwZZ4icBzQibk9teP1mPjm6L/kDenEjVBzhmP/L3umaLW+qeuinOnfu33fjdAYWL/7eh+M2g8oF8Pz1eDh55whbo1CLKTqGKVl50kJSw6aDyB/VO4EJ+yluEjQWpKQEGOR0Rfem4YWmX74yAqCFshEGKlYiVQVmlgzq68hO0n+ou/e41lA/lY59yUQYRMu4MQggbK5e5WcpGHVA2CJon3TQdogGr+m6nHCqv4nGyo26pL0ga4sTqRbDgRaTa5sKNPoT19rrxxzbehz68sf7oOSeigcHi5VBYhvgTn3wgbCxGPUCTt1kr6IRCX2BdP/2DuqWc6INRoDoH9bSbVJfXUrnXGUg7J0aNg0ZJRpuUP8AVSiVhezn27tlr+2IKqbh5T/pz3vfjRmKWt/Kv0in0cqR+csuP74Cr6LH5F6gIUYkoY1n/go7z7XKwYWp6pl1dHiioMeigDMjp6am4mfTb3/7W/uav/yqsVayeqED/0ZmDJJw4O0VawWnjQsQMvFjCNeTW2kDxelWdGNLBA4gbN2YWFmNVQnoJHsJrSum4TuKEZaoF64z0GfwMSggFYdCLaNjiR/k01UDe6Kd90qNzUlds7yWizstyQ8SsiGEtOk8YsjJGFhTkhc6chLiqYPBC6JD0Cy+8YM8++2wQN+VDf+oo6iWp02ZQOMpMupw0IG3yw420gAattuk+29w/3Fg5EnOkfox1jV9pcab+5AMgd26eUm6E9iQu0gqEoSz0LdLmoSxWGrFUFAMFP6aOND/OE7ihC/0f5mlSXTE6WtRn7q+yqawqA+HS1zhUIcKU6XHi+fqrr6NPpFePQ143zz7zrP3I+8CRI0dtu5/oNrj7zEwt4sW4SjKoj7NET+WDX92/hNyAwqVhu7wMQPHiR/wkrESocs/9tU3dO8U6Ya8CSBOrCsstLCwfNLhBlmqcdGCmDaZOD4FDSBBL/oEAwstKpxzkAwFgtUFuEAFbLDmIAH+dSKQL9YQOyg+QbqrXaoPyYzGzMgNyeffdd4O8ccPaRCBjyojFyADGj2mQF1980Z555pn6SoGoI/dD37T+2oXKXlXeRm6qK8VL09CJL/VPjxGdnAlLXdAWtBvtJAu7HRCOMhMH8C6Ut956K56kZV0/9ccTkJrv5epNOrQC6bZ6sIUwqvM7ylkSt6BwEbZJEylMK8J+/kc/ssOH/IS9dUvEY2yQP2MhzUvEmiLcy3sUkL380ziKV+V2e1vuNyBtIXVLJUXqlvu1i0d+SkSdkUqXtbncyroL3lfJQ52YgRmWs+vCMe6CGov527BCSh3Qhw4Y0uOk7BZ1kC2vaR3oj33pDQGQNpeSzPlyKcllMdYp3xZELl2+FF9poS6YgmAg0NF1w4Z0dDJRXaR6rgZIL8paDizyZTCiE1YuuhAGHVhPzD5+6MpA58EQ5q955B1y4yQFSAeo7jqB6pk8VX6JToRsU8ENgWhpB4SToU6EcYJ2I0ASUyBMk7hwxcNSO10VscWdOKS9nDKgP+CqhXpkPh6hbtFN+hKOOm3Xwo4+3OAHYo/0vP5DIGo/RlJQJknTPMsw9IOqKZE+L0tMifhVA3VI22HMTLshMz9f3Hi+Q59SGH/piTTC8ePY3dl6xLJURRrtbH2v/lOx5ANUHiRF1XFVuE6wpm46IiKplVRaHZ6E0kEHrCk6FkKHwU2NXs/T/3BLOxXAT2vFIYOUCDiOgcgLqEjDk2SJF5Y4ZWbQsmoAsoa8uVl5c6x4Xwb+mh9mgBA/6iCUL3SRjquJej7o66CsDEx05USCLrQHA5J2Yt6eVRXUAVb3wUMHg7AhOeoEHRmMQGl2CpVVdd9K8nohXwllQ9SvUvJHRKAidwlhlqs/+QDqD6KjrRH6vk4oyqOuP828zPwAbRP1pimQcrqOPphDddMqT4VrSNhef7t374mrhnhAyI2uuTm+o1o+8EQbopPrwNK9xeRmb1Hu22MPiZuiuJW/iIif6xJlSZDGS1E/VLHqx7f7BJIid2sUrhOsyVUiKZGsFtTIGihs6YQIuiE6xg9Ih1QX9lMyEBEw+DUggwy4cVmWh06k/BgEDGjqghcvsdqE6SEsMg2OIMy5Oy3u1ayTPB0dkze6oBvtw1zrppFN0flZoobu6LJ1dGs8MKO5XsqpOgXL1ZM0VgPKn20jAarT3L1TPRSXtiYudacrK6aSqDf1Dyz4tL48ZvzuQjtV6GoGrfHn6UmAylIF5Rfbqqwpj/84QVe9XpU+sJn7M+XUUW9ZHoWBfHXi4DjI2v1E2oWexZiAzOMJyHC7swwRiE38L8rYaFuU93Zh6uWnLNovEeVL3NNt6r4crBP2KkENIX3oLHQwWdySeJpRNxWTsFWiMOhMJ4as80tybnayz4ClXMRjAEOODGpdNkPeIU7crEBhmoTOTRzq5V7UCfojSp/24UqAQYp+uDHlQRj8aEPKwUcEmBLhMXeuMIgPKBtYrp6rVT6Vq5WkbSnBfbmgH1AG+jYnX+qSaTARNv1A9aX8mqFpfbia0jUtE0K8VnXpIfhXGU5+6M3SRK4AU8KmnJyoN24sppAoF+FlQRMWq9m1ibEkopY/UPmRVHcKdns/jihgSPiW7oKOb5eDspd7vlOURX6lWynpsfaFdL8TrEnCFtRwjQQst2IFpaXOQ6eiwyHoLCJnXxIdMumAaaeLNCmX/yA8yiOhfCojc/dRN37JSHqa96aOEAgToZ4gb8BJIeKW5K38lgvik44seEiGtdCyssmL+WqgQYtFNbptNKZERNiEA0pvOSAedYMuqqdcyEfl1z7xOE4FtypRPlXSDprVN2mQN2CuX0v7IGzaj3Jxz4P6Yl99pmneZFchxKsSoVWZ6v78VYRz39gGYXufyAmbtuBEvsn7xsbh4TgZ4Uc5GR8aFxojSBhC5VQIfmEUlXWALNb3yfnOciGBcsv/XO96mYoj3y/32Cn9UsmRujcK0w46X5T8kEMNFI3aQHKiXA7UKAhpkCadDYKErLTGmi2dFtGcM0RKJ0aYvmA7PuFEW4rmgLnBiY7cxKRTM1ghwFg9sqP4kKyWztELiYdVxvu59erX3//+9/b666/HagP04eSR6r8agGgYhBCJCDNuvvovbYuoa8+S8PiLHFcLkW5JxI2EMBLyTuOkbrmovppJK7QThjoiHPpQj+RNncU0QUV/5bhSkmV5d0lptbKvLXHuJ1RnYWzUZuLhMqZOuG+j97pA4Jy8EMaDjB/cMVC0TDYMIkkYRRhLhdEkCXdeABZXwLeNpbTOdBx15PUX+17vvhP7ORRvNbHmLOzo4B1A8bXNgXsqQA1FY8aa6+gkhTVNx6JD0UmKhr89151KdLIkTrwoaqZ8THquOA6JjphZ5lwu0qEYlOVARvAjDGHp5BC4rGwgUuUSlPoCjcrdLohPumw5OWFhM/fKPrqxdh296hZ2X79t3bI13rvB8r5Ul+V2fvImLnVHuSmvrizUHlGv1LPXp0R1qjrTPqIBndYt20Y6ooMkJXqE8kX/5B0rXldVgj9tQ3jyR39Ovt9d+C72icvKIqYSZJG2qq/Un31E8SQAnQWVQftV8BB3brNwcqe+G1nYGBoYHhvLKR7IlLajb1MHGCDR16n3mKd20TH7qXg/i7IxFty/2FcZVQ+36wL1pHFVWdmXsOwvylMep1CYZvudYp2w20Q7lVx0gMKa5kxNJ0SvlAQgB9wIhy7Sn46lDihyILxIRISChAXhIusCkRvWCMROnEjH9QDkpYFPnvgRXuQlnZiSYGUGg176rQTEJ1/AFQQkw5QI7wNHR/x40hEdKDukxOUwK0RYX66baED124lOhKUc1CcnCaYR0puwuqqRaKqIk5lEdYSovvP2oCz1Oi/bPd1SNumfinSUnq0EkCa6sCqIZw/QkXal7XSTVmQFquorzV/7hNe+RGhU543cBS9ZsU3CyY26a0TYLIWEtGl/VkdRZp50hGipB+mLQOLFeCvGT+juv7ze2UeCwN2Yccc6TausdT19I43v0L3cZ4seHLIfZcrCpSJUuXWCR/7BGa3Dhgjo0Br8nYDK1WCJrkDe5SWRJDpC2YHCja4QfeJ2R2BfHZMBRmeEGGU5KS2h3Ub15o9pkdgvO0NdyjXf/AB5o4NIB7Ihb6wZnip86qmn4oEVXr7E8rogVA+f6tUuiEPe1Dvg5Us8PMNDH++9915M77CsjzDoA1jGxcMSr7zySuiClU09qe4A4dsFYSkDpMADJ7yxD5Kg7PKjLYrBdydp6pg6DLfyvgD7xNHJTxJh+No+0z2JO6LwEcZFuskv8iB9bUu/CEfb+Z/iQdb0bx5CevOtN+3K5StBakyH8YY76lBklaaTIu9r+XEKpVHXJ9lqvwp3xSmDumtsOUEyPcdVF+2PzpSR/rJ//wE7cPCAbdu+PR77B0xp4M+j62xzfTmmLrnSYEwJ3d4mXUnd0+b4s+XKpLvsA0VfuG3YhJv7p3FxUxpFmMI9eKYsL8cqezNZDtYJu00oP35BzMndaY6xANgnDI2hxo2O0Vssy6PxCQdJEodw6KQba8pD6KRh83B3HPuupxS76AWkM0QGeeGORcMnvp5//nl7/PHH4215kGWqbydQWSg74AbZxx9/bG+++WYIq1fwI10GK1umQDhZvPLqK/bM08/E0j4sftJCX9CJHpSLNsCi1tOBnDggbdLUlYTkDnJOyLPu58fsa+DKXWHukDKu/O6IU7qHnw96tkBhlU89TBKftsCq5v3en3/+eZSFMDycw41arOxOCLvKP4d0SMM2Slu4y993w63sizlhS1/aZLtfXVGW7duKJ3hpQ8oNlKb0T8H4HvTxFP3Kf4xXtqo/xqLImi0PquEu0o4wfvLDP6SCsG+HKwie/SgVZSvDxX4p6TFI9zvFOmGXUHpVQkeRuEu4+Sa25K/4alB1BvKD8HhsHSuBzsKNE4iKS3E6KeH0NF+kT9ollHYjdNrohCdNhP2i3m7P56ILX4uBsEXakMBqEDb7TIfwHgyIk3dhcExdkS7+bLEUecLt1VdfteeefS4eTdfSPwhb4doFZaVc9Ic//OEPcYMVHZhHJy3NkdfT9A37KdmmEkF8m9YjhC13SfhXpFGPIynJHhFE1hG24iRBWAiZPkQ56Ee4UU/6SC/+arM0bYGyqy5JsxUULk1L+1XpA9zv8PPdcGPHgf5MYeaETXtt3sLN823x4eHNm25/bR6dKRdI9SZeVxm339uUrUC9xbh08g0Szkg7tk7cELPGL6QtP+JBxKp/hVG6kHaRP+1V7pfbfB+k+51izRA2FQxxsE0bGqgTkE4qcpdf2lFoKNKjIzHog5h9i7WsYyQeSR4Zjkt/4mBlfvHFF/F+DeZTaTgsW9JRmYRWjdpJw6dh2VIG8mJgY2Fj7VA+rFumIvTyJXQTUXYKxakibIgTsknbgzDMR3JZD2H/iHdJHD4cOuDHHDHbdssMSJs86A/kyYniw48+tO8vfB/u+dUNfYaTcVpXKSJcnK39IPFSfOA1fTs+gcpw+KfpSnLU/SBr1z8kI39AfdB2tBvkwrwvU0hY2Oq3CpvGA3Vd3U313wyKn6ej/dRNyMNGVejYs4ewGQc5YdMunHR4eIYb0OnTrtI72tXdpDtb+hkP2dCeygd3CJzxxb5rFOnzpsiUtFNLu3DT1sM4YacWeCqkqfeNxFQYeXjekZdvm8ly0LqlHmJ4tZR7d0INn3YAtiIvCIqBS6XSCUS8zPPqjWtYfkwZ8KXw06dPx1TC008/HfO/slARSI9Le0gQixULlhtqDC46BIOK/MgbHdKGTHVsJp0ijYcOOpHhRvl1sw3LejnTEFUgPunrZEi5QXT0svMTRo/3qx2Ig/tK8w94EtIDIW8Gsk66sd9XHFMnQQAM5kyoK64E7hi0WMGQatnnlAf9iLJGubk55u2M6J0zulmZCvUeUituLHMFRHswfaWboprKIo8gFicgdOE4Vgn5NtUjl06Rxmm0X4Xl5AWIt+D1Q/n52Ed9SasbZtQN9cScNjciQ3xfdUu9EEZ9SMv58KNuaAtudMtN7YF7vHck5LaxRhuma7rzMulQ7nlfzcOvBI+0hY2/Kk/EJGJIwTENI5IirN6+x/uMscIkWC/psQQrAD/5a9BrUHOMntz4evvtt+2dd96xDz/8MCxbEQaiQdduI6O7pBXScNqq/lhBATFwQjp16lScbLBwOTlRH4TrRC+gsJQPMOfK+m/mr7GyyZM6hgQBA4g24C1+3HTkjX3ogtVIWiKodsoqoDfp0x+wrl97/TX74P0PwtqnnVirTjvFtIarWy9flsVdeRLWf3X3NG4CwhR/pV8WBPc74ilsFi4HcST0GQib/sPUG+XJgZ5V9YYbddQulE6aXrpfhbo/fwrn5WtmYWss9fff+f4VXgw16OWkTZWu6gA/wgLc4wTrx/jhnlva4V9a2hqjnLCx3Is4RTz8ZWVzrPSQSMvzipuPnLTdT24SkLvJvVM80sv65A+oMCqabQ7cSENnaQYvRMIND9YD85j00aNHQ7CquUxHcMcfgdi4SQK5QDhY41jRdDrSghwYSKRP5+RlRxAW+7iRvzqDgBtot3GXE05l50RFHaInulMe5pI5EaFTu2nnIB7lAtwcg7S56ccgJU/qBH/CMWDlxlUIQl2iA8AfdKKL8idd8mQqBPKmf0BwXDmx1YclYhAnAxldJAzo+rGHZzVCvFXR3XXCrZTy5J8Lfuk2lyp3pRnkUorc0CvqmupxcVooKsFBPVTVm9zarVOlI0ndWsFD3RGOEzCkrWV99EP86ZOUi/rnmHbHP8amH3N1w0kt3Fm2mpzcsIRxxwAjHea1STeOfZ8pCyHScqL1nXq+wRFlf4/4zgXa1w1FCe6S+mtYE7dWshw80lMinYAKpLGCnMofNz6OHTtWn9PVjbgzZ87YyZMng8CZ84WoIRYGP4OGhqODqJOpw+EGgUOGkBHEyEDDn87LAzHx9CLzqA51NBF3I+AvaYU8LOmneVB+BorIQGSbxlkOqF/yiUtZPzGwL/d6B/bkyYP6UJ2xXW7eikN7UA4RsE5A6IAukUfykBGXzfWHMVzCj33cEtHltcJF/ERc68g/LSOiAY8eWG5xgih105QM/SIna4QTKltZoPS5MAoGBuOEQ/ogrzMdp26gkXsV0jKkaCsN9/IQse0E1KP6A8I44RUL8aFknnyszUQ7APzpX5ouIewc7Usbum609YwbSPhL11RvtkXb355SqgJ+9b7RJJzQqN6Wg3XCdqjSRVaAxudGBDe8sDSxrPVRWKxoPfbNnXkGTEpuxKVziJwkuBOOuPv27ou0uAvO4KRjBmm7iNzRS9IKnYZV5yEfdCNP3Ch/Sgwc495Ous1AfPLQgKIupIcIzM+R4ZYOvJWStkD6IkKIkXwpO+krjyDhbJuSNW6pVLlJIo4L+7Qp89FY9fo4BRZ/PLnKSXru9lxqPa4I3+sEXdN6op+qr0roe/gRTiB+pFGiUf21U7fSIU0/Rav4oUf8NQ+XI9qIh2JcYt/riLqjLpFZ39f40vjRsUibfepVYUhDZS7e5ne3pOVpVOYfAmuKsNVIOeSuAcFAZFAxn0qnoKFxZ1DIOlMHuGOQuQh5I6sTMLggecj65KmTdvzY8Zg35tKagcs7ExjInOlJg/zIux2oHFWdLgXpSigDA4BycAypaT4+PQk1SqsZSA+gC+lDwEFU5SAiTcKIgLQeGXfC0gYaYKSBn9LsFMSDqDkRQdqUi3zUdjla5SU/DxXbnIgUnzbVUs7Ll4q36/GgC9My8S6Z6zdiaozpIl4xy7QeohuLWJMi+LTuIDB0l/7x5B5g06SpKLOkE6TxFDfdbxst9EtB2tx4xCqGfD23cFe5EeqCkyB1FfVFWL9Kjbjeb0Tas75d8PCpvpwUCcMNyHo9lv7N2h6ofdNwipvmsdpYM4RNY1OR2qYIdxcqH+JgDNIRGDQMLM0140aj0riyAHFD8gYHeaPiB/lCGJD0ieMnYoUJ8+FMqUAidKB4VwgdzPelW5puM6ThG8WTOzrTmckLHSEznm5EF04qsq6l/3JBPpANJ0Dd2FXZqA/mJCFr9rl/QD1S39Q/J0z0qypHuyA9ysAJiKuG9ESkdgMqp8rcqtzh3yBI+LnK9I1Y5VAScZBKaWlTFxzHyo/x2x9gjrAleetYBI7IkGDFRKTldUWfUZ22wnLrkniqqxSdpue9r2Uc1X2Mh9linNFWsrZj6sJ1wZ/+RD0gWNzSkW2Mz3KcEh8o7YhfnviYBuFYejXTj/hI9NcyLaD91G21seamRGgIfpxd47KzPFYDyNrjmMGBRcSKAgYMjQ7yhuoE5Edc5h6Z/z59qlgSyPJAiBKS5KVOGqB0QghLnYm4uQjso5skDZO6A9Jk4MeJyC0S3qvNQxc8DsySRaZ7CEtnbtZ5m4H41CWDamJyIqzIeGG9Exhpqq5Zvxri+8zpUlZuRnGyhKyod8Kn+ncK6oC61ZQIeZEmupFfWle4S9oGQcvgSoO6C8KYLfoNJwvaHeHkKCufMLRDkLcTd3wx3+sJCxzLnPeuhFwpLPOr1wrrHJFBQVxOvvTpKIcs/07L0QZILyU38usIbahDmrS16pK362Fp1zhBMSbKsuIXRO7tmPbVXCe5VwG/1J99yteo70f9dlrmVcKaI2ygBoqG8UZXBxIhMJDYMoggbFYXMDggT+IoHNJp49EREKw8CPrQ4UP22GOPhTBHrmVm6XpkWcHqlBKllZYnR5SxDIcQD4LQJTZpcrOKFTHocvTI0Vj1wgoXQHjQSRmlh+qI/LAYRTKqRxE2VrUeEokVAO4HUUNQkDx6okenda2w0oc6jxt05dw8oPyIwggcS9oFYSFKfkxRkG60m1txrDrhPd979+2NEzUnRW4+c6WlFUVMRekKgDaJuiEtT1dvfYw+MTNbTANMTEb9cHLD2uZ1ouRbr6NSdS9F/Fqh3bJ2Wi/LQdSdl1f9jy2WNjcZZ8qXm+EWhlc5BlRu9fMUzfoNfvJnG+Ur08zRKJ1wT9K5V1hzy/oqKzRzorGjM3ijAU0VMKAQBlQ0akWDtguRGTqlVp90lJ7ooYHKVgQjHRHpEj/fqsPGKgYXCIPBDPFDfpyISI+wOnFg4WPps/pFy/lUt0inIC4nPrZY8jzVyROevHebeVtA3hBUTE94cbl3QBnRH4FUsfq5yUsbaIpG7dIuFIc6ofycCLBcqQfqkkeVefk/7RHhyw5BPEkOueV+cfJxN8pCndMPeTcz9bl/3347fORwTIUxDabVQpC3lodS97hHuXfsjPea8wUeVizxcies85iDd50pD1MhtA/9B6EcstwRyhI6lWUS8nI12m8GpaHw6X4Vcn/6Y76sjzZAX0h5anoySNtjRTyVCfHUfIux5WUsT/YRl/Td20PFPuOJ+tAW4eVR6kuA9dOpf4RHyvEY47R8P7uO0/y0Bpt9RO7NZLlYO4RNo8Sjo9WVpQYGDG7SDGJ0wuOGIITBoGOqgAFzu+MsD8QlHzoAaUNcpCvrLzqN+0mPukVREo+E41TkThyIGuJQfKZaRIh0KqxNLDzWkz929jE7+9jZunVN/ispI3WJ/uTFJTsPNfGioi+/+DIGaJALlmR5ovJuXOjvliT6oic6cMWBUPfUDekSrl2oTQFlJm300TQCBI4766o1KNM47KfHVcjz8KKE/ljC9EPyxIo+dvxYTIGxLJQloZAzZE39Y3XL8sZd69B5TB/ypp20Mol+Qn1xQkB/8qduhgaHoq+q3gF+9P0crcrVzE9QGgqb7lch968i7Ojz/mMKjfl75pb7eouTqfoiabDPCg+gB1qUNmlRftLSlQpCGCQn7Lqfu2nsRTjf18udyB9RWrePS38Iu3QjXW1TAen+crBmCDusjNLSaFVhhAE0PKTHQIZYIA2sUQhWjQbIf7mNUDR60WGUB9b8lq1b4v0j5IU7Eo8f9xQ3RYsOe5vcwgKfy5YSlo8/Q4LqwAxsBj1WK+TAo/JaV84xZK3OrAHSKYgrYVAypYR1jVy4cCF00gmKcqtzoyNCuSgHbtz8RNCLLWUQGXUK8qJMkByi+wSclKMdvJ0pu9o1BbpUQX1F5aWPKQ/dI3D+CdI9dfJUEDUnRQictuWkidVM2bSN9uc9Gt5OCGQtwo6pKs8SvdGfqRHqBOub9PK2CwMl/u7UX+VpVC7QzA9EeUvRcbrNkYYFjSxs6qs2U7Pp2nTorfsajEX81F8UHgImDFC5C/fb6+41xoKIGUtlPYFo9+SJx3iqMcLfjqM0JKSvbTtkLQHaLgdrh7CzCtN+FcLfOzoDmXQ1L8jggrAhVaxDEQDSLL1mIC6dkUaGwBiwMUC374hByzH5hhU+VM5v0uF4u5jHqSPLXh2JLXqSNoNdNxaZq4akRdZYdeSnMi2XFIE6LIMQUqFNPv3003gXNXPYpE+ZKAurQ9Dda7xelxB21LvvU1Z0h+B0U3Y5uqGPBhggDXTD0oY4OKbNyU/652jUxriHQI4O9NcKEMrBNMXBAwejrjkpQsJRds8HnSiTBHdOZtSPyJxyi6zxZ+kn91bQnRMDOnOCp4+QJvUGQl+pHLuN9W+EVn6SHI3cUveGhO3QJ76c/kLvRSdrwlAEtSNpYeHG+7G9r6flph/r6VXCI7ghKWGnYXFT2CJ80TYQuN7klwo6SFLClqTH0ivdLgePHGHzft3PPrtN2FSaEJXng4ofl13Eq5II58LAYyDH3WgnbQYLb96TZcQxIM5KQX7RcbwzpYMWwmagMsi38bpJBu+27YXF5VsevNGA1hbrGWLmCUxEl9dccvPk5vETx8Oy1mU5cTgJkT96rISsAZ2ZOqENmLvmDX28BxtLG4uTfCgbZWUAYjUJ5E9cTQFxTDjKD2lTN8SnXdP2agXCoJe2AKKAMNAJ8uBKRGmxJY98EOYS/t6n4sTjoB9i9fKiIrboS3twjwDCpj04AUl/QWkhIgQEwiA86VAf9HEe7eedNDr50VewsNP+SHoBbdBXBwlUjhRyy92bIQ3bKK7c5deMsJmbRzY4EfeU7YU/+z2JsVKk5f3Af+zjzlZjqRlhh3t5VcU9AfnXw+k1rKXFnYryiUfSsbB9P81f+7d1vHu7HDySFvbnn31WJ2yhuGwpKpLG5S8XPXzgoWJLukBPtNEANKysVQaKGoiwyEoag/iQJVs6RX16xEVEzICHZDX/qXlP3bTiWO8+gZwR9lmBIrI+dvRY3Pzau2dvWHB0Sum9UrImHXSnvri5xwn0408+Lm42ukUIsDi5WmBQRL0ndaf6pD0ZxCJt6pt6iCsNr3flAaR7M6RhGMjExzqln0DYkIbWMnOCxr/ZnLYkJUT6CemxNA8Lm7rkJEq9s96edqAMhEV3JAyCUtT+uRs6sE/9QdacALkfgM6QNP1E0yGEF3L91K9ThDvhSug4dWsXitMofu7eDmEzbvuS/lmQaUG2QHXmO/UbhaTBthFh1+eqnYhF1vLXy5/qYV2qXq2qfiHC5liickrnRtvl4KEm7LRS5v3yiUvc3MKuVxIVW1ZmSyRBiKOpkRhA/qMReYsfxE2n4BhosKykQQTypTNFp3MhLwYmFndY26U1rflNyFyEzioDyDtuWpXHWNwIKw+wVDeNbIo06XxCOtiXg7Q9ICymQD755BP7k7cHL11iAJJnvPfCy0RHzyF9RGjUO3pB0rqy0dUA6LSuCa9BJ0IkH1n0IW5ps9UJQxLE4Ig43id0IkdHHj1nfTlkrb5HW3GiZPUNpE39Uw7l2y7oC+inewGQNS/RQj9OuBuHy+klD0e6SNoW9Gc/ur1NcEc4R3qcujeD4uTxGsWXe7uEzfSf4hQkevuY7R1v1fMtbjF+kjlsjou4RTiFjbjlcYw1J/jibX0F6ROmO7OwSauQklOQMk+2qUhH7YN0v1M8tISdVgYNvbBQWNi8rvHLL7+ITiCowiQtUY6laBTvMFjesvjoRPjTwAwSCIRBmKfbVj5NQJkY2CIK0iNP8iJP3aCS5YlAxAhEjrAPueNHOIiO+HRC0hcRsY8sF8RFPzozYCDyQAfz1rxO9dvz38bAxF8nOnXuNF+O03rDjxun1LvSp+y6/E/TkA7tQOEYoJwEpDftzGPK6A8BI7Q7onZQm6ATc6zc6MVCp+8hKVlz5cP6+ieeeCJOoOhOXqQB0COVHJQPkB/9matHToBssbZpR81d5zfd7kpTu751n/KgIpwjb5NWUBpVYRvFx30lhK1wHA8O8kbEwfp9HcKypY/ULeyIdydhE16EnZI1frhHPK6yfEt6HLMt9sut+ze64QjSbeq+XDxSUyJh1Tlhf/XVl9ERUhBOldkuIqz/MZDJg07FAI0B5+4MEhF2NG7ZoKsF8kSkO+mr06njaUuHo4NChtriVu+cZViVX+RD+itF2kkZhJoK4SOxTIWw5hnSQR/qi0vQhDPqUBog6tF3qe9Y6rfoA9rbgXJx4lH5qJOUANuB8lGdpVu1XxA09y68ftinf2HlIkHo5UoTbo5BLOiJvvQFrn6YluJmLu/zxsrmpImuQHXeSl+F54RAnTIVAmHz5C36kBfpxgkwu1qJMqKQsii3dfcS0iHXJcKV0gnS8I3iy311CLt4DzZhNP40HqLfu3vsuxCXMHeMCe+LadhiOqQka8QJub7vQvpIWOAZWUukG5Cb9leKR4awWZPJI6us9+WycWJivAxxu9JSaRs+tgivRtBSOQYuRMFgQRg8iNJGp3YHZiNU6SqilZXHNsilJF8k9U9F4RS2Kv1OoDToyID0efKOS3YsayxslvFBbAwW6glipKPrKqZR/jE4uLrxPJh+EFHixgCjrrFiGWiUp5NypGVHL04iXImQHumSfjpAKRf5Uw7IM25SzhQkTV+gLMzLk8a+/fviBiOWNfPW3FPAnXzIFwGt9JVulI0TnlbacLMRgkNHTlxxD8Iv/StRZhF5Jfv8qpDqFOFK6QRVaeSQ+2oQNm0UxOvGE2HY5yO8WN26WciHC2jXbo9DPNL4/7d3rt+SFNeVL2kGEN3QgARIIAuMZ76O/M97PtieWWs8tmaN9MESaFky8hjJkiWwLfNQ083LiDm/HbGzTp0bmZV1b917q1rs29ERceLEO2LnqcjMKggci9pkjZ7OtCPe6ghH/vC9FrKjHFw+Dplkva1z/lXwyBA2YAH8+je/3rwlwr6/Q0x5IMEhg4eu9bH0cLyEwkZuV9lmrXniXdchdayBN/zI1XT3vbpjgv55kUJcPLXAuTWWNU+FcM7KPJCuRxKD1Nh88EW0phfCv91xcrmMqxCqJmz6oPJiA0JWjDubC9mhoB7ychHhWGG68EZbcRAiDkL3hRmHLnU/fe9pHTVx9PTNb31T5My3L+YncCBr2khda+cAXRzgiAUjBOsaQ4RzbNad20Z7WHNzmMrqQ6l4GW+Q6wSOZ9k+WDf7o/yWH4Ow8SFZ9iFh0vnBCL9A5Pn9WriWl0f42qcpZLLO+76lnkzYyKqjjnx2LT/a1uS7+z6HQQ5fFmdL2HnhMxAMFpP+Tizon//irbD0Ppgsyjxw5BsNHLJa5ggsIAgEgsLxgL+JhDxMvqzIPrmANoC5MteC/HOuYqSDOwbcV/eR/nF+C6FgWfPTZ1iEyIBJDotGT+rMEMYEgj3qjcBcMr/+dMM4+zgKn7jHeS2oM885ZUCC/PArxxrffLE9GsnNQm7c+gYuRAw5//Gr7ZeH9ETOf/0vsqw5BuEIhBvBOv6JjQ+oJ9c1gsfVeVhX3AvgWIkLIMTNG4A8M8yr6nfuti+Qqv3IIE1j28dT8Znxl16H41m2BjnPXH7Lj0HYfg7ba5F0vwRjZ2NKxB3rhfXIWsSAQEaYOtr5dSNrrGvOrlt9lbzbcYh/mQZH3Q7bgRq/Ks6asPMgMGDceGRR/8P/+4fN+++9p81twjZGA5dludyqSxyHDuVSPh+TWXgsOFncfZK9gJzH7lGA+8U4QJ4cgzDuWNY4yJqP8YyRrNKweHwRm0UMTYxQjzRQB3WxOSiL8dVGjvFGTtkibJ6SeLw9g+x2HQLrs6l9ccGCxnrGQoa8/TQODuL2Y5R2kLhJHYubcvI4rQG6OMaJtcUYchOdc2s/FsknEy4E041XDIgFuEwPLWOseIFl2bdbg6pfwxmOs3YuEHb0B18vzkT6PsLWGTZWcT8SYez8EgzONxv5bUeI3WStl2oiLjKP8tBzHuWLcnCZrLUWE1l7fpccsH8MnPWRCBObB+PT2Mws8Dd/9ubm3VjslbA9iHYZxPPGqulGzo++v8+BG544Fhl1MtFsqDz5Rq4HzNV1KnB7aWdbtK0v9JVjECxriBrLmpuNEAvkSv8hFzaFFjesMdPVOeKpm0JWdlyYGWPaxfj6yRPqY9yR1zFeC9dDHykTi9vE7adw8mOUhJGhQ19pA/ndhjXtQIc89BVH3I+oMq6+F0DfdTHpX1mgvvY/8o/g/lwYd4l2hS4jl+X2z5UPXEfWqfqj/OwbCJt9w17VOMQnMHy/6bhE2OhB2JxRsw7QYd70OF+Qsved8ki+JWkRdeQhDQLGzy/KQMjOn53niLqyqzJQ/WPg7M+wDQYFC5szvl/EQn///fdEKBCHB9N6dofCeTxpgPNsrD7OGnmzjTptLeQ6HHbddqeO2l76Rf+winhyAWsaUvHjZliFpLPwsX4hPTZAcMqEYb9DFDX0SEOu13OoewhRPo5NzoY2UVMnm8p5LwP6B6iP8iibPuhsOxxECTH7bJu4rLYgANoAWHOU47L2IfeRvBAYr55zDOKjEMab9vBUiC+COuOnCro6GD/gslukeQDd0Rjt6AccH+kaI51ROMsYGwibT2fZwkYHnz2VCdtkKUu4Ezayx/WsdTqHDl8X7y6bHtnDxVwia3nafJHHa0f6EdbNxpBnR32js+vskAHCI/8YOHvCxtLCMajsD766k8WOheIrdxvsdkUGHuDLIE8CjgUVIW006vJbc3YsSi/EujA86aS7bcB13AbyGNE+txkfGccRvrkImXBmDVkTx1piHNgMkJuJNPeHsZI/08cluTZENI82ssF5UsPPQhN3e02gHtfcp0NBXq+xWl5Oy24tyE+bsmP9YE1zk5ELIU+FcG7N+uaY5tlnntXZq8aCMrp1LdfHdohIUnpXmdN3WcZUdpJVVH37NV+Os04wckaEzRjqccnPPpH1C0FPhNvJus3z9qYhThfVO2Ek9F+yJ421cEfydmGFyHeeyY7ymuW93Ze8KOP0TNp69jr2O/Xj3B+c48Ayh4+JR4KwmWgGlMHR1zLype6/+yDI+93pvJM0b7Q8oJeB81Ku66VskUjUxwLkgoGDsCFyFijI9ZKntsnuplHrz21gjPnkwAUQq5pjJwiFIxB8ngaBrNEzWeM8NhVReiOLUTcl3k1gjDSH3LDsbWM8GWscJEf7AHq2nly38xwK6qWe7DxnVU7fcYfA7cJRBgTG+HJezUXwH9/6R8UBFj2PHWJd0zf98EbHVM5wQBuUGjpWmeIFLstwfKQ7gvVqnmmd908F7BX6y/EZ+4X+K0/8oSsLO+ZUFjbPSgf5imz7muIohBuIHH0w55At90r8Fq0ta54E8WN9OrsOYm7PWjdDRJZ4JuxuXY/ImouHH+PDmVeqUz9T+Jg4S8L25AOHGVTCTDK/68ZPLP1LWNqQDMiDh95oQJG7vH2D7XSXw+Th2LQsPkiEuiEyHE9MEDe5mMRNMCYZ+uFybwK57dTthYzc/cAK4kucsKIhE4gaQuGMlacYsIZYzLJmwpKhL5Q11wfk2rgDKC3+KiQPZwsHHeaKjU/9/FgtBACBA48rbaI/xIHn97Jwn+xXzMkraI/nmzUDaXH04bdDeZYdsuYICJLmKGTuqRDicgvjhmuC5k2IeM63oxu4kH8BI70cp8/MHxcb1j/zhWHFUaJeUoLJA6w7CBsdvvyJ7xJ5LMjWfQeMm58OQYbvG4mEcVrLfT1rj0UZ+QmSFucsu+nMnV2r3d3l566z73Zl3+Fj4uwIu264SrDaxDHh+qKcf/7V5n4QJbKRXh5U61S9NWDSmFiXx4KDSCA7rGwIzxY3G5OFShrkgq7rspWGzO24buT+u363nTHkrTqIhPNpSASLGtKGvEnn4sPGsFXNR1GPxRycNtJBxt8FdNE01t3a5qUaxlHf5RFjyyca2g/0sTg2pOu5zJiqPcll1LSanlHTHWf8WBfce4GsOQZhnLlAQlhccLihiXUNwQATm+Gy+Ktw2oSiUvNVfcezbA779JQe88Y80G8RdhgzELbmJrJqHQZ526iBRJ8QqQZhQ6gx/ziRcchtETPPzDdHHKS1R/Qg5U7WpFunp2WnPL2s7Fp9nZh73e6nXZa5n9k/Js6KsL3hsm/nuAdO56z/1J4FhoRyWkbOa6BD3M6yESx32dkByJfFZ/KmXfoh1f7jqba+IRsc57IQDvV6YeJvF09zNT7n8uLLeRwGjA+kR/3Zmub8FILGmoZMeBoE8uZHYHn+HLBB9EsnQSy01f02atyIEWp+1Ueuf0XuMe1phN0Xwu4D42zHhseRho42eWxO53NeXJ5/UOOXgcsejTtzzCcuLoh8UuF+wE9++pPNL37evieEdCxqP33iC89oPboe/iqsN+lP3jiPyxphTm6M8jpOuyFr+s58sCfoP7/1CXGrXz0rX6rFpybGgKOKp+48pYsVeZlD3TTkYhwyxgVDwS/L+Owa/8lYk37umqMPP3ctgg5ybscmW8KuX/K0dTF3e86u3c/qHxtfefDw46uvzBuAF2reSISZfJzBAH/00cPND37wg81//7M/C4vl70SU7ePVdmC1gFYOqvOt0bcObTJZ4wMvOBYNG5FHwuoXNSHHcYPJb7KZZNyGuUUC8vgYWebx8tgxLlilbBrGCbLwRQUy4WM5TpZQkCCbiPraxtl+B4d+CSeqyXW5rXOY+jAYVqWlBMXTMYrTGVv6QNv4tjw2O23i2elXXn1FL7a8+sqr+uZCxtlvR9Iu1grleCzWwP1Tu1fAcwVcD2PIWPvTCxY1n2B4S5dxpl+QEOuA719nrNeMxVKbpEN6V5nTn/QKLB+lGaTV+bY+fdeYxzphvug/a4z7H++/9750AHrsmfsP7utYhEc2n33mORkG4IknHhcJE2f+2B+Mkc+usbqRcXZ9Jy50+eyafMSVd1q/WO9B2l22JW+fY0eb+9m159L+yAH714FHjrCZBCb8jddf3/zFX/z55o033giL8R0REmCwcxkZSwNdJ2UOOZ12QSg4wtTrummnXn+OBanXnMPxsffeM+GevieyxnEmLAuiE7cXlH2cFxBwPR6XXC9hxgYHSUNy9hkfn7ljZUPc+Mh845QyWMhuh84D+8Zx/e4fsAw/j4sxyS8mtbSUkPWcz+nuF1a/2vrpZ2of5778iO1L3+o/avviiyJynMgwxpexdfurMzx+diCnj/LksceHpP0phguiyRoHaUFe/CQWwKL2s9ZcfCjX9QLVlQgbSMZfakOG0p0WHroKDvQty2nOP9I3cr4cBrSfH3nAsoWIGQMMgXfefkefMFnDOI9Ts7A/j7HgufN7IlbWum8+es0zPnxFQCZsZFjXELbGMPQ535alHWk+u5alTp5O1t5XW7Ju1nUlbFwOgxq+LpwtYdv3xjCYACad78T+P9/73uZHr/9o87P4OA/5AAaavLg6sPsG2pOyZkKyTm6z20sbOX+lPSwYFpI+1sWigkRYgIRZcJA5mxg5etWZtCk/XyBUR7pYELc1zSbByiGMjE3iIwVk+MQB5Xsx27GYqbNiNDbI5nSlPxhOpQ0SIKpch/ViRtVPWdr3PxSBo8tmhZghaL/0wtee8mYiFjekLqsr+rTdpNsjDOB5y/M4tb0DXcc91rSBCx3j6DGHqCHoTNTI0WcumWc/DUI7RlDdhbCB28RfhdMm9OBafcezbA7oeOysz5hA2PSJOWIccL/9t9/KKPC4ex1yH+qrkVdWceyFO/oumvaWInoulz3Cm67VwoaweZSP/cNjfbLK+9p94om2z6bjEI5C+hq3a+1p7f1qEHbzt31yH90O4HCWHRtnRdh5w9jHeTPhGFjinMO++ebfb374t3+7+f73/682CMiDiX4d3KXBHk3InP5I123E+Xuep1+5CT0+LrIIdL7WFw6bGEJh4bEgcci9+HB5AZugq4ta5WN9mrRNypBKJXmPDWW7nu1C3iVrdA3y5D4D4lnfmHR31YVIkVx+gvLk4wD+XE7AxyPuF30ijfYzjpAhRI3F/cKL7WfWIO18/FT7S9u9OV2P4fkE1MXYmaQZZyxqPrXkoyYsS14wQo4eYF4haV+YqZ+uax72jAGQrI/FCKO2U+woj+NZ7vxVdwR08nw7j2QR5ILKTVYImzFgnDBaSNN383z8icZdBBwEzTxA2BAwepSDjHTOpW3cZLL22TXn2twL8NyytyB+PcPNXhqQNa6t82Zd73sNHVT/unC2hF2dN4vSI/xxbITf/vbfNj/84Q83//N//KXOCdkc3sA45zVGg+700US4nFFaRdZls0HUJkm3PzvDixNH2Aun+kbuk/zUNNejL+oPYla4y9w218FixpmwnA5yfSNkXUCYMiomvYXipJMUFF+wLn2ObguXOcfXxTHktMOW7HNff67dQwjS5v4BMtLc9xzGeSNTD2V57HCUb6LmggEJYTlC1JA0BI3jUw3p6APKhVBM1MRdvqG+LYyB0/HnIJ2aHtGaz+Gq6/xVPgI6eb5zPsbq/Q/e149a+BiI+w7c1Pv8i/YsOmPIWNy989Q03hCsCRsZBCwiHtxo9EsyWOM+89ZFsB99MMbINaedsPMFuvljsibsvrlP1b9OnAVhe3M4bN+E4/DvIcAv/Fhc+66Cn/3szc1f//X/3vzk736yefudtzcPYxMBBt15M+YGfUme05YmjTRPPnD9/LX2bwk798115HxLsJ7hzR0l8F/zifcyvQgJs2C9aFnEtb2glp/htKxDmHIuIFSmNg3KJK3Kic8RNpve+rTVJAph80Ykvyaji2SsETYj1tndO+01cxwbnj6zkfGJy0rrDrkJhPI9R9mqhnBMOrawIWnI20RNfspR+U+2Yy/K93hTpsca1HEgvEPYTte/rTzD+XM51r9QdtbpsHyUVoFOnm+vIfrEXPz7u/+++dUvfzV9jQFy0hlHfryY82vO8J+592yMeSNoWc9Bzo1sIegWh4j9YgxkrWOT0JFefzKENHT9wkw+u/bjf8hN2NNRCE+G4Pf2u18Og+pfN06esL1w6yKupKZ4TDjnwvyYAQOI7J0gaZ5t5ebjG6//SK+tg9HGqBhNwtLEkGY3h5w26cfm4y9aM7XHffKv3WTkdte0qczuDMe14Hp9hNsCbSTkxbgElzPSW5JT9hymfCmrZFnQIfkMYe/kUXHbMWUsIVW5/sMD7cLexm/KH04E0TeyyVokEZvcY6Uyedmjf1IyYdu6hphy+R5rXwjk+sdy5JADuvy5HYbi7ldA8TVjMIB1rCJt4h1TeoHlo7QKdPJ8E8ZBzg8ePtC5NT8m7PtKLpOLqgj704839566p6dDnopPHljPWMKMHeSLZQ3Zko+5ucsFl08oceFjXJGj758Oy4Ttl2TkogwuBDZOmAfeoKStGpc+Z4pHmdWBHL4JnDRhe7FnvzqTtgg7yJo7y2wUDyI3dN5++zebH//4x5vv/c3f6Pce/XHUIP8c6mTsmxxP4F49LYiu2/0LiGa5nxkjmTGq33EtvFRXhIYL0mBMRxjpAsdHcuqYRajX8iLW5PyXIB3LU5LqCNIzXJ71GS/6Y6tbpM19hG5129LzuNLetoG355oeJ6GXCSBtyjZxZ6uRMkQOYdXpaQUsvyAVv3FHOn2JmtvFeSVhE5VsK1a85q2Y0ruK4rmQwFwZlo/SMkjP800Yx4Xs3ffa0yH/+i//qk8fLo/xYz70dMjn/7G587U7QcI82npXpAsBU4bO+UPGcQf5GEsI+26QNU+FEGcdMF/Tpxcsc8ZcRN0Ju1vXzIfnt813u3hG4Sp/bn9k3+GbwMkS9rQZis/EEnacTSJiiTgWD4TNprEe4QcPPty8+fdvbv7qr/7X5qc//YkWCnLgwXZ5Wrs9aMSUNHnC0iR5EtfoOHwBIWoLp8cDypMEuYyMKiPuTWN4fID1rYePm8ZkAOvgMhzPcsK57gsI1WFZSuh+xkDf8R3dmrcH6VdeRz6K0i+hh6+0/slm0ulydEOyvdiGY548voqHLxKAHCCGTgZ+SkIk3fNWWJbTpJv70SF5srSlhSzlrZjSu4rzVMyVY/kozSAtz7fDHA1xLImFjSHFpxCX432ssmOc/vNX25hxs9GEzThiLfPctSzmiGMhy+rGBWHr6EqP7W0/HaGLHmRNHh2HoBOErXnq82PrmqdC3IfqA7e5+jeBsyLsvHksa5uoffTMhD0ReQCL55e//KfND77/fb1Iw8cxFsxooNmMPbCDqrtvkjzJcyBtsYxIggh2LOKUJ0K78e5nMCaANJMEqOOY0Rbs/rbbH+lVueMjXSHESlegyzomeYLK6XkMaVnOfxUhcr9yPiGGyeMBadtizs7rCR9d5sXlMU8mYjuTAU/+6OZV6KptqX5b1IbTnG5INujTpNuTrFfzZ0x5FOFfyy8/YUevYM36yI7xYk/ylMxvfv0bfc8P1jbjaR2Nz5TXRxHNguYxPEgWh9XMfQeIGBIm3WfXWNM6t34Cwu5vQHbrmnNrEXyyrithzz1z7fY57HZm/6Zw0oSNy/CmwjldYWT9ZiPn1xC0nfOxWH7+1luysF9/4/XNPwdp1/KByo2/nYnoajFd/DdEnbi1i3oJSo9/02IZ1C/pnrKcvqMTfcpkYVDXUtuHZRWM0g/Kl1QkSwKnj8qRXk/LeYSIjvrluPW9JpA7jO+4ZairFuoauGnOulOW7k+o0aJvSFaVA5NuT7JezZ8x5TFKXuOCXsLS+jBIb6T7VVnSPL7HUyH+6uM8zuhBtli93AfguOrxJx4TCYtkg2B9dg0BQ9Kjp0Iga5FwWNKk2bpuNyI7QZenQraEvUvWdf6yc7sdvklsP7ecOLxZpg0TqGGimcxxxCFyrro8e/vHr72m3+Lj55xYBM5rMAk6isjo8xIltsAKuP4lrErnX9ejfpdrx4VKN7+KfK9b6MsxFiJ1ZLjeJbRWLess4TJ5pzZFlzX3bNZ+dKEjjdjYzcprTxtALHJPtjdQ7UQYodM+brez6UpsHgO5Q9oaqqv1Lzt1a4s/cG3QV6xpPtHiIGT2pOH9CbCoIc7HHm9HHXosL0hYxBuWtZ+3hqzx6/PWIuVwtsZtSfupDz+m57nZR8zVnQLOgrDzQjeyzIRVyRqwGP4jPo4R52YFb7j9t+9+d/PdP/3TzfMvvHBhU02oC7irqNwVi7u2o2Jf+qnCbfZYj2D5dfRNZfJvruxLVElZOF/8RCKcZ6fHLNunt3YsYn3lSWmj9OyMQwkgcrc+X6ZzSziQgzK5LQE9SBHw5IefR8eyrveOdKORxx8ffLj56KOPlRcShnCxfCFj9i0XSJFwOJM1lrWPQTiftuU8EXgQ+9aC3iVpO9rBhULt6X1z2xzO8ezfBs7Owr6ALssbY2fTRJi7zsgY6Dt37upHU1977U82L7/0sl5ZZkKtb2ii6oru0dBsgT2Y2pDKrdiXDi6045axr71gjc4qDIpR2XPFX3KoPA92rJdM4GtcLSO7CZdtHx2e67NB+j4d45Lt2EdW2jddB7LmrUa+89ovDDFOUxnhQaR8kuHcmqe8sIBtWesTS3wy3obbJxh+n5E9O1nRESYfPoSNDGInzo3EbF3Pkjb3i1LbHc7xkX/TODnCrgt8FJ9DHkTnsz7n2Q8ePNSPGzChvNn2bX7x+jvf0evK5MVdKL9W16uQXkrLdWVYPkoz9qX/ISNGpo3PhYnYRczedtN5kq6KA6bE6we3iChTfVko+7LrQaMU+fSJc6mCS0Jl9wvTCPTdBMinjQcftl8o4gWZepMRQKL8+vvzz78Q/r32JmMQLkSLlcyZNaSMPqQLafODBM5vEKdeE7YIPOIchTR/exSicMi2rq+bHnf77EaYk98ETtbCrouCuGXjtK2OXV5cv//9F5vP+htvyFgQfHvbd/7oO/r2tifjI9fcJIW0hzp6NGppgT1wey4D6tDfnvyXLf+mcZl20v+96HNyYa6ugihqbXlLG/wCojur+rQGpUqVS9H7ir9E9UvrOPe/PUr7QC/GcLMfK9tHIcC6kOtdvq1S30x4tx1jYF0HMesZar5nPWTo6fs+gmyb1dws6ol0g5gnsu43FU3OcnFhIH1HFi7/MIHblN0p4myORAwvGjtZE/hBznNXf8s1aTF5XP2JY1l/66WXNi+9/LLIm4fymcAMT56uwv1PdcR8Iic8qvNoiKL1+Fd/LngEtYG/pfRwc+NzU3A7rqMNKndhDA4Bc2xr/dpAM29hKqY5uELl5M9ryXsEx97i+IMvX8O6JsyNxqwLWbLXngqi5jjExMv+1I3dsKz97XtY3bwYg4FlHb+KzlFJ/tpUkXWU3ci7ETufpiuBiwf6jUjPs4g79cPI8Sy/LZwdYRtaACw8LZ6+CLvL8Bkk8MTpWdvQY9K//txzOst++dvf3rzwwov6TgkWiol7NEkxhfKvsugPgfrYL0xzUN8X2rOUt+IQ3UOhdnZ3bKjc/jfE2ir7lHuerwUUfYTiLzOOyrMi21zZWe79wR7DiuZ7VLCseYQPPz8Vgq7C4T/O0x9hRUOylMd+Y9/xur5/wSg/DcLPe0G0PPWhJ3OC0NGFqOUgb3R0JNIt8ZG1DUlHXfLTUYjbV12WO3ybOCnCXrNAllD1uOGILMsZcCbKk8bV+hvPP7959ZVXNq/9yWubV159VUckPjvL+fOk8ZcXvXVyXUfFymJnySqwpm3osKm8yW4UNC+c2rm/qYehl0u/9o0D6frbo3fb8DhdRztd5qhsrf9wJj90eNYagtZ3XAdZ8zYxMtKsTxhS5zlrwD50OqRry5qwn7PmGIQ6IOBsWUPWtqz9+F57kaY9VmmyFnEn0qYsPRXC/u3tAtl3GMyFbwsnQ9ijhYFsJJ9DHlDnHeVHz1dVfD6ecePj2y9/W2faL774TT09wrk2k7120lzXIW1ejZVrRQtxBmsWXB63a+nHHkx1w0RHxtSnFUW7DdfRjmNi6s81NFNlJx+whuyQczOfG4ocfXBe7e+4rpa1dPvTWpuv8L31zWBif0GwPrOGkPUMNi7kJtlqWcsah9SDvE3K+Vv4TNYmapeT259dRZWNdG4DJ2VhG3mBVJBmdyicx4NPPFuTXMH5VRJeqvmjIG5etOHXXlhQo3o92XkynZ71jDXW3Ryilh66COrfd+Y6ausI1vHinoPHwm6EfemzuNwQrcMVys79qX0ifpX5NZx/3zwdBSuamtuTiQ85pMzLMH6DkadBsmXtfBzn+aYjR45ff+4bsa/u6Wxav7vI94XwRmK3rCFd6iFvI/PtN+5dsKwh5tCpX+pksqatW0cfwu9HIZRfXYbjVX6bODnC9kTbH2EpbQ6jSTFZ+5vbmFRucvCl9jzy13649QWRNguEvOjkslyefZD7UMNZljEnN6a0kUqXRWtaYIDc1iWg4z7uw742g7n0xfL3V315XLHsuT6vGYt9OEYZx0adJ9rHjUW+VY+vQuW7rbGqucGIZQ1Z2wAy6RLnvhEkyidXjhz57VK+EpVv2avfDcIP6PL4HuswW9bcYKyWdT72wPnxPaX1sNczfn0eG/nIGTl8CjiZ7xLxQh352dmK0aIIn4XA94ewiPh4hhyn7xLhvCyImKs78c8+a1+tmeU4ns3+NEhbb7f1vJ+G9fBBWA/vxoLkLa0P3udXwx9OefgYSDuMHAae6Drh+xYDspEcTN8QB+skFUlKuTtloN7z7cgTnMfOGMkMy3L6nF6WD3UjGFpx7fliaudOeodk/Etl8DdBySme4DJdxhyUv5fjeoydMgZADhGM4DyTH/M5wmIZqW0TiEcelwsUb4rNL9jR7zo7eXo6zvuNPab9EnuDl2Duf3hfRyH+wQbSlZ8iIx8WLzcXY3foOORrQbr+AWSsZUgV0FeTNd+6h5UNKKPJ7siyJtyOSto5tcka69pyCN5EvesaWc89b41znTV+Sjg7wsaxeBRmESXCtpsIO9zn+LFYWGj+Jj/IOBM2eSDxTz7ZPqcNIOWPYjHysQ/rgddnHz54GB/77uujH+kGdWbkSa+g/Lk055tLb/tpIT2Qv0kuw/lGeS2/kCfiLHh8jwuo+tXPQDZHQGAqp2eN2Gw56DjNelV3lBdMF7yZdMM6/GVM8oX8o3HPmPLzb0bPOovpqW2TblG33qicmifrOQ3n/YblDEn7F3V4zhqHpW2ijh3ZyohlwprhHtDTTz8VpPqY0iBUfuFcBBzki6UbFcgnnr/IyfVzxJGPQUTKWM8iao4++veNhx6kT5g5OJSsce77yD8VnK2FLZcIG3kmbRO2f4WGcCPo8GPxKRykLVIPnUbkTe5HAS3HAv+ok/eHsUh/97sPZHFD3Mi5AFTCzmDSaW/G3EJAT2kleVpAPWFpIZE2lVFmdyqn5J/ydLgduDkSqnnAUMYFpJ+xx6x1achTX5RH/5LfoXT+sEhHaRAxf5SR4LjLvnDOj9g6irS4HBFDSU2uaNcZYS1hS6erVX3HpWclUPSVmnSVzvBaz+n614WBnTwB5oQwf95b2lfdwPnk0082H3+Ufrg54uwVW9Xkb+fCrQys3fYlWXfb24pBshCnvpgpwhAv5ArxUpfIPQjZZ9Ucd0ykG4SMPk5WebegJ6KGtPsTIYQbQW+dzq3TMYj6GY4wcBznuJHDp4KzJGyTdvw3EbbTTNR2+upV5N3K9rGILG/cZH1338cmIddiTPVihbNosa45LnnvvXc37+tLbT6M/M1ad5tBnnDyg7w4KlQXmyf++DcCG2MtKIt/FXP1j+Ru71yeCutlfTaHNkgpgn7Wsq1HGmBMSJ/KKHBaLcfx6gyF+dflJnNb4RUed6fNtSU7r4MMXbxSXutmTGX0MRBSWw3Co/Wwo7dTBIV0v8NrxL73CoTML5h/9LBZ1YSR8QkUHV7kUv4+PxRJWyBN7vk889yzsqSJQ9ImU3QhXZF2J2yIG7KG5K3LCzXtuKORMnKOSpTWn7OeexrEzm8y8oMExD0ueb3gQPVPFY8cYWfrmrB+mBd5sbIJkybdicwbcZu0XSew1Y3847AyHkDc9+/rfPvhwwcqk4+Nn8RHRNdBnfoU0OthU+TNUkH6Gnzli62lurTA3PYRRvlG9dNe6VZ1VJENqsiLX30Of0RwgLQ8Jor3/Bkiuk6qGda3HJ95ynKl6d82r2Tdry6pNRl/yHvcfnaeW8Uh/fgzkBmEeZVasj6GIt2uMpXRnWTJ9wVFf1VH/7Zyp9G2C2sholrTHCd2a9p7Ab+t5U/kRNQRR669R+b4Z+KDMDmr5tdhePqDJ0H4hj0sZYgSgvb80w5IF4saH2D9+saivx61EXOQcVjP8iPe5D2OPGSZoLObyDrGtlrXOMcNh7PsFPHInGFbDjmaIEXY6Hb51ppO6V13m9YWLBZ4K7P/+nZY0JQF8HEcrUDcLGrKwecmzP37fO8vi7wteId1Pt4tE5AXCXUdE5cqb7BWY3kP5Sp/qYqe5zIbQXVmpChptawcp12572vr30mPoOuxM3Jc4USgNd+k08NAJJLJIrx6IbKOEGKXob/wZ8voFwrrOJ3x0JoNgm6CRtbaE904MTkT9r7JR4Oea8qMEZ7ikCNn1c88+8zm+W88ryessIQn4kxt8LxAvJxV4wPa6pdhfPwh65n84UTQ4TJZr7KsNSZtrDwe2YE5/1RxloSNYyHpuKMvPIhVi6wvsGnR9biIuVsPIuQg+eZvSdtn2s7nvCxqLAxZzFE3YGJJN8nTFsIQOGfdn4Q+Z9v+WMmvRWOZk8dwWUB1haMcsGbhuI+5HKO2k/hIz/VEqvx9gBCky79BeTuIotHn377iD6lffrR7rv6lfl5AqNa63Wbl0b9t3p1yIpiJEchaTiAtpxOuearOKN3tsC46hmUjBxgP1sBE2AHFw9myNml7TY1AeRCiiDJc1BDk+vjm3r1n9P4C7ul793aOOtCPjDvrGstYj/EFKU9lBhmbrDn+sPXcymhvOsqVNxgZBxy6zXWijnLzTUb7OLcjh7N/yjh7wlZYpN2JOWQjJ3LGySK3Fd4Wq/Ip3ixtygSKd0deHv3zGV5GbpfLIkw+bko++PBDnXvjvGlIR8+gLZB7ls2BhUX+9rF1+/qvQTxDllKUS9sqPD7G0qJ1Wi2/wunXuQH2teFYUB8WulH7qLlYyFD1pVvU14zbSOdC2T3usYoVKl+I4CQPnzWg9CQHuUzCso77zUER75Nf06N6zz37dZEtFjV6ECS6vIxGmDLxTbqNbEOvkzIOfdJ0HIILWbWqTczI8CnTLj8NQhvsSMtx92XknzrOlrBxIhp8CCnCkJ4WXk+zM0GbtBrBd4KOPDXd5dsidzphXrKRbpQLvAimNkXZ+MjQwXLB0tbRSZA3ea1P2OBC8MnH7SMpsM4I6lNcePR1sb096M+Bcvj0YCtHQD/kanPI7S+Vo7RoUuSSrtqR+mDMtXsOqH+eLpRr4LqX8qAzwlIfM+gn/5YgnUCsgkn/0P4bbtel8qvq5XyL/Y4k0q1DfwiLLIM8eU0cQuVZah7V4xiE82aOMp559lm9BIO+1yLkKsIOEheJIguCJQ8+mAgc14l6S+AXnwIxWTdybnqNjFtZhzxn7XD2zwFnR9hVpk0Zvs+yTSROw7GIsg9xod8Iux2B5Lxyoav0TiS5PspxPiZ7kgf56+ZM5AFeHCwg6+CD7ON4AqXl3SVA6wHKogwdw4TDF2nt2aiAfHNQ27kPkNo3By9u+s8jXroQRB7LAeW4r1k+By6anPFT5lowVlys/InlAqJuxmfU7319zNg7tuuLOgt4vvAhSyxpbiTy/DTfW91uKLavO/1PnRx9fGEQ1rFGJ9lsSVOmdanD1rYtalnJ1i1PgYiUk6/jjwhTTj6vJi5ZD7uuJf9ccJaEDRwXMUAQ3WpGBZkJwySdZQpDukGspO/qtDySdbnrMkz2O+WFQ6bX3IMoAIuhLUZbAuPF4XZC+Lk+uwziWOMQFu2zzlUWHvndh93aLsK1cGHhTJ6+5vqnstInjX3giRrK8oWOfHOgPNLbBW7+0wVtII0yd9LJG/NE2hxc/6gdyHDkb2Ha1BM7Btn2QheeyEi7R1gaR9qhuZupmLw41mBFS9uuTZ8X25r2kx98dzzn07xK7sfrcpschjjzmseZgOWwliMuXdJ7mo8+rI+1PDqrtjOx656B+rBL0jlsODySnQtOlrBBltnVOE6LtZNEW7gXSdt6dshMyM43yeW3vDt1EO56lkHeOW5n5EUytzhch53LULtTWUa+wQrIc9WFFzWrnLVw+9wGkPsQ/3XpAnqbuT/ATVpb2Et9cfmuf07TOhmUSx5e/OD4aQ4u+wLoVvy5DI6kKqiXeiiDebJsCW4XnzJ8sc/YN7eMG+M3WisAy5MbgZlk3U6I+bGwhm2tQsZP3eVLmdovwxOfjkPC2qaMPLaU4eMMyrCV20h1S9QQsIgXMg5HvqbT9Gx5+1hD4XDKG77LbPna8Yqtardjm958nOFwloEaP3WcNGGDLN/r2CTdssuk1uKJZGNzOE1yhxNxSx76oMW35eEmeS9rBNU3XUSWh9kLB13aZzdX9hIOWYS061iLNvdzVObcGDD+WNlr+koZ+8YSzPWJCyxfKcB9BZDL2pmD1BfD6ZBq+/6Zizd8ATKvw1rGCOTn0xVPafDp6RBQvj9t+FNfBumQ25NPth8EoC63C2LzCymcGUOWHHXwdcM8dqcbi0HGAF10yO+b9S5D30EdhG5L2OMhsu5HHrakSffFwU7EHHroZBl+JmyKVXr/RABZyy+u6W7nxOEsAzV+DjgZwgYsgJFvEM+kgF9d/JeId0uySut5iFfSlo79bm3a7ehMst10h4EXgmSRRl2EkdufA2Wxab0hbgrHWry5zbXMOk6GZVU+B/Qu017y0AY9LdQ/Qc2Vg94coqUi7UWdA/oD0OXiz1pZC/JoHXefNmH11zIgPX1HRxAzZOZ20XcR4ESIzXKFxEWij+1+F7yJ0/nxScc6xplIVSblhSNPc1sS3nGRx1a3011GzjvJ+xGI4zjgcHaWj/xzxUkRNmAR5AVRwSbJG8X6O/nQSaS9kxa+yxi5rBuBJo+yvAmcbl3LWlzRCci1oSJtBOcHXkhsWiw3LMFzR+4f0FimcbttMOZuC/6ptGsf3G7GkvVFGJkfPfW9AEOWc1jYPLGR+zwC6XZZj/gO4UKcWR6OMDDZ+gWWnI+24KsOy3o6PnKnN1lP70Sd03GG41k+558zTtLCBnVROe4NX3WzTGHIIX0sbW6bP5dDOMunMsIBpSUd/fU04HyWSSfJLM9ANEoj7k14KJTnEvmuC/QfZ4z6e9PIm5Yw7YHg/InmkE19bAI4tDyPp9uNn9ehQZpJsaLqosPxhNvi9J0yIkw8E+c2vrXEdxyWNH4nZeujm/VzOVM88s4df+DcPvsOg5p+7ji5M2xjLo6fnTGSy+9xk7ePSab0gImFeHbA4aqzg54+5Yk/688hl3cstHYO2ncLaG05fh+PDdqmRyT744nnDEhJJFduxbIePR/7AFlzg9E38wzKzqTf6tolTNLsRpa0nWRd34Td4r39pPMXfvw36eIM6SRnWfaNGj9nnCxhgyxzuMrsRnEwxcONLO4cz+SS5dnVRZ/TDMU7WYG6YKx/7GMPyrxNgqx1u58W3ea+oQ1uTwZx2q0jL9JuqpG9LbU9h2BERLZEAWUTVh29LqUt9NEkOhFnVyVcSdPxpheuk6xkKS37djnOsYfy4/jr6cBy58nyNf6jhpMjbA+049WvMElkvaxb0+I/+dniNlp8S8iOK1+P2xk1bpAvl1VBHqUP8l4WLjNa1CU3i9FRzmhsbgPT2AzacxttbO0Zr52rYkRW1IMchyW7hK3eLnHaElY8/iYSDZ+w5MTDZYJ13LKtn/T4Cz/+a/E9LsPx6j+KOMmbjhVLMvwadtyocvnhTNpG1gE+PkHGInCa9bJuBvI5cjBqGUu6h+A6ypyDyk915LpvG2pLunC5bXPtu+5Nnuv3WrK7KVBvJtI5OF1/XU/xTrqOg0rCcy6n+yhFZ9Phx3/ND1jH8dre6hs5XtMeJZwFYWc4vep58dsZo7h9hUsafwakmy1ww3mVfwDk+wjbsO4xsdS2Y+GQPt4GpnE9kfZ5rPL6ug2YJGdJLeQmyQznqQQKLB+Ra0vbLTOk07GHnVHjc/Vlv2JO/ijg5Agb7CMBp1e9Kse3y6jpxo5eT9NflnfkvDmZtUKcDbqWiEflLyHXvYRDyz0Uc+1Y277rhttxjm2BdI7V7kp2S0SXHfVXGc661d+StkSTLHJNeiQSzq6Jt77DwPEsAzVuzMkfFZwkYYN9i9Xpc3rIs6tYko/8CDS/Y0pPhO7FQrxZVC28tIim8g8Aedbku0zZx8BkTYY7dt8vA7fnFOB2LLWHMcOhc9V2u6x9QAdyrbC8luFyLW/hZBGbpCXf5m16W2fMycGh8UcZJ0vYYN9iremj+KgMy6pvjOJVBiSbketvkHYMzLVnCdfUlCHWtu8y/bgMrqOeq5S3L28moKu2ey25IR/p4sZEvptH4ULSOd3I8rk0h42ql7GU9ijipAkbeMF6YuYWcJYvLXLSRrpr8uDyArFshDn5hJ6+V+9IiJbeWF1rQXtO5bnxQ0B77c4JrF27fUDHNwczHI8U+UCycPhTevIdNoiPrHYj57U/Guu5/I8yTp6wAZOVJ2duoyxtIJeBX/Ucn8s/l76Ub99iIs8o33VgqueG6lsLjcEtXUiuWqfaflrDuRdeknltzq1T5Pqr6ciLTLpdltMst8xjTnwNYRvE63zN5X3UcRaEPcLaDTfSWyObi+/TuwpcVl2MyI9Zzwi5/LpB1m6Om2jnUXBC7YyWHKUtzBF/IJeZ5SNobhfmV/lL+kgGssw6S3rVN4gvjcmozD8UnC1hg7ULfU5vKf8ozbK19R6KXG5elMivq07DdVCvN4zjYM0mcZ5zwKHtvI5+eZzjvy65Avq8gZ0yy7zVedw3r06f80cgbU4vx0dlZNlozEd5/pBw1oSdcewNOEo/tI5DQfmuY9/CnYPLcP66wGv5juc6SKvxNch5HiWMxuhcwVyunc+Mmm9fOU4b6dRygMd2qcwvEePzqBA2uMyGWpvnJjbrVesgfy2DDVA3BX7eGFet91HHaFzPBSNCzHN/CGrepXJGaftkdV1+iYt4pAh7DlfdbNexWXOZXqTX1c5jlX+bcNvx3Z9jbe5R2RnHHjfKq2VepS+jskZjZD1khEc6a7Em7yjNstyWL7EeXxL2AThWOccCi/262nTVco+5Ed2W2qbrqGMNsm5uw1IZea4OqeuyoD47sK9tc1hKm8Oa8tyey5T/h4w/CMLeh7yYWUA1Dq5jk53yor2O/l4GeT5qm441bof2dW7eTmXMDMkW1S4AAABJSURBVLcvj+EIS+N42TGudV62nC+xiy8JOzDagMiWFtltbM6bWvS30bc1OKV27Vsfc7jpPqxt45LeXJr7ktPruIx0vsRlsdn8fx1m8doJ9JomAAAAAElFTkSuQmCC;" vertex="1" parent="1">
          <mxGeometry x="700" y="400" width="88.17" height="70" as="geometry" />
        </mxCell>
        <mxCell id="ieQxvcUEDRAMVTVQHlv8-24" value="GIT" style="text;html=1;align=center;verticalAlign=middle;resizable=0;points=[];autosize=1;strokeColor=none;fillColor=none;" vertex="1" parent="1">
          <mxGeometry x="160" y="298" width="40" height="30" as="geometry" />
        </mxCell>
        <mxCell id="ieQxvcUEDRAMVTVQHlv8-25" value="CI" style="text;html=1;align=center;verticalAlign=middle;resizable=0;points=[];autosize=1;strokeColor=none;fillColor=none;" vertex="1" parent="1">
          <mxGeometry x="370" y="268" width="40" height="30" as="geometry" />
        </mxCell>
        <mxCell id="ieQxvcUEDRAMVTVQHlv8-26" value="Pipeline Artifact&lt;div&gt;&lt;br&gt;&lt;/div&gt;" style="text;html=1;align=center;verticalAlign=middle;resizable=0;points=[];autosize=1;strokeColor=none;fillColor=none;" vertex="1" parent="1">
          <mxGeometry x="670" y="274" width="110" height="40" as="geometry" />
        </mxCell>
        <mxCell id="ieQxvcUEDRAMVTVQHlv8-27" value="Azure Container Repository" style="text;html=1;align=center;verticalAlign=middle;resizable=0;points=[];autosize=1;strokeColor=none;fillColor=none;" vertex="1" parent="1">
          <mxGeometry x="485" y="338" width="170" height="30" as="geometry" />
        </mxCell>
        <mxCell id="ieQxvcUEDRAMVTVQHlv8-28" value="CD pipeline for Dev" style="text;html=1;align=center;verticalAlign=middle;resizable=0;points=[];autosize=1;strokeColor=none;fillColor=none;" vertex="1" parent="1">
          <mxGeometry x="275" y="478" width="130" height="30" as="geometry" />
        </mxCell>
        <mxCell id="ieQxvcUEDRAMVTVQHlv8-29" value="AKS" style="text;html=1;align=center;verticalAlign=middle;resizable=0;points=[];autosize=1;strokeColor=none;fillColor=none;" vertex="1" parent="1">
          <mxGeometry x="594" y="470" width="50" height="30" as="geometry" />
        </mxCell>
        <mxCell id="ieQxvcUEDRAMVTVQHlv8-30" value="Selenium&amp;nbsp;" style="text;html=1;align=center;verticalAlign=middle;resizable=0;points=[];autosize=1;strokeColor=none;fillColor=none;" vertex="1" parent="1">
          <mxGeometry x="700" y="470" width="80" height="30" as="geometry" />
        </mxCell>
        <mxCell id="ieQxvcUEDRAMVTVQHlv8-31" value="Deployment pipeline" style="text;html=1;align=center;verticalAlign=middle;resizable=0;points=[];autosize=1;strokeColor=none;fillColor=none;" vertex="1" parent="1">
          <mxGeometry x="255" y="678" width="130" height="30" as="geometry" />
        </mxCell>
        <mxCell id="ieQxvcUEDRAMVTVQHlv8-32" value="" style="image;aspect=fixed;html=1;points=[];align=center;fontSize=12;image=img/lib/azure2/other/AKS_Automatic.svg;" vertex="1" parent="1">
          <mxGeometry x="466" y="660" width="68" height="68" as="geometry" />
        </mxCell>
        <mxCell id="ieQxvcUEDRAMVTVQHlv8-33" value="AKS" style="text;html=1;align=center;verticalAlign=middle;resizable=0;points=[];autosize=1;strokeColor=none;fillColor=none;" vertex="1" parent="1">
          <mxGeometry x="475" y="678" width="50" height="30" as="geometry" />
        </mxCell>
        <mxCell id="ieQxvcUEDRAMVTVQHlv8-34" value="" style="shape=singleArrow;whiteSpace=wrap;html=1;arrowWidth=0.4;arrowSize=0.4;direction=south;" vertex="1" parent="1">
          <mxGeometry x="335" y="508" width="60" height="80" as="geometry" />
        </mxCell>
        <mxCell id="ieQxvcUEDRAMVTVQHlv8-35" style="edgeStyle=orthogonalEdgeStyle;rounded=0;orthogonalLoop=1;jettySize=auto;html=1;exitX=1;exitY=0.5;exitDx=0;exitDy=0;exitPerimeter=0;" edge="1" parent="1" source="ieQxvcUEDRAMVTVQHlv8-34" target="ieQxvcUEDRAMVTVQHlv8-34">
          <mxGeometry relative="1" as="geometry" />
        </mxCell>
        <mxCell id="ieQxvcUEDRAMVTVQHlv8-36" value="Manual Testing Aproval" style="text;html=1;align=center;verticalAlign=middle;resizable=0;points=[];autosize=1;strokeColor=none;fillColor=none;" vertex="1" parent="1">
          <mxGeometry x="290" y="580" width="150" height="30" as="geometry" />
        </mxCell>
        <mxCell id="ieQxvcUEDRAMVTVQHlv8-38" value="" style="shape=image;verticalLabelPosition=bottom;labelBackgroundColor=default;verticalAlign=top;aspect=fixed;imageAspect=0;image=data:image/png,iVBORw0KGgoAAAANSUhEUgAAAhoAAAG3CAYAAADy0/yLAAAAAXNSR0IArs4c6QAAAARnQU1BAACxjwv8YQUAAAAJcEhZcwAAFiUAABYlAUlSJPAAAHo1SURBVHhe7f1nexxXlrYLPpmRmfDeE3SSaERSFI0kUl4qValsV5XKtbp73jkfzvkj5w/MNV/nmg9nZt7ut7u6u7rLq6rkvShKFJ1ISnSigzeEN5kZkbPW2hFAAgRAgESSMM+dWAi7d0ZG7tz7ibVdLCeAEEIIIaQAxMMlIYQQQsiyQ6FBCCGEkIJBoUEIIYSQgkGhQQghhJCCQaFBCCGEkIJBoUEIIYSQgkGhQQghhJCCQaFBCCGEkIJBoUEIIYSQgkGhQQghhJCCQaFBCCGEkIJBoUEIIYSQgkGhQQghhJCCQaFBCCGEkIJBoUEIIYSQgkGhQQghhJCCQaFBCCGEkIJBoUEIIYSQgkGhQQghhJCCQaFBCCGEkIJBoUEIIYSQgkGhQQghhJCCQaFBCCGEkIJBoUEIIYSQgkGhQQghhJCCQaFBCCGEkIJBoUEIIYSQgkGhQQghhJCCQaFBCCGEkIJBoUEIIYSQgkGhQQghhJCCQaFBCCGEkIJBoUEIIYSQgkGhQQghhJCCQaFBCCGEkIJBoUEIIYSQgkGhQQghhJCCQaFBCCGEkIJBoUEIIYSQgkGhQQghhJCCQaFBCCGEkIJBoUEIIYSQgkGhQQghhJCCQaFBCCGEkIJBoUEIIYSQgkGhQQghhJCCQaFBCCGEkIJBoUEIIYSQgkGhQQghhJCCQaFBCCGEkIJBoUEIIYSQgkGhQQghhJCCQaFBCCGEkIJBoUEIIYSQgkGhQQghhJCCQaFBCCGEkIJBoUEIIYSQgkGhQQghhJCCQaFBCCGEkIJBoUEIIYSQgkGhQQghhJCCQaFBCCGEkIJBoUHmJZfLhWuEEELInRGTwoSlCZmXKHnE5KV/hBBCyFKg0CBzoqkiNktYBEHOaQ3VHLMPEkIIIXNAoUFmECWHyVEfE6NZ2Y6huMxDkVhEXESGO0uEBwUHIYSQBaDQIFOox0K9FSokOi8N45tTg7jZlUXrjnJse6wKJeUJxD0RGXJa5N3QbUIIIWQ+2BiU5CEKIpSd2bSPoZ4xXD7Rhy9e78Rnr3XhwrEBDPZMWpWKJwIjJqknJ4LDjHKVEELIHFBokGlyoiBCwaBiIhcEGOoew6Vj/fhchMbJt3pkfRDdV0YxNpiBnxWBYS8HnWOEEEJmQ6FBpnDNLZxYUM2hLgtPdsaDGEZ7JnHxkwF88l/t+Og/2nDhs5sYkn3xeFxMVYmGi4XeDQoOQgghDgoNMoOocae1wwjFgyUSP0B6NI2bN8Zx+fhgWJ3SgbMf9eJm14RrsyFBYyY6JKzP6hRCCCEUGmRezKVhfzkEiHs5JJKyHgQY6Uvj6qlhnHyzG8f+0omvPulD24URjNxMI5sJZlSlmNig4CCEkHULhQaZHxEIMe3VKqkkyAXwRWToC3ERE4GPUREW35wcxIf/3oYPfn0DZz7oRX/7BPx0YA1FoyqVQMKxOoUQQtYnFBpkBlNyIFxxI4Lm4Od8ExtmIhwUrR7JjAUY7s7g2ukh83B8+vt2Exw918aQSftWlRL3JJlJfGy/QQgh6w8KDTJNWFsyA6s6UdMqEfVMRBYO1iUiRI+ODojYODOEE2904Yu/duCrj3rR+fUIhnsmkB7PuvYe1v5Dx+Gg4CCEkPUChQbJ41aloR6NmXumcYIBYXWKCokAkyIqrp8dwrE/tePof7bh3Nvd6L405KpTLCIJE2h1Sth+gxBCyJqGQoMszHwqw/wcgno01HJanaLiIbDBvga7J3DtywGceasLx3/XhjN/60Dn14PITPhWleJpdUooOtQIIYSsTSg0yKLJlwMiD8yD4fbKlogNV52SEyEhCUsEyuhgGp0XxnDuvR6c/HM7zr7djeunhjDQMYn0hFa/SMjQrRF5RwghhKwtKDTIolEhoG0t1PSlrTZyIjbUnGfDLbQmxXkpcvBlI52NofPqBL74azfe+f/dwMnX+0yATI5l5RwdyjycP8WXuOjdIISQNQWFBrkjVGjof1sLxUbMLCdiQ/arcMjFEMRiIjbiGM8AI8NA++VRnPt0EJ//tQfH/tqFa2cHzfOhXWG9RFzC6+iiEpx6gxBC1gQUGuQOCYVGKDJyMd8t1Z1hx5xY0Dlec/E4goSHjJfDZBCg/coITn+gg3114dx7vbh2cgD9beOYGNb5U6JGoxpeRAwVByGErGooNMgdoVpAJIT8V7GhXg31cYTbZg5dEwmCrAgGXxREJhdgMjOKsbEx9LWN4sJHQ/jsN5349D+v48qpmxgdzMjZbjhzexf1ilgPlek4CSGErB4oNMhdoFLDta8wUWDqw+0zVCfIwk3QpuvO+5HxMyIefATZHIb6xtF5aQSXjw3gi7904NhrN3Dhsz4THCo2pkcYlT+rUqHgIISQ1QSFBrk9KhSMqJDXUt9tWRtQURJqpijCUwJZ1YoU83KYOAgkmrD9RhDAsxFDc5jMTGBsfBL9neO4cLQfX/ytA8dfbzex0Xl5BGNDrjpFYzCRYdGph8PehhBCyAqHQoPMg1Zf6GBdcTOnNlwVRmQqGBDIebKI+XLYmmeo30KHKg97pejOnIgMOTce+PBkWeR5iOtxX9t1yDkSQTaXRVaODfRM4vxn/Xjnny/jw/+8aoJjsHfShjs3z4ZiUYbXQAghZEVDoUEWRsv2sHx3xXpUuE8X8pE3w5aKHdJ/zlxliogNERxxWVe9oGeaYJGltuFQU3HiZ3OYGM6i58YoLh7rx/HXu3Dsz124cOQm+trGVccg5qk3xL0nu8MSQsjKhkKD3CGhqLClej7cUiWFrRpOBDg5kWdut0POtb3hvrikSBUR8VgcI30ZXD5+E6fe6sXJN3tw4dN+dF0axdhgBplJ3xqJWpsQFSxRBIQQQlYUFBrkDlE1EVWpTBP6LlwbDTOtGlm8CFC94Ez+xSW2eAwTQ1lcOTGIT3/Xjo9+fQ1n3u1C/41xq05xvVM0oLwXq1MIIWTFQaFBVhxTYkHFQzZAejKDibEs+jvHcPlUH06+3YnP/tKOsx/2oeeaCI6sEyTahmNqwC9WqRBCyIqAQoPMw0xPxTTz7V9+VDD4fgA/8JGVVxDPYXBoAt98dROn3u/CsTe7cPbjPtw4N4yhnklkJ1VhOKGiWiUIAno4CCHkPkOhQRZARYVaVEUSLe+R2JC3sXlQZEV7sGR15pREDn4iwMhEGlcvDOLInzvwzv+6gbPv9KLn8ijS49r9xYV1YiPn2nIQQgi5L1BokNsQiYp8cXGPhIahakPfLxQcohl8URDprI+x0TT6uydw9ewwTr8zgC/+3I8v3+pHlwiOzERgU9GraWibsI3eDUIIuedQaJBVgAoEkQs5Sa6BCAdfltkcgmwWvu9jYixAx/lJnHt/EKde78PZD3px9cubGOweR3o8a1Uw2nbDYhKxQb1BCCH3DgoNsirQjiteEEPCTyAZmieCw8vFtHOKnZCZDMyb8fmfb+D9f72Eo3+6ivbzA5gY1eHMXUNRa8PB3imEEHLPoNAgKxgVA5EpKipiIi48JJFAkZdCMha3AcB07pR0Oo3x0QmMDWTQfmEA5z7swKe/v4pjf72Bb073yzERHNo7xYt6p+jopKxSIYSQQkKhQe4QVxVReEQEqDtjaiwONziYDujliVjQOVO0qWgQZJAN0tD+KX4ui/SEj+6ro/hSe6f8tQ0n3u7ApeM30XN9FBOjWp2icWp0oZfDqlSi9yCEELJcUGiQO0RLaU0++VZI8aHCILB5UdxcKiIpRFz4QVa2fAQxnV5eBIQd07M9OTcp6wn0tU/izHs9eOP/cwmf/K4N184MYXRIzhdhoVesy2iwL4oNQghZXig0yDJSSKERIWLASQ0RBWo6S4oKDFnGdZI22afXkfPMcmJ+OoaxAR89V8dw8bMBHP9rNz77Uxsuft6P4b5Jc2pY7xStTlGxoUqFEELIskChQVYRKgCcqdiwpYkN5+mITCtTcjbhmgoOVztio4bKvqHuNC4dG8DpN3tx+u0enP+sD13fjGF8WMRKOASH6RR6NwghZFmg0CArnEhcOGFxJ6hesKoRGynU+roiO+rhm89H8PF/tOOT33Tgwmc3MdyfRiBiI+oKq3D+FEIIuTsoNMi6QMVCNptFNpOBn85ifGwSEyNZ9LdP4vLxIatO+eT3bfjqk170d46b2FBTT4iiQ6FTbxBCyNKh0CArn9kF/LTDYYb3wSHbc+xS1DuhgiGTyWIyPWGNSZXhXhUbAzjxehe+eL0dXx3pRfvFEfNwZNPBlOhw1SlOtBBCCFkcFBpkxaM6YUYPV9mTLzAiIeAs3NY2GZHJdtyLI1WUgud5NklbkNPJ2lwjUsSzoh6yGB9M4+rJIXzy3zfw9r9cxdlP+tDbPo5sxokNxVW/qNiwTUIIIbeBQoOsUqaFxmIxsRAGU6+Eig0d6EvNGpT6AdLjAQY6JnH11E0cf6Mdn7/WhjMfdqPn2oh5N1SwRNUpbL9BCCG3h0KDrFNCsSBCwapE7BV6Q2Q5MZRG29kBfPVRN758pwvnPurCtTP9GOqdQGbSCRORKxqFC0/BQQghc0KhQdYpKic0+ceQE3GRi8XdMtQPsiZHM8hN+Oj/Zgyf/+kKPvj3Czjx+g10Xxm26ehjEsZVqTjRQrFBCCG3QqFBiAkFsZxOKa9L+QsCZNIZjI2MYeTmCEZ6J9D59TDOfdCNT3/fhlNvdaPjwggyIkSsRsYEh4bLmRFCCHFQaJBlpFAF7FzxLvReS70OOd+8EVEFiosh6+cwMZnG5OSkeSvSYwE6L43i9Dtd+OJvnTjzfg++OTmAmx06Hb229ZBQTqc4weGiIoSQdQ2FBrlDtBTVeoZ8K0zJ6tpAuMG2pm2h95rr2uY3N4y5LMX0JZLBqlESySLE4ykEOc/mTAmgSyCTCdBxecgma3v3n7/BF3/pQPuFYUyOZSU+5x/Ry1OvSIFuCSGErBooNMgdstZK0NkCRKtDPDERGCo0RGT4sjvIuSoSPx1g+OYk2i8N4/T7Xfj0Dzdw8s0uXDs7iLHhaDr6uNwlebE6hRCyjqHQIGQKFQMzBYFO0KbNQm3uFFmqXjBnSkyOiGXSWfTeGMe5j3tw6q0efPluNy4e60Pv9VFMjvkiMPR8CRC14VjQE0MIIWsPCg1C7oBIL7ixOQITFH03JnDq7W68/+trOPZaF659OYixobSdG+oMVS4IbNAvCg5CyPqAQoOQO0S1gskF+adDm0+OpzE+lEXvtTFc+KwfX/ylC5//sQOXjrnxNxSrUom7nx0bjBJC1gMUGuQ2aEkYWQRLxynkVmi1iltqI9LAZoDtbx/H+aN9OPG3Lmu7ocKj65tha78R+FrtolUxGl4D6sK2CCFkzUGhQRZAC798ixpKslCMsJFErV5EhIPcFq1C0fujosP3fQz0jeNrERwf/uYa3vv3K7h0vA9D/RN2blSdEs0MS7FBCFmLUGiQeWChtziixhcqFMIVwdphiGVFREyM+ehpG8OlEwM4+lobjvzxOs5+3IWBrnH42QBews2f4oQK7zshZG1BoUHIMuO8E+r7ERESjyPnxRDk4hjqz+Li8WF88UY3vni9C1990o/28yMY6cvAtxliwwgIIWQNQaFBSAHQAb9UaKj5gQoNURE6Nwo8jN+M4eqJCRz5TQ8+/nUXzrzTh8HuDIKsq4rRKhSrRqFzgxCyBqDQIGTZUdeECgu35dblp5bzgCCOXDaOydEcBjozuH52HOc+GMKR33biy/d70X19bKqxqAZjuw1CyGqHQoOQu2IuIaDeiMhUL4hwCEf6ikXbuiLL8ZEsrn89jBNvduPYXztx7uNetF0Yxuhg2tpvEELIaodCg5C7wFVz3DoAl86bol1QYmJxORaX7Th8ERlZOTeDIBCLTSITjCLjj2F8dBzXzgzgsz934OP/bseFYwMYG866idpchIQQsiqh0CBkWZhPCagXY9qse3BMPRUqOMRk6efSJjx0OPOBrjERHMNovziGoT7XbkNRwcFqFELIaoRCg5CCowJhlsVEOIjoUG+I/LPtWMy35ejgJIb7J61bbNTdVc8mhJDVCIUGIQXA2mKEtijkPJtVXkRHLpaRX6bOAKvCwx12g4LNDT0dhMyPq97kb+R+QqFByAoh7GiCuPzT6VDmlxYzURGiVSvaW4UZKiEO+03YBIYLC3VSeCg0CLlv5Gd+MREYYsiZ0DBvSHhkIUxXhOdGeal7gnPrhKw3pj0YajpFgKxpsyj+Ju4bFBqE3Cf0KSumg3iZhUOQ635ZUbFxO/R89WJMjmXhZ6ZzUc1UnXcj3EHIOiES2fobkF+X+13JemYyQDajaoPcDyg0CFlhzHwimx99UpsYyeL8J/04/1Efeq+MW6Ya92LwEprBSjzsrULWAU5c5Exc6LxB+hvwRWx3XBjGmfd7cPV0P0b6J6fP5U/inkKhQcgKw4SB2GIakk6MZHDpWB9Ov9WFrz/sQ/u5YclQ00iP+y4eESPqHJkWL4SsHWaka/VeyCIzEWCgexI3zg7j7Ae9+PKdbrR9PWSD4Bl6Pn8L9xQKDUJWGCoMFlFzYkg2i9Ghcdz46iaO/60dH/7rVZx+swt918esOsVcx1GMmrcyfyVrBBMZ5rWzDbNs2kf31TERF3346NdtOPV6F7ovD2NyPDOV9Cm67z0UGoSsOGKI6SRsi5UbXg4TmQxu9ozhypl+nHyrHUd/f10y2y50XR6RzNfNDBvTqejlZe03JIMmZLVheiKvOjDuxa2aJD3po+PSCI6/0Y2jf+zE6Xd6cP3sIEb7sshMqHfPQlsYhb1Q7i0UGoQsG3daeLtwU3lhzvqeyMoiMkM5JV7kIZaKIyuPdqOjabRf1Hrpbpx8o9OWV07342bnONKS4eZfIp/syGrCkmqYXnWhpml6oGsCV07exJeS1nW+oDMf9KBTRIdWK9rvQ8RI/k9JBfdiNTxZHig0CFkmXMHtRvtcmrlw8k/+1OvgmS0uN4xBG9Pr/GtaRRJPJORXLU94EzkRHCP4/LV2vPPP38iTXjvaLwxhYlTERkj4ljbeACErGU2jvi+/Fd0IdcLkmI+Oi0M4+sfreO9fr+CzP7Wj69KwpP00crEsYgkdezcME0gIJvP7BoUGISsKERpLqTYRVGCYhaJB17OyHB/LYKh/UgSGa3n/+Z87cOL1TrSfH5FMOjCXs7bQ13di7xSyIgnTtK4kEtoN3PW0unrmJk78rR2f/74DX33ci85Lo0gPB/AzvggSrSpRgSEvKeFy+e2UFBcduYdQaBCyYogyQ7FFZoSz88yo7YVmsn5OM12tow7Qc2UcX3/Sb9PRf/leL745OYj+jgnLtHXo84ioOoWig9wv8tOgpkIVw5ocx4bS6L4ygstf9OHMu104/Yb2tOpF/7UJZMfVU+eLEHFj0GhI9Wbo2hJ/UqQAUGgQsoawRm5RQzfJWU0vSOYbk1+6tsjvvT6OE2/14P3/uIEjf+jA1bPa7S9jp1tYDRN6Nyg2yH3B0u3M9Dc5msWVk/347PfX8NG/XcHX7/fipqTlnB+OpBuKEdXZFsyCTocn9xcKDULWGCoUVDQkEgmzuKiMwA+QyWQxMT6JkYEJdMmT4YXPBnDkTx04+lo7Lh6/idGBtGXY1pJfJ1vRjDsUHYQUEhMWktY0vVkalPSnNnJzEpeP3cSx33fg+J87cOnoAPquTmBsICNpOSNpOmNhQ2k9k6lk6wQ0uX9QaBCyhog0gTonosxaM9pAM3Krt/YlM0/Dn8hgsGMc54/24cTbXTjxVhfOf96PzssjGBvOuHrx0MOhpvFGcROyXJiIlT9rKRSqBT8TYHwog65LIyIs+nHq9U6c+GunCI5BDHf78LOWuCVYDllf07OmbYtmBm5bYw4jnn0CuWdQaBCyBtGMVxvFqanIUA9HDB4S8pNPBAG8nI9YLoN4zMdAzzjOHOnBW//rGj76Xbu13xi5mQ49Iy6+yLNB7wZZTjSN+TrDqqxrGg2yOQz3pXHpswF8+p8d+Phfb1g7jMGeMXeutjuSNJjJ6LokTs9DIClbW2hYiwyJKDJoDy5dD/eT+weFBiFrjEgcTIsCXYrQkP1ObsjPXgftyrrW+X42i4mxLHrbx3D+2E0c/UsnjvyhHV9/2mdDOWtAz3PhteGoeTsIuUNMsIbCVavpPLGcJKz+G+M4/1E/jv22C6f+0osrxwdxs30CmckcsllJp3K+WlbOzeq6xBVIojQhYTGTlQqFBiFrDMmDF0ClRkJyaA++r098crI1FtXnwgDDPRO4eKwPJ97oxBdiXx3pRdv5YYwMpKdmiFXBYYXFwm9EyAxmpBkVvZKQdNTa4d5JtH01gq+P3MSpt3rFuvHNyX4M9Y4jiOfEAuR0kjRJp1mRFDqYeEb2Z8UkCdsQGUtCz19qGHJXUGgQsm7Qp7+4yImEWFLWPcn9JQswrREgnkvLkUk5ksFI/zguftaPD39zHe/9+grOfNSDm90TCOTJ0nqnhERPpoQshKURTSZa3REmF93X3z6Kcx9148P/aMPRP/bgm9MjGBkdg5+YgJ+clHTqIyvnZyXtZiWpZjwRGYlAlgGysu6HYoMpcGVDoUHIqmdx2ay2zXfmyVOgCg5tUKceDj3oBj3XvbFAzAf8iRyGuidx7cwwTr7ZjSO/b8OXH3Sj9/qYhbJ2H9q3ULA2HKxSIbPQNGFVbfKnacW6WYtY7bkuaeqtG/j0D1dx4s1OXD0zgoGeNCYm0sgGaUmFGbGsvHx5RdUkahKfLiUeX0y31SNHVjYUGoSsCW6X2WpmL2JA1jRztjVZWg23W5WlVqWoufPj8sQYFzExPpjF9TNDOP12twiOLhuJ8cbZIQz1TCIz6TwcKjf0CTXqAUDWN5YGwnRgaUNMJzcb7JnAtbM3cebDThz76w2cfrcTbV+P2GBcfpCREkkrRwJLR2aaZm2sfDVJr5I+4xJZZJby1EsyL3o8XJL7BoUGIesAFQGageuzoc4DoSbPhGHmrSeo5IhLxu6JxbWtqGT88k+Ox2Pq+wgwOZLB9S8H8env2vDu/7yCc+/1oe/amE1sJadJXq6ZuryL7woKsj5xglPSmqat0OM1OZZF19URnHq7A+//22V8/F9X0XZuBOlRFRKaftIIspPwM9q1OiYWl31atafpSNsPSTqUNOWJ3vD8OJKhJXwnPOaWEZoe9QiLufsNvwFCVgyaqYZWEHewxik5tdaLqOm67rO31KzAVaWoaSZtBYaYa4chp8hSewAM9U7i+ldDOPVuF4784Qa+eL0dbRcGkZbCxHoRJFy2YmGsoCDrgry0oj1JVGRMjmfRflHSigiMT397Daff6UDbV4OYGAwgukLOVzGgYbW7tYhf81zIX+RZc4lIjqmpqIjB0/hVcIjNLzKU/CMuTZP7A4UGISuKBXPOZcBy79Aiwje0p79IaDjME5J3ajj+FyasABnGmQ+78cXf2swF/s2pmzZlt01Hn4eLI//9yFoi+n71G448GBOjWfS1jeLKqX6c/aALJ99ox5n3O9EpaWZyRJt2ytly6lSqUIFhKS9Mb6Hlr6vQUP19i8lhsrKh0CBkxSK5aIHRTDqyxeCqRKRAsEA5pMd9dF0ewxd/7cSH/3kdx/7WgfZLwxiXgsadNx07xcYaRL7SyIsRfc86ffv1rwdFgHbgw3+/huN/a0fHhSGba0cbg2qayBcQZO1DoUEIWZCpJ1YtVGRbq1NUcPjaFkPnUJn05Sk1nCH26E188uc2HHurA1fPDdlAYKo1rMGoWNTIj6xeLC3o96iDvsnLzY0TMy/G5dODOPLndnz+xy589WE/Oi+OYaQ/g2wmTEMqSiwWJ0ruB0x99x4KDULWNVGGP3/Grxmzs7CwkI1IbOh6XEcNlZwkPRGg6+oYvvykB1+83YlT73fj8vGb6L02hslR30SJig6Ny/UmkHX9R1YF0XevaUUX9l0GwMRIFt3yvV84dhPH3+zEsb914usj/ei/kUF6TL9z115jhifjFm4nPOT4XKfMGUx33i4+ci+h0CBkPaPtMmzQrrkyZicspte1J8FMs94F2n5PTvMDH5lM2jwcnVdGcfLtLrz/z1dx7E8d1j12bChr4kSr8e2JWMLOXeiQFYl8V/adCerBUI/G2GAG1+S7/Uy+43f+5xV8+XY3BtrGkM34yPoZC2Tpw0ahnb/wdx4vSYeqXvKIPGG625YqWPJND0yl4cg0Dt3n4iD3H/lWCJkD/QELVtBMFTZkPeG+dic25jN3nlsPfF8KFREeWqWSdoVQjz7pftyHY39ox/HXOnDlxACG+yetgNCeCVoemAtehAdZedh3rH+qL8LvTLOGob5JXDpxE8f+0oPjf+vD5S+G0HdjHNkxHxCRAV97kITpQQNbduLylIUQ6bCIs2YzRwgmpxUFhQaZH/v9ul/s0n/8ZLUz/Z1Pi4r5iAokNU9CerKi3RBVcAy2Z3Dp0wGcerMHp9/pwYXP+tF9ZQTjwxlXgGkgeTMnWMK4yH3FfRfue5A1+350+vbRm2l0XhzBhU/75bvsw/E3u3H+8370dojIUKEJH6ofE7Ec4vLlxrTbaky/ZLXbf6/85tcmFBpkEUguI48xFBvkdkx1OZSH2riULXF5WcoJ4hjszOLrjwbw6X914Mhvr+HisV55Mh5HIOeaC1zOo9i4/0yJDP0K8r4GnXDv0md9+OTXN3DkPzvtu+zrGMXoxCjGM6OIpnDXad9VYCRyWRGcIjRsAHE1U5VkHUKhQeYkEhUuv2emvy65Q2WpQsMyFiuoIgERQ5AFMqMB+q+P4cqxARz/cxuOiuC4cLQbA93j5pLXun81RatU2EPl3mECQ++3fn9x14BT04BWk5z9sBNH/3QDJ//WhbYzYxjqyGB8MI2J8XFksjqaZ+B8FmEYG2DL9uR7MqKlfr+RzeTWPWQtQKFB5kULDM0couyBrBUW9406kelwHofbY94MXQnDaurxpbAJYoFoDlmTp1w/42OwaxKXj/Xj5BsdNmrk10d6cOPrIYzcTMPPhuNvaEQajxg9HIVDb63zYrh1Radv1++iTb6T85/22cRnp9/uwpVTgxgdkO/Ql+9T51SVL1y/pngsbhalEtWXgXyHOTUrZvRIdNShbzW3zTzv9mioWSw1ClJQKDQIWWe4QsU10lvIZmfgWvjPZ/nYlvzTwsaPB8jGssggjYyfEUsjq2JDhIc600cGMiI4hvDJb27gnX+5jPNH+zDYPWEFmUWjcei6XArFxvKj91S7HdvXLej9zojIuNk1jnMf6/TtV/H+v17BleMDGB3U2VQDTPgTskwj5uWQSHhIxuOuXY58Pe7hJCbfb1xMK06stY5ZYGbzA4uJEJFz5zJLPFY0RabbC2DqVmLMN32H2wQj9w4KDTI//KGSO0bEjGT49lJPhvk1zLchr5yry5ez/Fxcnp7jIi7S1gX2xOtd+PQPbTjzfg/628aRzUjxlHBufNUZ0WRd5C6Re+iqSUQgyP3VsVD03nZdGcHXH/fh5F+6cfqtHlw7PYThnjTS4yJIsu6+u7YY2vAz9GbI/2jOEZGdtjcwoSGiQky33ZnMUNYrFBpkbuTRxjKIME/XDISQRZGnA7QwssG5opckIz2s6cpM1nXaeshTsc7keePsCL58txun3urG15/04ca5IQzqdPRplSV6tiZNlxYpOJaO82bpNyHYd+GGkR/qnRChN4CzH3bh1JudJvTavhrG2KDed9duxtpsCNH3aVlC9CXOQPMO3R3mIXZiZGQ9QqFBbotlEZZHMKMgi0HSybyDgE2jgkELvXQ6bWNwxBNaKPkYG8qI4BjG53/qxMe/uYGTb7ajv30c2bQWWS5ONyqpM7JIXOkv6D10VV6ZCR+d3wzh+OtteO9/fSP3vA2XT/ZisG9UzpX7ra4KwfSEmm0RsjQoNMgCMHchd8ICAmNWWtLCzot71iVyYmIS2awO8gSbXry7bQiXT/Xh9Hs9+OS/b+DUW13o+mbUxnNwvVNc9mXzZ1BwzIuNwhrOS+JG09TGnr5NdHbyzQ58/sd2nJF73H5+xHqYjI+mMTmZlu8ia9+FiTqrZtHIdOnuN+85WSwUGuS2MDshd4PzhjlmNxxVdJ8WhNmMG6JcdYoUjTac+ejgJDoujeD0u904/kYHvvygG998OYCB7glz+WvitPYbEo/zcrg4ieqBaTFg9z0Xk3sWoL99EpdPDOHUu71yT7tw9sMe9HwzbvPRuBuq4QL42r3YGuJOCwszu9uR3StuTTe3Rz9LuLzn10vyodAghBQY56aP0PXIFO1Vot6JZDJl+3SeDD8bIJVKIpH0ZB+QnvRx4/wwPnutHe/8yxUce70dHd8MY3JCC0crG+WpOwgLRtu1rok8EKYz5P6pCBsfyco9HBFx0YO3/vkGjv61F22XJjAhgi2ro6aJuIiJGMnvqnpLTySLsNDoO2vRlG8urSwNvVa5ZiaI+w6FBiHkHnD7giJfjLjyTLddOw4tKHWq8ZGBNNouDuP0uz345LdtOP63Llw/O2SFaNzzrAeFPXOvU++GeRxUZAjq6dEqpolRH9e/Gsbnf+3Cp3/swqkP+tH2zRhGhrNIi6DT7qbOU6GB3Pfgvgu9h9Mm/+zeFp7bp5UlYdGtw8SwgqDQIISsSKYKOSk4tXJEm2SYd2PMR9+1SZz7sA8nX+/G6bd7cPmLAfRcHcXkqE7mZUWkxjAjnrXK1H0KP6OKBHU+TIxkcLNjApdPDOD0e104/mYXzn3ai85rI5jU0Ty9LHJx37oh6/3Kv0fR3cu/a7O3C8e9eRdy76DQIISsfKTsyfkiOKQATchmXCfr8oGeK+MiNPrw4a9v4PM/t+Ha2QF5gneNGOW5fMqz4WztFWBOYMgyr4ZAu5+ODEyap+ezP7Tjw3+/ZiN79rQNIe1PIJeYBLy0nJ7WljBiTmxoN2ONJorKliLsgjy7N3cwevd8uzfvTAoDhQbJQ3/M/EGTlYjKBiEqc8KySIfKHhvIoPvKGM5/2o9jr3Xi89c6cO3MEEYG01PVB1GtjBvwy62vZlRgWMNZ+bMeOJ58Rlnq1PwXj/XhyB+v46PfXsXXR/rQq56ekQz8TEbOFxEm4kLunJibWVWHEXes5BuzBr60dQyFBiHkHhGW9jOYa19IpA60KkBfYVmjS31q9/UxXsd5EMtkXG+K85/14/gbnTj5ThcuHOtH5zcjVvhOzRCrJmGdp2P1FV56yZFZ2SsfR3vs6JT7HRcH8fWnXTj5VgdOiJ0/2iv3ZBSZCRUVAUSHSIafQ1zElk7hbusShxYC7lbr/QmXU+uzsH36xnMR7Z/vuBJFOlfkt2OheGezlHNJoaHQIITcE1wjw/gsW6DA0WNhwwwTGlJYamuCyJmuWzr+hs6dYsOcy9P5ZDqLrrYRnHi3A+/92zf46DfXcOXUAEb60+YBsOoUKaV1XW01iQ2rJtHrFmGh5ajeO10f6Z/E1ZM3cfR3V/HOv1zA10e6Mdw9aUW5DoCW02omFRaBfHo/Bi+Iz7B4TnuYhN+F3fPQbMTWWWbeD7Xpb2G6UI/2R9tzoVdl0sa2lsbs913IFroGcq+h0CCErAq0vYATHK4YUdM5NwIpRM1kW8WDn8lhciRAX9sELh67iU9/346jf2jHhaP9GOyZkHNgvVM8T7I/iWQ1iA3zwMh1izaTa3fVJDe7JvD1J7345LfXcOy1G7j4RR8GOscxOZxBzte+JO5+2OdzN0+0gk5+JrIiNO3OOpM7FQAr/x6S+weFBpnBnWQzhNwzZiVQJzxcYarVKfpEbp4TKYj9LDDUk8EVHZzq7S6ceKsTX33ag7YLgxjun7SxOvQ8CezikuVKEh3R9dg12edWEQUM96WtoadOfnbi9U6cks916Xif7M+4cTDkM8XlHqhJECG8J7qmUYUCw4mMyJRoGQZbEst93/LjW+64yb2GQoMQsmbQMllNn+QV19Axi5H+cVw82oOPfvONNZI8d6THRhfV2WG1gHUFuoZdGWLDrkEvwy7FCQUVGQOdk/jyvR68/T+vWG8S7dY7PqQjqvpmiOmU7JFgWNznCDsPT4VT/WEaZB6i47Nt+Yg+uPmo8rbJaoVCg8yJ5htWZ2voj3xZcxJCCo7zBLhWHblsgPRoGoMd47h6cgBfvN6Jd39zA6c+6EW/FN56bjR/ihVr90lwWBuMSCTJ9UQel77raZx9fxBHf6/Tt/eh7dwwhnomTHzob9PXgT3148rpd/NLNdEQrt8/5rqC+39V5M6h0CDTyG9ZMzpb1YVYMpkMM1/tBmeHCso9eAuyKolSxswUsnB6iaod5FldBIcXl6Vsj9/M4tqZYRx/uxfH3uzB2U/6rTvscO+EdZfNj9MJjnCjgOh7uPYU+pmcByMzGWCwe9Ku1QYne6MbX77jpm+fGBaFoV1T475dr7bfyJlbQb0zFuVd4e7Bwne3cMz1vvfrWshyQKFBpnAZlPtB+1l9RIqhrLwMRcWpqd/5tJdjaUTuVcsL58HVHzsjJB9rYzBHLxXdjtoj3NJBws6QwhvaYDRrDUa1kkCrU/T89EQOF08P4/3/bsMH/3YNZ9/tRv+NMSvgo/fRwt+NvVG4RBm9h1yaXbRecXrCR/fVUVdN8v+9gk/++xqunO7ByOCIHM0g7snnkA/p+77NsqroFavguBv0t2f3Tk3uwZJ6CS0b+h5aNOXbvXhfUigoNMgU+XlIaWUK5bVJ+Lk0MhkRHYHLaJRC5TVRtMxSyLIghaUW2vaSRKViwRpLWmGqBwPolPNDPWlc/3IEJ//Wg4//4zpOvdmJjovDJji0OsV6p2h0EkTjXC7MWyIiQ9O7vocOupUey6L9wjCOvdWJj/50HZ+/247rFwYw1D+KTFqreDJyCTrolvwm9XOZsnDVPvdOBBCyNCg0yDSaUUmK0AywrDqF5ofK0LQ9hbrNKVTUFNth92SnmZoG0KdDXSq6MrWxZO48JCHzELrG9L8Nn62JTNJvLAjEskhIgZ2IZSTJ+5gY8UVcjOPL93px6u1enPvoJq6dHkJ/2wQmx7O3FOJ34+EwgRGFt2uCTXk/oO1HTg3izHs9OP56F8583If2SyOYnEjL79JHzNPGniowdGyMqJGkfSRBI5p5jbduE3J/oNAgU2heGmVNxeUeNu+uxnOvbsWTP2vFln0VKKtJ2lOXoplblPnG4s6l6mzazToDe6RUFaP7py0m2zZgkJUChCwTsemCOH+eDqs6yfnwVGQEk0hk0/ByWcgGslKQZ/wYuq9kceqtm/jw39tx6s0udF9Sb4IW7uobkXg08eufi35JRGHNjBjGRzPovDiEL/7Sjo/+/Tq+eK0b3Rcn4I/GRAzJb0NOVg+Gr9dpngz9bAvVkehvSX9f/E2RlYGmRkKmmBIPskwWx1HbWoJtB2vx2A824Omfb8aupxpR1VCiZ8grYZmtuaJljzaQt7pdfZlwmG3R/2mmt2cfIeQOmRIZlhjF7J9oXS2yHdoo1AsCERzamNJVReQk8eqw5hPjaQz2jFv1yVcf9uHzP7Tj+J870HF+yKo2TFBrYpdQUePp2yKn6W8lCqumM81ePd2P439tw5HfXce5j3vReVnnJQngT8q5WTlPhI+F1X9mSv56Pu5zOiNk5eD9n0K4ToihmaF7WnN1v8VlSVQ3FqOutRSllUXwEp6cE7cGozoEckyHNta6b8ngtJHd/CLDLSOmj8zBvAcW4o4CrSj03sc9D01by7Bhezkq6vR+x8NCyh3PZ2w4gwvH+zDYOYFgcnbhM1dhVHjcJS7TdzE7mtt9pLC6ZMaJmiZ1IbvssGxrywgVHooTIHqPZdv+tGrDtd+YGMzaaJuDXRPITOpYFSJQwpE5PU+/q9s/q6kXQ69A3y7wJc4xV01y49wAvv60W6wX13USuJtZ+U3JBaoQMY+gCpnQe6HiyV28XqIt3Y12W47Z27ch/1QX9a3M3q/bc2KfMFxfGejticU8FJV6aNhSar+pqobiqY80+7dECgeFBpmTqR+h/iolA9ZFsshDbUsxWraVy7LMCsCJUcl8JyRDFMHhSebo6dwUgsqO8OdscbhMyMWp/6OjM4nOcZnWVJipDNUVENH63Bb9X52sBaHh0PdeBtMPnm+yz6WCW21aZCjT67ZbRYQJYO2qLSZpVacVs6nFbK6PKLXNjEN7qGRFHOh97vpmGD3XxkQQpJFIxaQASyBZrKLbfScmKGZ9P1bdolHKfhUZo4MZtJ8fxpfvduLEG+24enYQg72TImDk/fUS5eXG0XBiRwWGVbcY4RXKiZF3Rs+3V/gbdZa/PrcZs3fIcuqYMHU7o3PCbXevbn2tNPR+6vfhhEaJ/KbKKTTuE7eX42TdYj9EM7eu7TMSqTgqG4qwdW8lDn6vGU//vBW7n6+3J4a4POkFNlGk+wFrmFt/ykvLkpZyrmPpIcjaRj1skZdNC2Ht5Bp2dDVzaWY63ThxoAW8douVgl9MRxCdGM3ZdPRff9KHI79rxxevd+DaV4PWFXUupgSCLNIT2ptkDCff7MXRP7bj3Ce96L4+hrGhjHkx1DuoXVV1dE9935y2x7CGn2E10JRQuh3hexLHYm4ZKTgUGmRBprSG5nOSh9nTlqyUViWwaVcFHv1WI/a93ISHn63HpkeqUN1SjIQ85Wl250yf8lz4aA8hhccSXLictkhczBQZs3FpXNP7lFiQ07Q2I5POoa99AueP9OHke124cKIfE2NuHItbkKAqtvU3M9yfxpWTQ/jynT5c+OwmBjrTIl7kCuR4dAVO4Oj7hdUlGoFZxHzXO9c+YuTfPnLfoNAgi0bFgrbZ0HxNn760IZy6jzc/Uo3H/q4Vz/zjZux5qRH1W9W7IUkrJhmppjCtX54aBYi/fHIv0MLXEp9t3Q1OcIQiW9Kveu406r7OcVw/P4iJURsH3ERDxLRokHDZHIa6J9B5eQTdV0atXVMupo1QNWIX92ws/FwDhZlnQ958ht39ZySkkEgqJWRpWDWKKAjJCi0f91IxVNSn0PpwJR75VgMOv7IBB3/YiOaHSpAs0lPkXB27QM61vDgyQlYbKgzMqyd/Yq49xdyJWY/YUkWDiIFs1kc6k5EwIrzDg3OJDELWGhQa5I6wLnqiGjSjjMYOKi7z0PRgGXY9W4eD32/C3hcb8eD+alQ3J+VYwho16rwpzl2s4cO4zKLXrdn2Ldn4LTtCoggJWTJzl/iz97r07vZq7xNts2ReuzmIPBy6TEjaTyTjEsZ2mUBZmshYbNrmb4CsPCg0yB1jng0VHJKK1CzzFNGhvVOaHqzAE3/Xiuf/cQse/2ELNu6qQkVdCVJFKQkngkMz37hnPVVUXljXWLNwTfeHppFPbZtQCZezTeJ0mftayWxZaCyFqGZuti0G53XQqgpVzdPofm0MGlVh2PgZksaskWgQwLfup7fBkmQMnqT3hJcM06k7tDgsAjHNrm9nS4r4FpZ63whZDJoyCbkrXOEeLvVPUpU+vRWXJ01w7H62EU/+tBX7v9OI1ofLzPOh+bmNwSHhnJfDojDyVpfOXQVeCcgHsEx+1X+QNUVU7qrgiL4Z0x5LKJCnhfBSYVogqxsKDbIsRE9pUT6q7mV94ksVe2jYXI4dh+rwyAv1Ijrq8NDBWjQ9UIaSioSF0zE49KX5qYafnXevn2xWP2loSyjAyL1Dv53Iu6Es7Wvil0rWJxQaZNkx0RHXahVJXpK3+r6bBbNhcxkeebERz7y6CQd/2ILNe6tQXJ6w3FtChKFdZp6Pxmcjjs4yQu4nmgSZDAm5PRQapLBIThyJBG0MWlKRROPWMux8uh6P/3gDnnhlAx58vBYl1UWiSTTXTthgShrOhohWs/0Shy6jgYtu6dKnT4taX67GJ0dyb5idChdLnlOEkDUPhQYpKKYVtAGdYOMHSA6rwzfXtBTjocdrsO97zdj3cjN2PFmH5u2VKKryEE8lEPdSEsKDr6OMaqMPMR062iVZNSc8NGYbj8AERjiS4p3m/oQskjtKYpJMI4FhHjkT0bOZve9275R//HbnEnJ/oNAg9wbJA3UIcxvwS9A2HJrZ6twDOoT5C/9js01H/+BjdahuKkNpRbmcX4SsaocwUw6bjoamIsP1UXFH3CycsZiai9t6rBCy7GjacrYUAkmnrjHpfOF1Oz+Nu3Q+P7PPj7YJWVlo6iTknjGVuYZ5oo5FkCyKi7gowoMHq/H4j5pw6KdN2HqgHDXNxSguLhJRIieKMImLgLDehaHkcKbrauHsFfLEGB0jZNm5myoP9Wjo0hLnXCl0qal2OeIgpPBQaJB7TvQ0p+Z6pzh1UNWQwgP7KrH3xXrsfr4SO5+swgOPVKGmPoVkUk4JfBESviRaH17MLbWfrAoM90wXQzznTF/2XvbfLSMjZPlYWoqys+9GrBCyCqHQIPcV1zvFSQDtnaLja5RVJ7DjiWocfqURT/68HjsPV6K+pQhJT1ttZOHFnWlVSTwWiLDIiQgRmRF4IkQSYiIzIsFhS4k9z3SbkLsnkq5LExuErDcoNMiKQGtUrFpF/lR46Pgb1Y1F2PxIFfZ/vxmHf9aKvd9uRO2GYiTkuAkL81xIEBvwS1SITjClSdqWzPzJyoMal6xHKDTIisGGMxd9oNUp6t3Q9dKqpE3WtuuFBuz7bjN2PduAjbt1OPMiJFI6cYSHnAiLeDyBeELrV7QiReLI2RBguua2Q1OiJSF3y1Ll7J3LXw0ZmbJQTPnn5Ich5P5AoUFWFNZ2QwSH50nSlPzRBINYUVkCrbsq8dSvtuCpV7dg53ONqNtUiURJkaTipPyl4CWTiCVEeMRyCOA70zjyLNom5G6xZKRqeJHomVp1t3QiD11kt/PY5Z+TH4aQ+wNTH1nhuAxVvR06WVtpdRKbdlfh0e804fAvWm0MjpYdVYglPREW6t2Q85mvkhWIS8mErD+YHZMVi+uZ4pbm2dDeKfKnw5a3bC/HrmdrRXA02jgcm/aWo6I5gVRFwppo6KSalrFbeIvuNuij5mKMEELIUqDQIKuCqEpFhYOOMKqWLPawYXsZDrxcj+f+oRX7v9eEph1lSIoQ0eoTG3RjUcwWEwuZjkBKCCFksVBokFVH1CVWPRU64FdJZQItD5ZjzzO1OPx3LXjihxuwdW81ikoleas20GSe08G+YvBicXjxhOgVTfpqixUjhAhMLoQsGQoNsupQgWHeDRER6tlQiko8NLSWYufjtdj/7Sbs+1Yztj1Wi8YtpSguiyOZTIjISCDppZCIJyVsQrSH67Giw325sUYJUVyacsvIwjVbnd6O/i+eKJQsXWR5RNu6zD82e/9STYmWhNx7KDTIqsU8G556NmIiOAI3Hb1sN27S6pQWvPg/HsRjP9iALY9Uo6quBGUlJSjyiuFBJ2xLShidtM1DkAu7xFJrEMH1dArC5SzTlySWYGpfGGgJaBwaUMPPRLe1ak6XkSlz7V+KRWEJuT9QaJBVj/Nw6Fgaam46+qLShAmOXU834tBPNuKxH7VYg9GSSjknkGTv6/Dnkv2qR8SaXajKWKyR9YcrqFUb3HWRbREsJhY9567fjZD7DoUGWROY2DBTASFPi2LxRAx1raXYdrAWj7zYgF0v1GLr4xWofyCJitoEUkkdtlzCqOViIiF0hFH9SaiY0OVso9Agy8Vi0xGFBln9aO5JyJoi6p2iT5++eixku7q5BLuea8DhX27AE79oxM4natDUWoay4iQSnieniMgIhcS02JjLCCGELAUKDbImicbgUM1hukNSeqrEQ21rsU1H/9iPG3DolUbsfq4G1Y0p65ECbRwaDh3qqmE8Jzq08Ya248gzPmgSQsjioNAga5bpsTdUHMCmo/cSHiobirFpbyV2v1iDR79bj13P1qH14QqU16SQKhLREXZ/jbrBWr28tucIzbUaXcgIWQAmEbLOoNAgax7zbIjgUFNXRBC4HgVlNUXYerAWz/3ftuDpX23Czifr0bS5CsWlxRLIE5ESejSkZNDuryY4zJMh8SxYvcKfFVkAesPIOoM5Ill3WHuM0Nuh09FX1BbhgX3VeOz7zXjiJ03Y9Uwt6jeWyTkekolSpJIlSOqkbV5Cwqr4UDFB1juRrFwKTrKqa4xqg6wfKDTIusJEQlg6RGMjKOXVKWzaXY6Hn6nG3pfqsOfZemzeXYmK+pR5OOIxFRlJxL2kEykWSsPONiVaEjJNTNKas6ULFEJWMxQaZN1igkFMxYa239A520oqEti6rxKHftqEZ19txo6nKlBaF0M8oZ4MERtxz0qJnPaJvUVkqEX7lWibEELWLxQaZN2jYkN7nVgbDvlLJOMor01i465y7PtOHZ79VTP2f7cWTQ8WwUuIeLDGoK79hjMRHzkxCWwSQw+bGNENQpRIfBKy/qDQIEQRUSBaw1DvhhYMxeUeWneUY8/ztdj/ci0eeaEaW/dVoKa1CMkST4REQgIlrUolFk/KtoiNuIdAIpvyd0SREkLIOoVCg5A8ollhtemGTUcvokMbjG7YUYHHf9SMF/+3jXj02w1ofqgCRWUpeMkiERmuS6y231Cx4cfiYiI2xFRo2LAboRFCyHqDQoOQWbi2G7I00SEmS61OKatOYYMIjEdfbMRTr2zAYz9oQuvDpUiWiajIxUWUyM9Jlm6UUV3X9h9UF4SQ9Q2FBiFzMCU21BOhjUX9wOZPSRZ5aNpSjl1P1uHgyw3Y+2IdHnqsErUbEygu1UG+RGj4HuKBB31JLBJBGClZ30Sak9qTrDMoNAi5DdZY1IubZ0PFRpDNIZGIo3FzGR57uRHP/X0LDv+kERt3lqKyMoWUl0QSCXg5lRqRd0PioeBY50SJgAmBrC8oNAhZCurl0CoV+eVoT1edP6VxcykePlyLp3++AY//uAkPPlaFsqqk/Lji8AL5n3O9WjTcPYFPzCsYigyy/qDQIGQJuDYbtuIajGp1SspD3YZS7DhUi70v1WPvt+uw46kabNhWitJKD4mEVqBI6Z9XxuQPFrZcqL4wC6ON9MbUftsi95f8byJ/OZcp0ZKQ1QuFBiF3gLbdmNFDxbrEAnUtxdj9dC2e+6dWPP6TRusOW91UguLiJDydjl6rX+QVBL5r+xHOu3K3WNEk0USjTsbD9WgZmW6T+419W6GZap3HomOErG4oNAi5C1yj0cjkB+XFUFTqoVYEx/ZDdXjiJxvxxI83YNuhWtQ0FyORTCLlFYngcKJDwyjm4RCxMqU57qJ8UUFBVjoUEGT9QKFByF2iYiESDOrZUNGgIkKno9+6vwZ7XmjA3m814OGn6rFpVxXK61IoLtGxN9zIotOo2Lj7IcupMwghKwkKDUKWCeudYl4K137Dz4pokJWKuiKbgv7pX2zCoZ+0YMfhWtRuKENxqc4Iq56NuHlCrLFoKFiWu/0GIYTcLyg0CCkIzqsRU6+F/Mq8ZBwV9UXY+mg1Dn6vGU/9rBUPP12P2tYSxLTrLBIiUHTStoT8Kl132sV61+006hJCyAqFQoOQAmBtNsxDoU0/3XDmqgbKa1LYuKsSu56tx95vNWL3cw0iPmpQvaEMiZIUbAjzIAZfz88TD/N5OCgyCCErHQoNQgrIVHWK/dJi1oZDraQ8iQf31+CpVzbixf+xFTufbkDdljLESxJQjeHreSouKCIIWWZUni/SXUiWBQoNQu4BKjhUNZinw7wdQCIVR0VtEVq3l+Pgy4146qcbsP87DWh6sAzJYg++T51ByLKjPyr+sO4pFBqE3COcyNCl5HM51ztFnRbFpQlseLAUu5+qwQEd8Ou5OmwQ8aHdZPVcF9YtZzNXfjnPqYSsP/hjWBFQaBByH4g8GyoVtCpF22QUl3jYtL0Cj3+3UURHHWpbSqwR6czzb2X2FPR8WCMkhEp8RUChQch9JBIQ1m5U/iVSMVTWFaGiNoWSMjeoV3Te3Ghj0+ncdN7TyMogXxGSe4J6DWfedd1BOX4vodAg5D6j4kBFRlSdosTll2lja9y2XNJMM5CMdDrjvF2Y6LAuIyP3ABMZYlNiI385n5E7Rm6f/irsTpqSd78R3tV7D4UGISsE9V7o4F3T7TemxcNCxKCjiQb2Y9a81MyOzI0e5xwo9xMr+kKzb20BYxZ9R8its5+PmPbeUvGtMygri/1dkeWDqZiQFUZUnTJ/dck0OT+HYExEyaTLPLU3iwbTkLcPTe4f/HYKjXoEg5yPwA+QzcjvxA8P5GI2rxC5d1BoELKKScQ9VCSLUOwlRWDEJQMNDyxBaYQPfuSeEt3x6O4vZGQpmECfunWyLn+pYs+6k0csRsST5YNCg5BVTFFJAlsfqkVjSzlinnMRK+bVsH8LF1RBLJAHvFxeG0VdkSc+WURGlhtVg/q9RMvb2fribtKeExBuvBqtIYnLb6K8Jon6TaUoq065c1jq3XN4ywlZxRRXJPDQs3V44pcbceAHLajfUo540pNMViz0bsTi0wLk9kQF2/ot6MhKID/9zUyHJkDy0nNclIMnpi9RzqKtk4gnYjbw3cHvt+DpX27C5j1VKK1MhiGEOxAx5M6h0CBklaKN2rxUHLUPlmL7M3U48L0N2P1Cg01NX9VchGRJHImEmx1Wz3VeDguZZ3PluK5xKaCV2tFTNyH3Ek1zLg3G8tKheTqiLUvPIjLkFcuKzPBjKC0uQm1zMR48UItHXmiU30QL9jzXiNoNJVNVJ+rtYNXJvYVCg5BVinMPu94pWgfdsq0cT/18I577xy149DvN8kRXjvLqIpSWFMkTn0oKESbyizfXcdTdxPa6qhJHmI3HstNGsUHuKS69aW+qeEyEhqRBNe3GrakwJ8VWoGlfZz2WhO3FREzn4ihOJdHyQCUOvNyCF/9pK574wUZs3FGNVJF6+CSc/iP3BQoNQlYxU09n8qejiBaXS2YrguORFxvw9C82Y/93m7FpdxWq6yokIy5BLlBFIT/7uCdhxCSgvfIrxEWA6JaTIITcK5zIDaVvuO3EgaVPS6NippS1alAbP8dRWlmELY/W4LEfb8BTr7Zi77cb0PJQOUoqE/ASkrbj+huRYPqP3BcoNAhZE0jWHOTMdI6Upq1l2PlUPfa80Iidz9Zj26EGNMi+kspiyboT8H0Pfs6TUGryZGgvjSbK3HVLsgd5UnTrs43cGa7gnLlcyNYj059dR4fR9AoxrSRRz4UTxTEUlSXR+EA5HnqiBnu/04i9323E9qdqULepRH4DGkZi0W6s8keRcX+h0CBkDWBPbPrkJhb4OfjZAImkZxnxrufqceDHDdj97XpseLgKReUpeThMSoCUhEtaHbdKDScpNIOXyFRg5CSzVjESU5Mz5E2mjVnHnRMVpFGV1EKm56wnciImciImRDRLOgwkfQaSTnOaViUtJiRdJuNxlFUUYfOuamvsefiXLdj9Uh0aHiiVdCl3TNK/a5Pkfg+anMn9hbkFIWsMN8KoigFZ9+TJrzyBhi2l2PVMAw7/bIPZ1gOVKK70bMCvWCAiQptlxCST13xZyreYPTk6jwdz6kKgIoLko6nMiV1Zyj/rSRJPiGhIIAgkHUqaLKtK4aG91XjmlRazXU/VomFzCYrLRSxbNYmEt+TqBDFZGVBoELLKiRqETiH5qz3JCdHTXao4gZqWYjz0WA32fbsBB15uwM7DVdiwrQyllQkktXeKZsxyrmYK1pI/iJkQmb9M1PeYbWRuZt8b3qu5kfuinghJhVZNIiI4kUygvLYILdsrsOPJWjyq6ffbjdghablO0rT1JslJWtV0qsFDkU1WDhQahKxiIpGhmewMsaFIZqseDde9VY4HzmNR11yCfS804KV/2oxDP2nGtoO1qG0sQzKpVST6VOjGJchlc8imffPea9Y/m+lqlHxjlkLuDEu+IhhcNZ0KXw8pz0NdfTG2H6jFU7/ciGf+YRP2fKsB1c3FJih0rBhN15L04Ela1zRIVh7MFQhZxWjGqkJCq0ryRUc+U3mvrmiGnIihqNhDrTwNbj9Ui4M/bsLBnzThwYM1qKorQQJJJGMpJL0UUomkxS9ZeBgJuXP0HkZG8tGkqelMe0LFkUIikUK1iN8dh6px+KdNePKVZjz0WLWNh5EqkXOsv7YkdN7SVQGFBiGrGN8PMD6aQXpSxxuYzm3Ng5GnOExjmOlToE4wFVh9dlVTETY/WomHX6iTJ8Um7HyqERt2Vpqruqg4CS+ekDxc43VPjea10PgsVmWWqiG3Ibp703dwfZD/ud1nj9KkpiGXXmNIpDxUisDYtKcWO5+px95vN2L383WyXY6KOh3xU87T9Bu4RrJRmiQrGwoNQlYpKiTGxzK4fmkQXTdGMDGWNVey5tqaGZvliY0Iq8PWOhTJ8FWoaC5Q1ViMXc/Kk+MvNuPwzzdh874yVDUkbbCjaPp6bcOhwSysBZe4zVymT8hcmDidbeq9mELTl4iMZEzSXDG2HarFE69swFO/aMX2Q3UiMIqsrZFrbyRnh+lR4yGrAwoNQlYpmtFOjvo492kPjvzxBr54vQNd10aQzQSubYYOAyoZcxCKjnxchi8ZgC5tB5Aoilvd9wMHqvHYTzfg8V+04OHna1HdVCQZu54Ut+GUNKDGreElZgvsxEcs3CZkFipIJW1YrxAVCZqOVOPmEjayZ31LBR59cQOefXUzDnyvCVv2VqKysQjJYg0gYeX0MOmRVQiFBiGrGF9ERbeIi68/7cWJt7pw+t1uXDp+E31tY5gc950MUDGhIsA8HC6cYvsjgSCZvno39MmyrCaFjXuqsOv5euz9TgN2y3LzI1Uor0vCSyUQSMEQSIlhzhMxXwLnLC7JTtRk3RGWDqvKyOKY697NMk0H8pezvtMiUT1LjZZoRKqipCRlXrMtj1Rjz7ON2P+dZux5vgEbHy5HWZWbAE1Fsp0vwVyXbVkhqw4KDUJWMSoUEsk4spM+Oi8O48jvbuDd/3UFx/7agc5Lwxgfzkx5M/S/eTfc5hSWiXsxeOoBEbT9hla5lFan8MCBWjzzD5utxf/DT9WjdmMZkmUpBF7CxIWf8+FbtxQrCeRPhzZXseFc26vPmCXeHr1HWuAvYCY41WQ9Ehq6KS/tTVJSmkLTFvVitOC5VzfhyV9swJZ9FSgqExGraTQUGFZtZ94zjZesVvirImQNoA3pctkY0qNA95VxfP1xPz75rzZ88ZdOXDszaO03NNPWLoB2fpSZz0bLBS0kBKs3T+lcEkls2l2JA99txjM/34C9z9ehaVMJikuKkUyUSGTy3iJM1MPtnOLuRdYr+t1LCtC0JGZpQrSGdpdOpmJofrAUj75Uj6d+tRH7vtuETXuqUVaTtLl6XJgwYLROVj3e/ymE64SQVcbYcAbnj/dhsHMSQdqJg5wv+4eyGJB9IzczmBzNIpt1XoqYPB2qeNDzZjP9VO/WnefDiREd8KuiLoWa5iKUVyVRVJJw425YnYucICLHy0m88nINUCNbjQWF+8yzmV3oeUUxVLcUY8eBOpSJGJsLDeNLATvSn0Hn+VERgWPwA63S0qf8ud/nVlbaPVzoeuQzhfdJxWZMxKwnQrRY0kttcylaH67C9sfrsOPJOmzdV4XKhiIki0TYyjkuuUTpT22h9yGrCXo0CFkjaAEfaMEvBZiOlaGt9Luvjlq7jff/7So+/WMbrpy6ifGhjBMD+heaW9eVafIze61OUdPJqrbsqcKhHzXj6Z+34NEXG7F5ezWqK4pR7OkIHFr7rmh3WBYU6xGRqCZF1JORkDRRlEpiwwNV2P9trSbZgoM/aMaGnRUmeNWrZu0wJM1GNS1k7UGhQcgaQp8iNePOZHxkfbFM1rwevdfHcenoAI7/uRuf/b4Dl74YwKjstzpw9W7In+oMFRP2ZJmHCgatTrEBlQQVMWWVCbQ8VIa9IjSe/Fkr9n+/CY0PpKTgyGjrUMlYdI4UCRsVHrPiJGvohuj3q0nIvmu3EY+JwBBR2rqzEk+8shFP/nIz9rzYhKYHdcj7pKUhS3NytvV8osJY01BoELLGMM+GiIzAXPTqWXCzuY72+rhy4ia+fKcbp97sxLmPe3DjwiBGBtNyruX7rupFw4tYyfdwaDmgDU91qccCOVZclkT9plKbpnv3i3V4+IV6bH28CvWbS5Aq01JHAoZRRIUQC5QIvQ/RvYjW57OVSfR9Tn2vOddws7g8gbpNRdj2eA0eeakRj363GQ8drkPtxlKkSqanb9fkZclh5X5EskxQaBCyhtBy3TJ9Ma1FMVEgpk6LICeCwte2G2M4+343Pvz1NRz5UxsuHO/DQPcEMhltx+HiUJGRpzOmcIWKW7fqFInbS8RRv6UUB360AS/9H9uw7/staH24AiXy5BqXYxZA/tQhotdhk7cJ7j3kItcteh80C9blQrZSkXSlX6+saW+dRMJDeU0RNu2qwhM/asZzr27EYz9oEdFRCi/pPG1qigoSFbWWVsmah0KDkDWEZttagJsgkFLAddecFh2+WCbrI5vOYbBrEpc/G8SxP3Xj4/9ux9lPetHXNW4FgHZ11Tg0jHv6nFYdTmxE8es2rMeAPsmq4NjzXAOefGUjDv+4FQ88Wm1jIiTiKREYOkdFOE+FFFK5wA/Fij8j/vXB6i1g9fuOLt/X0TplWVrpYet+ERh/14Jnwq7Q9ZvLbMAtrSZx6SRKN6v3s5M7g0KDkDVEJDK0JIgydtsfvgItFvRXH5elCIjRngxunB7BuQ/7cfr9Ppw70o+r54Yw2DuBTNp3T51hwaBaIBIELm631H12TOLTMT1qW0vw0MEaPPpSk1gjHn6yHo1bi52HQ97bxIsoHwun1zNlC6ONDMn9wZJRaPYtyD9NF2XVSWzYVo4dh2rx6Lcarc2Ofve1G0qRLMobE0ODWnqxVbLOoNAgZK0xozzWDcnsYwGCmC5d4e6qLHLw4gHiMR8TQxlcPTmCz17rwYe/a8NXR/vQ3zluI4+G2sKEgUYXiY2IKdEhBY95TbI581rUSWGz98UmPP3LTTj001Zs3lOBUimYVLxow1Iv4SGZTNh6JIjmww1+ro1MV3NVi/sunK0e9KvRK7bvOPyu9ftVT9VDB2px6Met1ptk97MNNiOwnqzpQImE6u2+X7K2odAgZI0xVzGm+6L92gVWzTwK4RNnkM1iciyNwe5xXD8zjFNv9uLT39/A8bfa0HtjxImHsNDQiLRxaVSY5GOFkAkJPRf2VKtTe297rAaHfrJBrAXbDtegsr4ExcViRaUSRkcTlcCaG7no3VJEkRtr4tb3WX1En2Glfxa9Pk0bIuzkO9DvUEeAVU9YAA++fB9ljUnseLoWz/y9CEgRGTsO1U1N3x55v9x/QhwcsIuQVcyMAbsmJYO3J8e5svmwgNPCwy3cLh3V0xZ6QD0dUsxMABMDWfS1j2CwdxyZicCEhta1J5JhGwt7Hwkn54ukCCPU3fr0amt2TE3PLy5P2oRt5XUpeRJOiQBJSFwJOR5DejJrSy2kzNsiobVY0wLPxleQLRd9+J7RmxUMvYJbmf1UvrQBu9KzBuyyG7dCmP687l6LmegL77wKRxGMxdUJND5Qjm0Ha7Dr6QbseLwOTVvLUFyWcILEvvBIZEbpgBB6NAhZ42huLyYFgJUnVvPgCpAg2iUFhK/dYX15bs2qqMhI4T+J8cEsbpwdxUe/uYGP/vM6znzQg+6rI5gc811ARcMG09UrEVrIWIGj7yHHoim+qxtLsOOJOjz7q004+MMGbNpbiuqmEhSXFomQSWggudRALlMK45iaiBBZ2hjWU29Klh+9t5Yq4EmpoEPVq0jS6q3i8pR1TdUGnk//bCNe+NVW7D7cgIqaIhdSPVvyZ54sE6G2m5ApKDQIWfNozj9tWuBHFvoNjJiJEREEVp2i4gDwM7D5U9q+HsbxNzrx4W+u48Sbnei4NIJsWqejj7vJ2CScNfyTOPNxHo7pJ1w9V4cvr2oowoP7a/DY91usOmXn07WobS2zIdI9r0jiladkWddL0stWD4DJIy3QxHQ3WUai70lMv/uYH0dKREZDayl2icB47mebcej7G7Btby2qalUUxkOvx7RpWELmglUnhKxillZ1MvvYzO38gsLW9S9cZicDjNxMo79jAqMDGaR1CnpfCn45rk+x2r1Vn2in38cdUywKtzolRFR4aJ1+ZV2RiI4UyqtTtq0n6uBhyMWRsUHHJID8efJMpC8VQ66ax8VTGMKLnEX+/VGWXHVyYQTdV0bdtPr6Hnf8GfT6lukG2L0UM5Ep32MgQrAoYZ6nDdsr8eDBOmx/ohbbDtSgYUOpiUT7EsNb5ASkM0Lmgx4NQtYdWihEj6MLY2WKlolyugoJFRzq3fjir5344N+vm5ej/eIIJka0nYUrgPIbmeajhZGrTlGvihutVJcVtcVWkB3+uxY8+/NWPPJMA+pby5EqLpJzdfaURCgyXBxTpdxqRD/EXWEqLFzeJXIr7X5aY9wEvHgSyUQKDa0V2PlkA578xSY8/qMWPLSvBiXlSRN9vg5RL4nBBIYYIYuBQoMQMg/TBYlqCFc1oj1UchgfyqLnyhjOvN+Lj//zOj7/UweunxlEZtKNvaFVKhrcerSYi+JW7DwtrOQvnoihoiaFzbsqceA7jXj6Zy3Y92IjmraUWQPUSLNoI9F4XL0lq1hs3Ff03sktt69WvUcq+kTGpeKo21qK/T9uxpOvbsT+77dg48NVqKgrssnPLJz8d/OSaFhCFg+FBiHrAi0dFl9CWDGu6iIPtxl5JYDJcR8D7Wlc+KwfJ9/uwsm3unD+0150fzOMiZGMi0TOizwY5uUI49R9U0/Fsssai8pLJ9zSydoefrLGhMa+F5rw0IEaVLcUwSuRc6MGGmpyvhV6tr4cLFtEy8TyXo/eKx2zxMYw8TwbMryo1ENtaxG2PVaNvS81YN/3GrHz2Xo0bStHcUXCvidXlaURyJ9+X4QsEbbRIGQVs9g2Glawh+ZKjVtxx+YjCiuiwe2QZTQeBzA+kkXXlWF0XhxGdtKNEJqSQky7xJrXQs+XEyWWW97HCi/bFQoSiS+RiFv7jeYHK8yrob1PMukA2TRgE8zKOSpMtLBUdPvu0Geumdc1m9nXvdQ2Grnf/hseP/H/wN6BN+x6u0oeDM+ai+h61PI/XP76wtd7CzEdC0XnJEmguLhIRF0RGraWYtcz9TjwchN2P1WPqoYSa+gZBhALx0+RzzH78xOyWCg0CFnFLL4xaD5zl8pLK0imvRNW6Ms/PxPDxEiA8ZuQ68liqCstwiBrT81FZUnnwZCXVcFYyOn3dEv1UISFmpyrjUxTRR5K5Mm6pqkUNc0lKKlOWsGdHhe1kdWZQF04F2P+9U+9Q7i8HXOFncns+7MUoTH+//5/ofa3/08U+SMoFtsydgpBzEN76c7wzNnMdz3567f/bHrJ7r4LOXfv48kcNu2uwY4na7H7mTo8sLca9RvLbFr3qCrLBbB/t3xuQpYKq04IIXeAK3zMSyFPytErK4Vqb/sELn4xgC/f7RXrw4Wjg+i6PG69VbJZ7RKrYsKCT4kUxYkMXbp9WiiqpYoTaNpaiR2HdC6NZuz9VhO2P16Hhi0lUjhKFqbh5BXFo+h63uZ9J/bhG+HaNNuGj4ZrcxFd/B18CL23oWlo7a4aj8VRVlVk9+zBg1XY9UwtHnm+wXqUNG4RkVHizWjAO/1daESE3B0UGoSQu0ILdK1G8XM+9JWNTWA8M46erlGc/eQmjvy2G0d/143Lxwcx2D1p86e4ElALQScIZosCLeCitiAqNtQroIJjw0OVePwHG/HMrzbjwPea0fJQOcoqU0imvKnzV2LZqDPdzianvT3mRW9I1DhimrAXqtlc2OePluG63pfSqhQ276nC4b/bhG//37ebWGvYUmoNbW04ee2qrPfP7qGGImT5oNAgZI1xP8oJnY5eCzRzvdsOkR7yKK0zwPZ3jePSiUEce00Exx+7cO7jfgz3Zew09W5YGClPo+6u+bgna3eOltXafkDHctCncB2p8hmdsO3HLdjySCWKyuSpXIpWHc7chjSXcJ52xdR1My147Qy7PrNZBfntuNN7Gzzzcrg2zcWKx8O12xFdZyQ83DWrB8mh90aHhnfeHf3sCOIm3kqrPPNgHP7pBjz5Sit2PdMg967c7pXee41D760KDEIKBdtoELKK0TYaF473Y2CqjYbuzS80osJoNrP3a8Ecri6J6Xg0vAmDcJ9u68Ro+rScHs9isHsCgz3jGBlwXg3dr0Ndq3iQcjJEC0q3jK7HxStx2X4Xt4YpqUjaZF4VtSkUa8GZlAJX9mtVQXZCBIUUtrLHdcmUcBaPFtbhcOYavR7R/45oGX2m6Jiz2U/6S2mjMdS0G1c7SpDraMOYV4mj9T/HydrvRSfNMt2Xb3I9M5Zi+i8nn08FXkzbVuiQZioeEkgmkyIwkmjYXIIH9lVj51MN2HGoHi3bKlBambIGunov9T7Z26nQsDgJKQwxeYKIflWEkFVGT9sY/vx/ncfV44PIDM3+KWuBeituivjCMR2/K5wjs8JR/hIiCLS6Y9PDldj2eB02P1KJyoYim+k1yo0WKgAty9LzxPQc3U5P+BjsncD1s8O4dGwI33wxgPGBrIkMFRY56IBivsTnI5ClPvRrQY2cKpy4zfuyVJKVcWw5UI0f/e87bKjufPSa9DLVW6DX1nFhBF/8uROn3+tGRkWWCZ7ww85J3nc0Nc+Lml6zxi/3JhCBEfPgicgwQSXLotKk3MtiNG8rwua9Jdi6vxoVdSnntQhvpvNeqPC6gw9NyB3AqhNCyDISFYihiehQ4REEWSngpbCXZSadwVDfGL453Y8v/taGI7+9gbPv96D32pgJC+sSq259KaltojctsfOwAlL/VGTIS5c6fHndhlJr3Pj4j5rx5M83YOfTDahqKpMzJJsLkladoOJCC+e4egO0sNbwYp68hQ3REVn4XgVhqZGbKopMrjMWR9JLoiiZQiqegiefLZbVAc88PLC/DAd/UIsDP2gQEVeLqkYRcCntZjxzNE+KDHIvYdUJIasYV3Uy3b11JjML6Gnm27/85BdoUj7ao40t5Rr8dA5D/ZMY6EljdDCDSXny1yd1FRlWpSJm7Q6mmPZwRGLDkI+jn8gmbCtNmHdEC9iy6hSSOjeHnKdDpwcZkRTadiGsUtHeMhpFTISMSg730rg1Uokzin8eljqOhno1uq+OTg1OZm82L3aGoCfp9cpL4nJbWkniIYEUilJJlGs1yZYibN1Xjm2Hq/DAwUo0bilFcbl2/xXsrTS8+2zR5yPkXpH/KyaEkMKioiBQt72YFwCJGEbHM7h0dhCfvtaO9//jGr58r1sK5DEbedScGWpyai5Qz4grfiOs8NUndSk8NV5fCnFFZ4fdLoXuoVfqcfhnLdj+RB0qa8uRTJQinhMLimWpng31ZgTQS/FEWXjq6dB4xdTDcb+wKfzlQ5mJqABEyOR03hfX5kQrS5IirGqbSuSzVeOpX23Ak7/aiJ3P1FvViX6A6F5MfSBC7hMUGoSQZeZ2JbQr9Vy3Vd96m2QyPkYGM+i6OIYz7/Ths9934su3e9F1acQajsZC74YKCw0XjfcQEXk4tGbA9VDRwb7i5tl4YF8FHvtxI57+hxYbXrumpUxOlaJaPRsiMFRaaDgtvPXKoqoTtXs5Jb0bZTXyZGjWrAJKxFA8Ifu0F4nsszYlMVQ2pbDrhVo89vMG7P9JAzbvr0RVk5uXJLwV9plsXf8Rch+h0CCELCNaqN2+YFNPhbYZzfliWSlGZT0m6xNDGfRcHseFT/px7p1efPVuHy5/NoC+62M2Nb2cPRV7NAZHxAzvhhbY6qUQgVJek8SmPeXY9WIN9r5cKwV0DTaL+KhqKpGCOSnnucoIDa/eAhUe0aeIyuj8bbOpvUsgDGfenPyGILbUzyL75fp1HhLdZZ/PD+yaEl7CxhHRaqGt+2qw+4UG7P52LXY8W43mnWUolc+oVU42gZ3eEwnj7kX0JoTcPyg0CCHLiiuMFy7kpsa60DYZWSnoM2qyLxsgOzkpgmMSPedHcfov3fjoX67hy7e70X5hGOPD2bCNg6JxzBQbEVroqmsiEhwaoKw6gQcfK8MTv6jHU//Ygu1P16OmtRyeiA0vmbB5U3SOlej6wxVbnzJ7uePyN7W9aCyOKGoVFpHo0A8RWDuTlFyPemQCPytCI4uilIeKmiKb82WXXPPTv9yEZ17djC37qlBcmbDPaF4eeelcJpHYImSlwMaghKxiVmZj0Lnjn134uUJaBIZWYajg0G3zUkh4XWZ9ZMazGB3KYKA3g76uSQzfTFuhXFyqT/jOC5EvNnQ7Yloc6IYW6PIeIkBSJXERHUnUbCix6oaSypRdcjYtBXZW20TopvyXgGG008i+6D3i2hi02TUG1Vln50LPndkYdMxVkYTxT2Gbcn0iEnTD9wMkvSL5jNrQswQPHazEnufrsO2xGjQ9WG5jiOhnmboWW+q2bRKyoqBHgxByh7gi+VZbJHKqFesxHd8iKzsysq51KNpWQUSGn0E6m8HEhI/e62lcOjaIM+/14fTb3bj4WR96r45iYkTHx1ARIcHkX77omCLvmD7567pO1Na8rczabDzyciN2vliPTQeqULkhCa9YztUC2z6OnG+ROELZsnyE0bkqEzeaZ+D7KC1Lon5Tic3psuvZWux5oRY7D9egZZuIjHLnxYg+q4kN/VvmSyNkuaDQIITcIVYSz2G3xzWy1HN9WVEvhQ5rmkaggiMuQiOWQzrjI+2LONDzExKzHOq/PoHTb3ThyH9ew/HX2tH+1SDGBzPW1sO9vcQaeUVmoQWy8xhoYe4aoupQ3Bt3V2L/D5vw2CvN2CkFet2WYtmfsAaorhCf9hzc+vlufZ/bYtfpVlW42FvIdcU9z0Y21dE7dQ6Xfd9qwDO/bMETP2zBlt3VSJUm7LrVLKxdl60SsqKh0CCE3CeiEldH6lRTSeGqFbRbZ0zbS0hhr94FP8iKMMggO5m24cx7r4/i4tF+fP7bNnz+uxu4dKzPqpF0jI6oSkEFx+zusMpUwR6Pm/Dwkm7SsaZt5dj9YhOefnUr9n2vFS07apEsKdIQclUqfuT6PLk2NVFKKoFErtj1Lorw42qbEb0+G9FTu9MGnoko1UAbt1Xi8e9vwNO/2IRHXmwUwVFhY3RYmxNBr1dtWvgQsvJhGw1CVjELt9FQtEDKt4jZ+/NtIfIL1aWFdWVj3rn6Z40g1aJ9+uwjJifbjKda+sqfeji0nYUb3lwKeFmkxwL0t49jsGcS4yNZG9pbHRlaBZFIiojQwlm2nXND47dop5ZWWMuxQE7QVR1BUwf5qm4pRXmtTkGvjURFZIjAyFo1TtpdmgggDRgrClDZlMTOAw02pPpc6HtoG43R/jQ6L46h55tx29aIvFhCPpKHVEkCNc3F2LSrEjsP14nVY+OuCpTXFNnn0OvTz2DXHN4PQlYT+oshhKxJtESabfqTn2t/vi2ULWghGdlSw06/txuISj0Fui8pu9R0FE/Z1sJUd+uTuyy1Z4ZNzibqQn0Isbhn4TOBj7RYb+c4zn7ci/f/7Ro+/V0bvjlxE8O9aWTTKjy0kNbqBlEmcsmzq1ScZ0OuJTxHvSAJuYyWh4qx/7t1ePYfN2Lfy41o3l6Kokq5rmQOXkpEgk5LrwNvap9cE0vzo59Y0cau1o1WxIXOU+LJZy6rKMWmHTU4+PIGvPS/PYCD32tBw5YyeAn5jFoFFHpkTGToP0JWIfRoELKKub1HYy4WLhgd852Tv3++gm/usLcWlOG2K0XFrN+J2ydYg8w5TBf635XB+sSvU8znMDGWtV4pNzvGMdA9gcykj0Sxh5LypHk53Ns7UWFr4fVML/UcFTfOkkVxa3hZ3VSM+tZSVNWViCgJkJ7IIBErltwzQHmdhx37G1FWqVUsM9H3URFjHg25rravRtB5fgzJeDFKqj207irH7udrsOu5Omx9tNJmok1aT5qZ12bXE24Tshqh0CBkFXN/hcbSmLuw1H2RzWSG0MhD/QLRmpku1CsRBMiMB7jZPWbVKaMDaREFOu5GAC8ZRyIlhbicp4V/FFo/jRXmZm6nCoTI8WHT0YtQqW12QkOno0+mYkgli+HL+5VUxrF9fwPKq+YSGnJZodAY7ptAx8VRjPRnUbexGFv2V2L7k1XYfqjKvCXlNSmr6ol6xeiV2VJXCVnlUGgQsopZ/UJjFnpKZPMgksD+T5HnobAmHnJIRxHt7xhD1+Vh3Owas+OlFdrmIh56N1SY2G4j/9osnnDbqlTC6ovSihTqW8vQtLnSvB3adqK4NImtj9SiTI7NJhIa2UyAod4JDPalUSzXsO/lBux5UafHr0BZVdLEjw7oqej5+tb510PIaicmP6Q7zzkIIfeVnrYx/Pn/Oo+rxweRGVrcT9k1qLwd852zmLBzY407lwHtqZGPfuqomsK2w8+nHg4dgryqvhS1zSVo2FyK1ocrsHFXFeo3l1kBr0RCQreifRGaO0ZZZHRchcPIzYx5TrJZH60PVZoImY3GGwmN4f5xDPWk4WdiqN9YagOGaUPT6exXY4+8GYSsLSg0CFnF3H+hMbtgnP8a7kpozCiQ8+OJqjlcIR2tm2dA98lWUarIGlUmS2JoeqgcW/bWYPOeKtS0FKOsJoVUiTejykKZXeBrNukaZsamuppqGB2Lwzwk+n7ziAS9Jj3PrlHugRuYK4xPgri2Ie5cQtYiy/OIQQhZh2j2oSVkvhUmS7GCObRIDCj52zOO6br+iaUzaWSyWYwOZ3H1y1Ec+1M3Pvy3Npz9oA8910YxOZ5150rBb/OoyNLFNY2KCJ09VgWMnSem4iCRTNj++USGooe0rYf2JNGxOzSsRq/ixOYmmT8oIWsCCg1CyCpiWnCoZ0YL7Gg7QsttV3arVyMuwkBFhOzx4/DTOQzdzODahTEce7sPH/6+A8fe7ELbpSFMTmRNEKhwcPG6uGcQRh4Ji8WKBD3fhXGek+ltQtY+FBqEkFVIJABmCQFB90wdlRUbfVNNsru4tRaNY2w0wI1L4zh7dAin3r+J4+92WaPa3rbQwyGoDlAx4ISM7TKcSJg+thjyxZALa6uErAsoNAgha46cejLMoyElus0OqybCIK9qZDKdxdhIDG2XMvj0r+344L+v4OR7nej8ZgTjwxnrlhqplkhszBYWi/VKOHFCLwZZn1BoEELWKFqoh2LDEJGgo3iGjWETXsJEh461MTnio+faOM593IdPft+B42/04MbXw5gY0/lTtC2FxqFhbxUbhJCFodAgZE2jheJsU+ban2/z4QpvZ/ORf06ezfU2i7UZcS0G57XQl85VIv/NrNeMiI24LJMe4OnssUEa2pEkMxqg5+oEzn86gFPv9OHU23346sgAOi9F09FLUBUcslSBYkuKDkJuC7u3ErKKWbh76+yuqI7FdW9dG5g/w4YYdWhXUt3UO2VaQasyTHj4ckx25kR95FKynkCqOI6qxiS2HaywETxbtlWgtFLnZJFTgsDi1oajuk0ImR96NAgha5Ypj4aICZuYzbwbJjNEH4i4yGURC3w9ETld+DHoZpDJYWLER9+NMZz5sAcf/9cNHHutA5dP9GO4f8JVp+gsrio6+KxGyIJQaBBC1jyuEkUFgRMZbqnNRZ1F7TZsn4iRWFwESCyLbDqDoe40Lh2/iXMf9uHs+304f6Qf7edHMDaYscalhJCFodAghKwbrN1GaDMJBYhN+55GLjYpuWMacU+24xkTI31t4/jqw5s4+rtOHHut03k3bk7aIF8WAz0bhMwJhQYhhBiR2Mia5ZCRrYwICB++72NiPI3Bm6PovDqMC58N4PjfunD63Q7rCquw6yohc0OhQQi5Q7RgnctWM1qFouZPmQoNNwppgCAIkJ70MdwT4OrZEXxzdggTY26AL0LI3FBoEELukLlEhtpqJSeXH3k1QjMvh6KjgAKe5yGVTMEXwZEJYkhn4/BVjxBC5oVCgxBClFs0koqMSGg4wqajIjrkZK0q8WJubA1CyLxQaBBCiKqMqfE2ovXIZuIafWqj0QCqMdg0g5CFodAghJBIVOQ0S9R1WergXZZF5isJFRlarZKVvTpaKOtNCLkdFBqEEGLkiQ0bPjS0aH9UlRK135hqx0EIWQgKDUIImSISFZo1RqbbEaHYCC1ssSFGCJkPCg1CCJlBJDbyLSJPaGhbjWiTEDIvFBqEEHJHRCqDSoOQhaDQIISQO4Yig5DbQaFBCCGEkIJBoUEIIXeEtt3QLDS/DQchZDYUGoQQcodQYhByeyg0CCHkDohGBKXYIGRhKDQIIeQOsP4mojJsTC9CyLxQaBBCyB3CPieE3B4KDUIIIYQUDAoNQgghhBQMCg1CSEg0ymVks9HGCPm2Vpn9OactFlOTVdsmhCwGCg1CSMhsoZEvNmYWuGu5oHViYm6LPrut2zYh5HZQaBBCbkNUwBIH7wUhS4FCgxByG1iwEkLuHAoNQgghhBQMCg1CCCGEFAwKDUIIIYQUDAoNQgghhBQMCg1CCCGEFAwKDUIIIYQUDAoNQgghhBQMCg1CCLkTbH54DmZGyO2g0CCEkDtFxUb+SO2EkFug0CCEEEJIwaDQIIQQQkjBoNAghBBCSMGg0CCEEEJIwaDQIIQQQkjBoNAghBBCSMGg0CCEEEJIwaDQIIQQQkjBoNAghBBCSMGg0CCEEEJIwaDQIGTVU+j5NnSMbY6zTQi5Myg0CFn1zCc0ov35thDznRuJjEhw3M4IIWQaCg1CVjUiCHL6M84XBhH5omHacjE1CXaLRcfyLTqWW7QRQkg+FBqEEEIIKRgUGoSsalhdQQhZ2VBoELLqodgghKxcKDQIWe1YuwgKjfuC3nu2SyFkQSg0CFnVaCEXhEtyT6HAI2RRUGgQsqrJIZcL9H+4vTSiB/LZRgghywWFBiGrndi0RyMWs8W8aFdVQgi5l1BoELKKyeVUYETmmE9s2HgYunSbhBByT6DQIGQVY8JBxIYTHPOLiHyREQ3CRQgh9wIKDUJWMyIw/KyYr6NyinqIx5GLyzJPSMwYtZMNMAgh9xgKDUJWManiBDZsrUb9xnIkyuLwRWxkAxUXKjrkhJg2FHXm2nIEOgi5nGDBCSGk4FBoELIKiapKyiqKsPfpFjzybBOatlcgVZEEEp55NWKenBDLIabeDPihidDIBYhL+IWcG5HzY7YRQshSodAgZBUSC1t8JpIxNG4qw8GXWvDSq5tx6PtN2LS7HKlyD756NnTCtZyIDvNu2J+hSwoHQsi9gEKDkFWKejXi8RiKyxKobS7G9v012P9CPQ58qwEPP1mLlocqUFSeRKA/85wnwiImayI6pl6EEFJ4KDQIWaWoV0OdEkEQIPC1igRo3lomQqMJz/9sIw58pxGbd1ejrLoYyWQKXiwp4kKkhrk3CCHk3sAch5BVjIqNuAgHq0kRi8VjKCrxrDplzzMNeO4XG8Va8eAjVSirSIgqiSOnbUL1dDlXPSJ0bRBCCgmFBiGrnVBgqNjQ6hTVDYlUHDVNxXhgXxUefaER+19qxJ5nG7BxVwXKqpPwkp7zbGj1i5yvgsNe2ujTIiWEkOWBQoOQNYJ6NzxPftKyzAW5qeqU6uZiPPKtRjzzy004/JMN2PpoFWqbS1FSWgQv7onFLZxlBtqbhY1ECSHLCIUGIWuM/GoUW4olknFUNxVj22N1ePZXW3DolVZsO1SNqoZixEVowNdAkiHIyRaeEEKWCQoNQtYg6t2IBIM1FhWLezFU1BZZA9FdT9djzwsN2P18A7Y8Wo2KhqTrAqvKRD0a9GoQQpYJCg1C1jDWWDQed14LEQ++H1jtSGVDEbY9UYcnf7YRj/1dC7Y9XoOqxmJ4KTlfBEnkCbG2G0t0cURzqXA+FUKIQqFByHpBCn5tj+HcFTEkRFRU1BXhgX01ePzvNuKF//EA9n6rFTXNFXaevswTIuuel0AsFCtROw5bhIpCm6CaUVwQQmZBoUHIOsE8E6EQyGkfVxEKWl1SVpVC645K7Hq6Afu+04xHX2rGg/urUdngIVWsXWc9Od+ToGoSgQY1U+ERl2jkuIoSiZ9igxAyGwoNQtYZUXWKiQ71SmgPFbGSyiQeOFCJwz9rxlO/2IjdzzagaWuZ7E/BSybk5LhrLBqKDd12IkNMFMuUV8NFSwghBoUGIeuUKQ+HigddF3mgbTJKKpLYvKcGB3+wEc/+/VY8+i0VHMXwEtplVl0Z7jzt1DI1pHkglotM9trS3oYQss6h0CBkHaMCw/SG6gz1RoiO0G6xKjaaH6zE9ifq8cgLanXYfqgaTQ+Uobg8YR4R9WHEbSYVm00FcREbcREYahYdIYQIFBqEEMMER5gjqOdCB/wqKklg48OVOPi9Jjz7q0028Ffz9nKkymJIpmLw4gE8+PByOSQlO/FMbOTozSCETEGhQQiZgQoO1yU29EuIatB2Gjob7L6XWqw6RbvFbtgpgqNExYUTGDERGJ5WqYiZaKHYIIQIFBqEkFtRjSGmc6fIn22mShKoay3FQwdrsfdbzdj3crP1VGl8oBTF5Z612dBGpWrOO6KhCCHrHQoNQsi8qFiI5k/RqhS1ZNJD4+YyHPzeBjz1y83Y/71mbNxdifJ6naxNT3W9TyKxQghZ31BoEEJuS+ShcPOnuF4nOn9K/aZSPPx8A575x014/KcbsOVANYoqEwhyoWdDw2o4Cg5C1i0UGoSQRWFiIxQMbuyNAMniOGpairFlX5XNm/Lot5uw+zmdjr7S5lWREG5wLw1kqiO0PObZPQt3hnst5nxCyEqBQoMQsiSsS2xcG33GneDwAyv061tLsEdEhk5H/8SPWrH10WpU1hfBS7hzo660Lg63VLTRaGRKTo5Nme3RkyWsdps1m3k+IWRlQ6FBCLlzRAO4wb50PYZkURy1LSXYebgeT/9iM557dausN6G8qlRUgyemI4yqUBHhoaYRqHiwrCiMJ0KVhu3XAcBuOUoIWSVQaBBC7pjIu6God0PRthsVtSls2lWJPc824uB3W/DoS03YsqcGFTXFiMcTcq56Q5yIsOHQTUaIhaLFDWWu++Vcm2flVplBhwYhqwMKDULIXWNVKZ7IAdED2iZDG4IqFfUpPPxMLZ59tRWHf7IR2x6rQ21zGZIlSfNo6KRssqIxOHGh3WlDkZEzkZGQrYSdlz+suTo7zOFBCFnxUGgQQpYNq0bRPzNVAiIbZFFWncSDB6tw+JVmPP+PG7HnuXrUbCiRozoKqZwlAiMmKkI1h4kIExpuwrbpKhRdEkJWGxQahJBlZVpkCKIkogG8ymsSaN1Zjp1P1WLfS402Wdv2J2pQ05pCotidrILDBIUGD4VKxPSaIBvhOxBCVjgUGoSQguF6pzhJ4PuBCAmgrDKJB/dX46mfbsCzr260qpX6LUVIlOSs+kWnonem43WIppBlzuall2WoLmwxQ3kQQlYqFBqEkIKjHg4VD85HoYICKK1KYtPDVXj8h614/h8exGM/2Ij6jWXw5JjOBBtz2sI1FlWxkufhsP+h6CCErGwoNAgh9wTrnWJ/2ujT6YSiUg+NW8qx/VA9Hn2pBQdebsHOQ3Woby1CcbGHBDzEc56IjxS8pGwlbYxzC0yHBiGrAwoNQsg9I+oO62Z4DedPCXIoElGxcUclnvrpJjzz843Y+0I9Wh+qQGWNCo4kilJFSIqp2FDvBkUGIasHCg1CyP1BHRMmONy6ts9IlXjYsK0S+77TjGdebcGB79diw85ixFPaxiOH8YlJm0fFci4NRwhZ8VBoEELuG1YLEioNHfBLragsgYbNpXjwYCV2v1CDPS/WYNuhCtRuTqCk0nMCI+fG3LD1yOZlUScRQgoEhQYh5L5jgiNsw6HVKX42QLLIQ/NDpXj02/V48meNOPDdRjywt8Yma9PGpJ4OYS4BTaeEccyNHoiMEHKvodAghKwY8ttwRBOcJItjaNxShkeeq8fTP9+IJ3WE0X11KCtLWs+UmA1lLpmZCA9r+5HLhaZRcJ4UQu43FBqEkBXFlHdD0NoR3ZEq9lDVUIwte6pEcDTiwMvN2PtCEzbtrEJ5TRGSSR2qXASKmBeLa18VeDlZl/BxjSMUG3rO7V6EkOWFQoMQsiJR74brneIEh7bf0O3ajSXY860mPPMPW3Dgey14aH8t6lrKUVSSgOeJwIg7oZEQi6vHQ+NSU7Eh4uN2RghZXig0CCErGtdYVFec6aaXiKGiIYWdT9fjiZ9uwKEfi+A4WIvy6iIRCyI4YkkRJSo8RHJolUrMtecghNx7KDQIISse1Qiu4acTCzr2hpeIo7KhCBsfrsSOJ2ux91uN2PNCIzY9Uonyeh1zY3pSNguWF94Uy1w2dZwQslxQaBBCVhUqFrQKRcVGNquNMIDqpmLzbhz+WSsOiT3wWBWqNhQjURwXwaGNRNWr4YSGrkei5RYzwUEIWU4oNAghqxLRBfAkBxPdYCOFWnVKfRG27q/C4V+24ulXW7H7xXrzeui5mt3FwioUz6OgIOReQaFBCFmVmAfCeqeoucG+dHRRnayt6cEybH+yFo+81IBHvt2ArQeqUdGQQMxzQ57bWF8SzAmQmUR+jTlN/pnZtrzmioAQMgMKDULIqkbLeqsOUdEhCkIH/NJRQ0srk9i6rwpP/XITDr2yAdueqEbNhiIUlXlyroZzIiHq2RJhQkL+zWnRK9xWueGMEDIfFBqEkLWDlPlOOOjEaznEEzGUVCSweU8VnvhxK174p6048N0WND9UgZinkiFhHg4LugjNMPPwIgIQQig0CCFrB/MyTJX90yKgpCKJDQ9VYsfheux9qRGPiu18sg61G1M2kZudq71T3Om2acJjFk6SEEKWAoUGIWRNYppDPRthdYrvBygq9bDx4Qoc/EELnn11o4mOlofKUVaVRDwpAbT6ZUpgRNUjcyFZpw3uNd9xQkgEhQYhZE2jYmF6/hS3nhLB0bi1HPu+04Tn/mkzDv6wGRt2lsMriosw8cQSCHKSPWpjjriHIBIUFoX8U5Fh86iE+wkh80KhQQhZ86g2UIGhsiAXuH1aZVK7oQQPHKjGnhca8Oi3G7Hr2Xo0batAcWUx4KVESxSJpkhITikCRMcwt8qTnMUjMkOEBsUGIbeDQoMQsm6w3iZhrqeNQNUSyTiaHyzH/peb8ezfbxbB0YSNu2tQ0VCBorISeMlUKDRUsOQs09SJ2uKyQ8UGIWRhKDQIIesO83BoNUq4VL2gM8Q2tJZg7/N1eOqVBjzxw1q0PlyMVKkIkmw47fzUyzNPhvZtcV4OQsh8UGgQQtYlUyJjihgSqThqGouwZU8Zdj9ThX0v1mDX09Vo3V6M8sqkTUGPbByxQIWGhtB6GAoNQhaCQoMQsu5xgkN7pwTwswESSQ+Nm0rx6Iv1ePZnrTj8ow3Y+kg1qutKkEombBp617Z0qpkoIWQeKDQIIUSwqpSwd4qKCBUeOn9KTXMxdh6uxzN/v9nmUNGhzcuqEghEkGQmsvCDsHUpIWROYjntZE4IIWQKzRVzOfVWOPHh9uUw1D2Jjq9HcPWLYXS3DaG00bPRRutby+0cQsitUGgQQsg8aPY4O4f00wGG+9JouziE8dE0Hj7cgMq64vAoIWQ2FBqEELIALot0bTjcNmyk0cmxLLIiOnTytmSRDmNOCJkLCg1CCFkkOu7Grb1VCCELQaFBCCFLwLJM/dOcM6bCI0bhQcgCUGgQQsgScdmmq06hyCBkYSg0CCGEEFIwOI4GIYQQQgoGhQYhhBBCCgaFBiGEEEIKBoUGIYQQQgoGhQYhhBBCCgaFBiGEEEIKBoUGIYQQQgoGhQYhhBBCCgaFBiGEEEIKBoUGIYQQQgoGhQYhhBBCCgaFBiGEEEIKBoUGIYQQQgoGhQYhhBBCCgaFBiGEEEIKBoUGIYQQQgoGhQYhhBBCCgaFBiGEEEIKBPD/B7DOPPc/zPQNAAAAAElFTkSuQmCC;" vertex="1" parent="1">
          <mxGeometry x="443.96" y="395" width="98.04" height="80" as="geometry" />
        </mxCell>
      </root>
    </mxGraphModel>
  </diagram>
</mxfile>
